{"glyphs":{"0":{"ha":790,"x_min":47,"x_max":744,"o":"m 47 486 q 137 863 47 742 q 394 985 226 985 q 655 863 565 985 q 744 486 744 742 q 655 109 744 231 q 394 -12 565 -12 q 137 109 226 -12 q 47 486 47 231 m 508 486 q 501 635 508 576 q 480 729 494 694 q 444 778 465 764 q 394 792 422 792 q 347 778 368 792 q 313 729 326 764 q 291 635 299 694 q 283 486 283 576 q 291 337 283 396 q 313 243 299 278 q 347 194 326 208 q 394 181 368 181 q 444 194 422 181 q 480 243 465 208 q 501 337 494 278 q 508 486 508 396 z "},"1":{"ha":590,"x_min":-3,"x_max":489,"o":"m 92 626 l -3 783 l 290 972 l 489 972 l 489 0 l 254 0 l 254 729 l 92 626 z "},"2":{"ha":739,"x_min":25,"x_max":675,"o":"m 231 349 q 326 442 288 400 q 389 522 365 483 q 423 596 413 560 q 433 672 433 632 q 408 751 433 715 q 324 786 382 786 q 223 754 269 786 q 143 681 176 722 l 25 818 q 85 882 50 851 q 163 935 119 913 q 258 972 206 958 q 371 985 310 985 q 508 964 451 985 q 602 906 565 943 q 656 820 639 869 q 672 715 672 771 q 653 595 672 651 q 597 485 633 539 q 507 380 560 432 q 389 271 454 328 l 317 207 l 317 201 l 675 201 l 675 0 l 53 0 l 53 179 l 231 349 z "},"3":{"ha":739,"x_min":13,"x_max":679,"o":"m 106 271 q 190 211 138 238 q 313 185 242 185 q 410 215 376 185 q 443 296 443 246 q 411 377 443 351 q 325 403 379 403 l 247 403 l 247 576 l 318 576 q 406 608 375 576 q 438 689 438 640 q 405 764 438 742 q 326 786 372 786 q 235 767 278 786 q 143 706 192 747 l 32 843 q 172 944 85 903 q 371 985 258 985 q 592 918 511 985 q 674 736 674 851 q 660 656 674 694 q 624 588 647 618 q 570 536 601 557 q 504 508 539 515 l 504 499 q 569 480 538 496 q 626 436 601 464 q 665 369 650 408 q 679 282 679 331 q 653 160 679 214 q 581 67 626 106 q 472 8 535 29 q 333 -12 408 -12 q 152 23 238 -12 q 13 124 67 58 l 106 271 z "},"4":{"ha":789,"x_min":35,"x_max":758,"o":"m 35 229 l 35 393 l 399 972 l 624 972 l 624 431 l 758 431 l 758 229 l 624 229 l 624 0 l 389 0 l 389 229 l 35 229 m 400 689 l 394 689 l 224 419 l 224 414 l 400 414 l 400 689 z "},"5":{"ha":729,"x_min":17,"x_max":682,"o":"m 110 264 q 193 208 146 231 q 297 185 240 185 q 411 226 375 185 q 447 332 447 267 q 438 394 447 369 q 412 433 428 418 q 376 453 396 447 q 338 458 357 458 q 265 442 293 458 q 217 401 238 426 l 81 447 l 138 972 l 638 972 l 638 772 l 278 772 l 257 576 l 264 576 q 336 623 294 607 q 435 639 378 639 q 617 559 553 639 q 682 340 682 479 q 658 201 682 265 q 588 89 633 136 q 475 15 542 42 q 324 -12 408 -12 q 153 20 236 -12 q 17 117 69 53 l 110 264 z "},"6":{"ha":742,"x_min":43,"x_max":708,"o":"m 43 403 q 79 664 43 554 q 181 845 115 774 q 335 951 246 917 q 531 985 424 985 q 592 981 554 985 q 667 967 631 976 l 639 779 q 592 784 619 782 q 544 786 564 786 q 446 775 496 786 q 354 733 396 764 q 284 649 313 703 q 250 511 256 596 l 258 511 q 350 597 293 571 q 458 622 407 622 q 560 601 514 622 q 640 540 607 579 q 690 447 672 501 q 708 324 708 392 q 683 185 708 247 q 615 80 658 124 q 512 12 571 36 q 386 -12 453 -12 q 234 19 299 -12 q 127 106 169 50 q 64 238 85 161 q 43 403 43 314 m 476 310 q 454 415 476 376 q 381 454 432 454 q 316 424 347 454 q 271 343 285 394 q 281 251 271 286 q 306 195 290 215 q 341 167 322 175 q 378 160 360 160 q 449 194 421 160 q 476 310 476 229 z "},"7":{"ha":660,"x_min":28,"x_max":621,"o":"m 403 772 l 28 772 l 28 972 l 621 972 l 621 807 l 346 0 l 71 0 l 403 769 l 403 772 z "},"8":{"ha":776,"x_min":42,"x_max":733,"o":"m 42 264 q 83 406 42 343 q 204 500 124 468 l 204 506 q 90 600 121 543 q 60 721 60 657 q 84 831 60 782 q 152 914 108 879 q 256 967 196 949 q 388 985 317 985 q 520 966 460 985 q 623 913 581 947 q 689 831 665 879 q 713 725 713 783 q 679 603 713 663 q 569 513 646 544 l 569 506 q 693 408 653 472 q 733 264 733 343 q 709 152 733 203 q 640 65 685 101 q 531 8 596 29 q 388 -12 467 -12 q 247 7 311 -12 q 138 62 183 26 q 67 149 92 97 q 42 264 42 200 m 500 283 q 490 335 500 313 q 462 377 479 358 q 422 410 444 396 q 376 435 400 424 q 305 380 336 415 q 274 285 274 344 q 304 195 274 231 q 388 160 335 160 q 472 197 443 160 q 500 283 500 233 m 486 697 q 461 779 486 746 q 388 813 436 813 q 315 780 340 813 q 289 699 289 747 q 319 618 289 651 q 400 561 349 585 q 467 621 447 585 q 486 697 486 657 z "},"9":{"ha":742,"x_min":33,"x_max":699,"o":"m 100 193 q 148 188 119 190 q 196 186 176 186 q 295 197 244 186 q 388 237 346 207 q 458 319 429 267 q 492 458 486 372 l 483 458 q 392 373 449 396 q 283 350 335 350 q 192 368 236 350 q 112 423 147 386 q 55 517 76 460 q 33 651 33 574 q 58 789 33 728 q 127 894 83 850 q 230 961 171 938 q 356 985 289 985 q 508 955 443 985 q 615 870 572 925 q 678 739 657 815 q 699 569 699 663 q 662 307 699 417 q 560 126 625 197 q 406 22 496 56 q 210 -12 315 -12 q 182 -11 199 -12 q 147 -8 165 -10 q 108 -2 128 -6 q 75 6 89 1 l 100 193 m 467 628 q 457 719 467 683 q 431 776 447 756 q 397 805 415 797 q 360 813 378 813 q 288 778 317 813 q 260 663 260 743 q 282 557 260 596 q 356 518 304 518 q 421 550 390 518 q 467 628 451 582 z "},"\u0000":{"ha":0,"x_min":0,"x_max":0,"o":""},"\r":{"ha":450,"x_min":0,"x_max":0,"o":""}," ":{"ha":450,"x_min":0,"x_max":0,"o":""},"!":{"ha":418,"x_min":64,"x_max":354,"o":"m 328 189 l 328 0 l 90 0 l 90 189 l 328 189 m 354 972 l 308 304 l 111 304 l 64 972 l 354 972 z "},"\"":{"ha":581,"x_min":61,"x_max":521,"o":"m 263 972 l 229 654 l 94 654 l 61 972 l 263 972 m 521 972 l 486 654 l 351 654 l 318 972 l 521 972 z "},"#":{"ha":768,"x_min":24,"x_max":744,"o":"m 24 274 l 35 401 l 154 401 l 182 588 l 69 588 l 81 717 l 201 717 l 232 922 l 385 922 l 354 717 l 476 717 l 507 922 l 661 922 l 631 717 l 744 717 l 733 588 l 611 588 l 585 401 l 699 401 l 688 274 l 565 274 l 536 68 l 382 68 l 411 274 l 289 274 l 260 68 l 106 68 l 136 274 l 24 274 m 458 588 l 335 588 l 308 401 l 432 401 l 458 588 z "},"$":{"ha":735,"x_min":40,"x_max":696,"o":"m 288 -3 q 141 49 201 14 q 40 129 81 85 l 135 275 q 181 235 154 254 q 236 202 207 217 q 297 178 265 188 q 357 169 328 169 q 442 197 417 169 q 467 260 467 224 q 446 318 467 290 q 372 372 425 346 l 260 431 q 181 480 217 453 q 117 542 144 507 q 75 617 90 576 q 60 707 60 658 q 115 882 60 813 q 288 975 171 951 l 288 1125 l 446 1125 l 446 976 q 585 920 529 958 q 674 840 642 882 l 561 707 q 478 776 521 750 q 386 801 435 801 q 339 794 358 801 q 308 774 319 786 q 292 745 297 761 q 288 714 288 729 q 313 649 288 678 q 407 583 339 619 l 482 544 q 573 492 533 518 q 640 433 613 465 q 681 362 667 401 q 696 271 696 322 q 677 166 696 213 q 625 85 658 119 q 546 27 592 50 q 446 -6 500 4 l 446 -165 l 288 -165 l 288 -3 l 288 -3 z "},"%":{"ha":1206,"x_min":61,"x_max":1146,"o":"m 61 703 q 79 826 61 774 q 129 915 97 879 q 203 967 161 950 q 293 985 244 985 q 383 967 340 985 q 456 915 425 950 q 506 826 488 879 q 524 703 524 774 q 506 580 524 632 q 456 492 488 528 q 383 440 425 457 q 293 422 340 422 q 203 440 244 422 q 129 492 161 457 q 79 580 97 528 q 61 703 61 632 m 358 703 q 344 808 358 769 q 293 847 329 847 q 242 808 257 847 q 228 703 228 769 q 244 590 228 622 q 293 558 261 558 q 341 590 324 558 q 358 703 358 622 m 682 269 q 701 392 682 340 q 751 480 719 444 q 824 533 782 515 q 914 550 867 550 q 1003 533 961 550 q 1077 480 1046 515 q 1127 392 1108 444 q 1146 269 1146 340 q 1128 146 1146 199 q 1078 58 1110 93 q 1003 5 1046 22 q 914 -12 961 -12 q 824 5 867 -12 q 751 58 782 22 q 701 146 719 93 q 682 269 682 199 m 978 269 q 964 375 978 336 q 914 414 950 414 q 864 375 878 414 q 850 269 850 336 q 867 157 850 189 q 914 125 883 125 q 961 157 944 125 q 978 269 978 189 m 849 1006 l 949 944 l 356 -29 l 254 32 l 849 1006 z "},"&":{"ha":901,"x_min":47,"x_max":897,"o":"m 47 246 q 97 413 47 346 q 231 525 146 481 q 193 575 213 549 q 158 631 174 601 q 131 692 142 660 q 121 760 121 725 q 146 861 121 818 q 211 931 171 904 q 302 972 251 958 q 403 985 353 985 q 608 924 542 985 q 675 771 675 864 q 621 619 675 685 q 485 507 567 554 l 610 339 q 633 392 624 363 q 649 447 642 422 l 857 447 q 801 310 836 372 q 728 207 765 247 l 897 0 l 642 0 l 585 76 q 476 11 536 35 q 342 -12 415 -12 q 208 9 264 -12 q 117 67 153 31 q 64 149 81 103 q 47 246 47 196 m 479 754 q 476 787 479 771 q 464 815 472 803 q 441 835 456 828 q 404 843 426 843 q 340 817 357 843 q 324 756 324 790 q 341 685 324 719 q 390 611 358 650 q 479 754 479 675 m 335 410 q 286 350 303 382 q 269 271 269 318 q 275 227 269 249 q 294 188 281 206 q 328 160 307 171 q 378 150 349 150 q 489 199 447 150 l 335 410 z "},"'":{"ha":322,"x_min":61,"x_max":263,"o":"m 263 972 l 229 654 l 94 654 l 61 972 l 263 972 z "},"(":{"ha":521,"x_min":106,"x_max":449,"o":"m 246 -235 q 191 -108 217 -181 q 147 45 165 -36 q 117 215 128 126 q 106 389 106 303 q 117 563 106 475 q 147 733 128 651 q 191 886 165 814 q 246 1013 217 958 l 283 1083 l 449 1021 l 425 969 q 342 692 365 840 q 318 389 318 544 q 342 85 318 233 q 425 -192 365 -62 l 449 -243 l 283 -306 l 246 -235 l 246 -235 z "},")":{"ha":521,"x_min":74,"x_max":417,"o":"m 96 -192 q 178 86 154 -61 q 203 389 203 233 q 178 692 203 544 q 96 969 154 839 l 74 1021 l 238 1083 l 276 1013 q 331 887 306 958 q 375 733 356 815 q 406 563 394 651 q 417 389 417 475 q 406 215 417 303 q 375 44 394 126 q 331 -109 356 -37 q 276 -235 306 -181 l 238 -306 l 74 -243 l 96 -192 z "},"*":{"ha":554,"x_min":51,"x_max":503,"o":"m 222 639 l 121 554 l 51 661 l 165 724 l 165 731 l 51 792 l 121 900 l 221 814 l 228 817 l 214 958 l 340 958 l 326 817 l 331 814 l 432 900 l 503 792 l 388 731 l 388 724 l 503 663 l 432 554 l 331 639 l 326 636 l 340 496 l 214 496 l 226 636 l 222 639 z "},"+":{"ha":824,"x_min":88,"x_max":735,"o":"m 88 404 l 88 563 l 332 563 l 332 849 l 492 849 l 492 563 l 735 563 l 735 404 l 492 404 l 492 118 l 332 118 l 332 404 l 88 404 z "},",":{"ha":375,"x_min":88,"x_max":288,"o":"m 288 213 l 204 -181 l 88 -181 l 88 213 l 288 213 z "},"-":{"ha":575,"x_min":97,"x_max":479,"o":"m 479 453 l 479 283 l 97 283 l 97 453 l 479 453 z "},".":{"ha":375,"x_min":88,"x_max":288,"o":"m 288 213 l 288 0 l 88 0 l 88 213 l 288 213 z "},"/":{"ha":707,"x_min":42,"x_max":665,"o":"m 513 1082 l 665 1022 l 194 -289 l 42 -226 l 513 1082 z "},":":{"ha":375,"x_min":88,"x_max":288,"o":"m 288 213 l 288 0 l 88 0 l 88 213 l 288 213 m 288 681 l 288 468 l 88 468 l 88 681 l 288 681 z "},";":{"ha":371,"x_min":85,"x_max":286,"o":"m 285 213 l 203 -181 l 85 -181 l 85 213 l 285 213 m 286 681 l 286 468 l 85 468 l 85 681 l 286 681 z "},"<":{"ha":778,"x_min":83,"x_max":694,"o":"m 83 521 l 694 889 l 694 714 l 308 485 l 308 481 l 694 251 l 694 76 l 83 444 l 83 521 z "},"=":{"ha":824,"x_min":88,"x_max":735,"o":"m 735 414 l 735 256 l 88 256 l 88 414 l 735 414 m 735 706 l 735 547 l 88 547 l 88 706 l 735 706 z "},">":{"ha":778,"x_min":83,"x_max":694,"o":"m 471 481 l 471 485 l 83 714 l 83 889 l 694 521 l 694 444 l 83 76 l 83 251 l 471 481 z "},"?":{"ha":688,"x_min":-6,"x_max":665,"o":"m 203 349 q 297 531 203 453 l 333 561 q 393 628 374 597 q 413 699 413 658 q 388 760 413 735 q 315 785 364 785 q 203 749 250 785 q 122 671 157 714 l -6 793 q 52 864 18 829 q 132 926 86 899 q 234 969 178 953 q 360 985 290 985 q 492 966 435 985 q 588 915 550 947 q 646 838 626 882 q 665 743 665 793 q 630 603 665 664 q 521 482 594 543 l 489 454 q 438 346 438 407 l 438 304 l 203 304 l 203 349 m 439 189 l 439 0 l 203 0 l 203 189 l 439 189 z "},"@":{"ha":1022,"x_min":61,"x_max":961,"o":"m 61 350 q 94 549 61 456 q 186 713 126 643 q 329 824 246 783 q 515 865 413 865 q 692 833 611 865 q 833 743 774 801 q 927 604 893 685 q 961 428 961 524 q 943 292 961 354 q 892 186 925 231 q 810 116 858 142 q 700 90 761 90 q 614 115 651 90 q 576 192 576 140 q 576 203 576 197 q 579 215 576 208 l 574 215 q 503 126 544 158 q 413 93 463 93 q 353 107 378 93 q 311 145 328 121 q 286 203 294 169 q 278 275 278 236 q 292 398 278 338 q 333 506 306 458 q 400 584 360 554 q 493 614 440 614 q 560 599 532 614 q 608 557 589 583 l 610 557 l 624 601 l 744 601 l 708 300 q 706 275 707 289 q 704 250 704 261 q 716 214 704 226 q 746 201 728 201 q 819 261 793 201 q 846 425 846 321 q 823 555 846 494 q 757 660 800 615 q 654 730 714 704 q 519 756 594 756 q 380 724 443 756 q 272 639 317 693 q 201 510 226 585 q 176 350 176 436 q 200 188 176 263 q 268 60 224 114 q 377 -24 313 7 q 524 -54 442 -54 q 622 -41 572 -54 q 711 1 671 -28 l 756 -93 q 648 -144 710 -128 q 519 -161 586 -161 q 335 -125 419 -161 q 190 -22 251 -89 q 95 139 129 44 q 61 350 61 233 m 589 454 q 565 485 581 471 q 525 500 550 500 q 486 483 503 500 q 458 441 469 467 q 442 382 447 415 q 436 315 436 349 q 486 235 436 235 q 513 244 500 235 q 538 266 526 253 q 558 295 549 279 q 575 324 568 311 l 589 454 z "},"A":{"ha":918,"x_min":11,"x_max":908,"o":"m 483 635 q 469 689 476 657 q 458 749 463 721 l 447 749 q 433 690 440 722 q 419 636 425 658 l 361 418 l 538 418 l 483 635 m 583 972 l 908 0 l 665 0 l 592 217 l 310 217 l 242 0 l 11 0 l 333 972 l 583 972 z "},"B":{"ha":813,"x_min":78,"x_max":776,"o":"m 454 972 q 576 960 521 972 q 669 918 631 947 q 729 843 708 889 q 750 731 750 797 q 740 658 750 693 q 710 595 729 624 q 663 546 690 567 q 600 517 635 525 l 600 510 q 679 481 646 501 q 734 431 713 461 q 766 364 756 401 q 776 286 776 326 q 746 145 776 200 q 669 58 715 90 q 567 13 622 25 q 464 0 513 0 l 78 0 l 78 972 l 454 972 m 414 178 q 501 202 467 178 q 535 299 535 226 q 509 382 535 351 q 411 413 483 413 l 310 413 l 310 178 l 414 178 m 407 583 q 488 609 460 583 q 515 693 515 635 q 483 774 515 754 q 403 794 451 794 l 310 794 l 310 583 l 407 583 z "},"C":{"ha":829,"x_min":42,"x_max":797,"o":"m 42 481 q 69 689 42 596 q 151 848 97 782 q 285 949 206 914 q 467 985 364 985 q 578 973 529 985 q 664 941 626 961 q 731 894 701 921 q 786 836 761 867 l 665 686 q 627 724 646 706 q 586 755 608 742 q 538 776 564 768 q 478 785 511 785 q 388 760 425 785 q 327 694 351 736 q 292 597 303 653 q 281 481 281 542 q 335 260 281 335 q 481 186 389 186 q 594 215 547 186 q 685 293 640 244 l 797 149 q 657 33 743 79 q 467 -12 571 -12 q 153 107 264 -12 q 42 481 42 226 z "},"D":{"ha":871,"x_min":78,"x_max":831,"o":"m 388 972 q 556 952 476 972 q 697 878 636 932 q 794 730 758 824 q 831 489 831 636 q 793 270 831 363 q 692 118 756 178 q 547 29 629 58 q 376 0 465 0 l 78 0 l 78 972 l 388 972 m 363 199 q 533 272 475 199 q 592 486 592 346 q 579 622 592 567 q 540 710 567 676 q 471 759 513 744 q 372 774 429 774 l 311 774 l 311 199 l 363 199 z "},"E":{"ha":708,"x_min":78,"x_max":675,"o":"m 675 972 l 675 771 l 313 771 l 313 593 l 600 593 l 600 394 l 313 394 l 313 201 l 675 201 l 675 0 l 78 0 l 78 972 l 675 972 z "},"F":{"ha":675,"x_min":78,"x_max":656,"o":"m 656 972 l 656 771 l 313 771 l 313 581 l 581 581 l 581 379 l 313 379 l 313 0 l 78 0 l 78 972 l 656 972 z "},"G":{"ha":894,"x_min":42,"x_max":831,"o":"m 42 481 q 75 701 42 607 q 167 859 108 796 q 306 953 226 922 q 479 985 386 985 q 601 973 550 985 q 691 942 653 961 q 758 895 729 922 q 815 839 788 868 l 690 685 q 592 761 642 738 q 486 785 543 785 q 385 755 425 785 q 323 680 346 725 q 290 581 300 635 q 281 481 281 528 q 300 336 281 393 q 351 246 319 279 q 420 199 382 213 q 497 186 458 186 q 560 196 531 186 q 613 226 590 206 l 613 363 l 451 363 l 451 543 l 831 543 l 831 115 q 760 65 799 89 q 677 24 721 42 q 587 -3 633 7 q 494 -12 540 -12 q 317 13 400 -12 q 174 95 235 38 q 77 247 113 153 q 42 481 42 342 z "},"H":{"ha":910,"x_min":78,"x_max":832,"o":"m 313 972 l 313 611 l 597 611 l 597 972 l 832 972 l 832 0 l 597 0 l 597 399 l 313 399 l 313 0 l 78 0 l 78 972 l 313 972 z "},"I":{"ha":390,"x_min":78,"x_max":313,"o":"m 313 972 l 313 0 l 78 0 l 78 972 l 313 972 z "},"J":{"ha":514,"x_min":39,"x_max":443,"o":"m 39 182 q 106 194 75 183 q 159 226 136 204 q 195 283 182 249 q 208 367 208 317 l 208 972 l 443 972 l 443 364 q 341 76 443 164 q 39 -12 239 -11 l 39 182 l 39 182 z "},"K":{"ha":843,"x_min":78,"x_max":853,"o":"m 313 972 l 313 604 l 388 604 l 589 972 l 847 972 l 574 511 l 853 0 l 586 0 l 388 390 l 313 390 l 313 0 l 78 0 l 78 972 l 313 972 z "},"L":{"ha":663,"x_min":78,"x_max":632,"o":"m 313 972 l 313 203 l 632 203 l 632 0 l 78 0 l 78 972 l 313 972 z "},"M":{"ha":1106,"x_min":67,"x_max":1039,"o":"m 388 972 l 517 572 q 532 513 525 544 q 546 447 539 482 l 557 447 q 570 515 563 481 q 586 574 578 549 l 715 972 l 969 972 l 1039 0 l 804 0 l 776 435 q 774 472 775 449 q 773 519 774 494 q 772 568 772 544 q 772 607 772 592 l 761 607 l 636 193 l 463 193 l 338 607 l 325 607 q 324 572 325 594 q 324 525 324 550 q 323 475 324 500 q 321 433 322 450 l 294 0 l 67 0 l 135 972 l 388 972 z "},"N":{"ha":913,"x_min":78,"x_max":835,"o":"m 331 972 l 558 529 q 571 501 564 518 q 585 466 578 485 q 601 428 593 447 q 615 393 608 410 l 626 393 q 621 476 624 432 q 618 547 618 521 l 618 972 l 835 972 l 835 0 l 614 0 l 346 517 q 319 576 333 542 q 292 643 304 611 l 281 643 q 284 606 282 629 q 288 555 286 582 q 292 501 290 528 q 294 458 294 475 l 294 0 l 78 0 l 78 972 l 331 972 z "},"O":{"ha":946,"x_min":42,"x_max":904,"o":"m 42 486 q 69 694 42 601 q 149 851 96 786 q 284 950 203 915 q 474 985 365 985 q 663 950 582 985 q 797 851 743 915 q 878 694 851 786 q 904 486 904 601 q 878 278 904 371 q 797 122 851 186 q 663 22 743 57 q 474 -12 582 -12 q 284 22 365 -12 q 149 122 203 57 q 69 278 96 186 q 42 486 42 371 m 667 486 q 659 593 667 539 q 631 691 651 647 q 572 763 610 735 q 474 790 533 790 q 375 763 413 790 q 317 691 338 735 q 288 593 296 647 q 281 486 281 539 q 288 379 281 433 q 317 281 296 325 q 375 210 338 238 q 474 182 413 182 q 572 210 533 182 q 631 281 610 238 q 659 379 651 325 q 667 486 667 433 z "},"P":{"ha":779,"x_min":78,"x_max":749,"o":"m 439 972 q 545 958 490 972 q 645 909 600 944 q 719 814 690 874 q 749 664 749 754 q 724 526 749 586 q 656 424 700 465 q 552 360 613 382 q 418 339 492 339 l 313 339 l 313 0 l 78 0 l 78 972 l 439 972 m 393 518 q 476 552 440 518 q 511 663 511 586 q 476 764 511 733 q 396 794 442 794 l 308 794 l 308 518 l 393 518 z "},"Q":{"ha":946,"x_min":42,"x_max":904,"o":"m 513 -8 q 492 -12 503 -11 q 474 -12 481 -12 q 284 23 365 -12 q 149 124 203 58 q 69 281 96 189 q 42 486 42 372 q 69 692 42 600 q 149 849 96 785 q 284 949 203 914 q 474 985 365 985 q 663 949 582 985 q 797 849 743 914 q 878 692 851 785 q 904 486 904 600 q 860 236 904 350 q 715 57 817 122 l 715 53 l 904 -50 l 818 -194 q 667 -115 739 -158 q 513 -8 594 -72 m 667 486 q 659 593 667 539 q 631 691 651 647 q 572 763 610 735 q 474 790 535 790 q 374 763 411 790 q 315 691 336 735 q 288 593 294 647 q 281 486 281 539 q 288 379 281 433 q 315 281 294 325 q 374 210 336 238 q 474 182 411 182 q 572 210 535 182 q 631 281 610 238 q 659 379 651 325 q 667 486 667 433 z "},"R":{"ha":818,"x_min":78,"x_max":819,"o":"m 447 972 q 551 959 497 972 q 651 912 606 946 q 725 821 696 878 q 754 676 754 764 q 707 506 754 574 q 593 407 660 438 l 819 0 l 556 0 l 367 372 l 313 372 l 313 0 l 78 0 l 78 972 l 447 972 m 394 549 q 480 578 443 549 q 517 676 517 607 q 485 767 517 739 q 406 794 454 794 l 308 794 l 308 549 l 394 549 z "},"S":{"ha":768,"x_min":29,"x_max":740,"o":"m 133 289 q 183 250 154 268 q 244 217 211 232 q 312 194 276 203 q 383 186 347 186 q 467 207 436 186 q 500 264 499 228 q 473 315 500 296 q 390 363 446 335 l 267 424 q 117 535 175 468 q 60 704 60 601 q 148 910 60 836 q 401 985 236 985 q 509 972 460 985 q 599 939 558 960 q 670 892 639 918 q 724 840 701 867 l 600 693 q 510 760 557 736 q 406 785 464 785 q 324 761 349 785 q 299 706 299 738 q 335 642 299 665 q 435 589 372 618 l 517 550 q 613 497 571 524 q 683 437 654 469 q 726 364 711 404 q 740 274 740 324 q 712 148 740 201 q 635 59 683 94 q 525 6 588 24 q 394 -12 463 -12 q 181 28 274 -12 q 29 129 88 69 l 133 289 z "},"T":{"ha":782,"x_min":21,"x_max":761,"o":"m 21 771 l 21 972 l 761 972 l 761 771 l 508 771 l 508 0 l 274 0 l 274 771 l 21 771 z "},"U":{"ha":885,"x_min":72,"x_max":813,"o":"m 72 972 l 307 972 l 307 342 q 346 224 307 263 q 451 186 385 186 q 551 224 513 186 q 590 342 590 263 l 590 972 l 813 972 l 813 351 q 787 190 813 258 q 713 76 761 121 q 597 10 665 32 q 443 -12 528 -12 q 287 8 356 -12 q 170 73 218 29 q 97 185 122 117 q 72 351 72 254 l 72 972 z "},"V":{"ha":833,"x_min":-8,"x_max":842,"o":"m 238 972 l 393 383 q 406 322 400 357 q 415 260 411 288 l 426 260 q 438 323 431 288 q 451 386 444 358 l 604 972 l 842 972 l 532 0 l 300 0 l -8 972 l 238 972 z "},"W":{"ha":1208,"x_min":4,"x_max":1206,"o":"m 246 972 l 339 428 q 346 364 343 403 q 350 300 349 325 l 361 300 q 370 362 365 328 q 381 422 375 396 l 500 972 l 721 972 l 835 422 q 844 362 840 397 q 850 300 847 326 l 861 300 q 869 365 864 326 q 878 428 874 403 l 975 972 l 1206 972 l 983 0 l 751 0 l 633 499 q 625 539 629 517 q 618 584 621 561 q 613 627 615 607 q 608 660 610 647 l 597 660 q 592 628 594 647 q 586 585 589 608 q 579 540 583 563 q 571 499 575 517 l 451 0 l 219 0 l 4 972 l 246 972 z "},"X":{"ha":821,"x_min":1,"x_max":819,"o":"m 22 972 l 279 972 l 390 694 q 401 666 396 682 q 411 635 407 650 l 419 635 q 431 665 425 650 q 442 693 436 681 l 557 972 l 801 972 l 564 496 l 819 0 l 561 0 l 435 296 q 422 329 428 311 q 410 365 415 347 l 401 365 q 388 329 396 349 q 375 296 381 310 l 247 0 l 1 0 l 256 496 l 22 972 z "},"Y":{"ha":806,"x_min":-14,"x_max":819,"o":"m -14 972 l 239 972 l 368 639 q 385 584 375 618 q 401 524 396 550 l 413 524 q 426 582 417 549 q 446 638 436 615 l 576 972 l 819 972 l 518 331 l 518 0 l 285 0 l 285 331 l -14 972 z "},"Z":{"ha":775,"x_min":26,"x_max":743,"o":"m 392 668 q 431 719 407 690 q 465 764 454 747 l 465 771 l 67 771 l 67 972 l 735 972 l 735 813 l 376 306 q 359 283 369 297 q 337 255 349 269 q 315 227 325 240 q 299 208 304 214 l 299 201 l 743 201 l 743 0 l 26 0 l 26 160 l 392 668 z "},"[":{"ha":581,"x_min":139,"x_max":507,"o":"m 507 1083 l 507 924 l 340 924 l 340 -132 l 507 -132 l 507 -292 l 139 -292 l 139 1083 l 507 1083 z "},"\\":{"ha":708,"x_min":42,"x_max":668,"o":"m 197 1082 l 668 -226 l 513 -289 l 42 1022 l 197 1082 z "},"]":{"ha":581,"x_min":74,"x_max":442,"o":"m 240 -132 l 240 924 l 74 924 l 74 1083 l 442 1083 l 442 -292 l 74 -292 l 74 -132 l 240 -132 z "},"^":{"ha":703,"x_min":47,"x_max":656,"o":"m 386 972 l 656 571 l 481 571 l 351 778 l 222 571 l 47 571 l 317 972 l 386 972 z "},"_":{"ha":622,"x_min":0,"x_max":622,"o":"m 622 -228 l 622 -347 l 0 -347 l 0 -228 l 622 -228 z "},"`":{"ha":746,"x_min":153,"x_max":463,"o":"m 363 1007 l 463 799 l 318 799 l 153 1007 l 363 1007 z "},"a":{"ha":724,"x_min":29,"x_max":658,"o":"m 29 196 q 54 305 29 261 q 119 374 79 349 q 210 410 160 400 q 313 421 261 421 l 433 421 l 433 426 q 408 499 433 472 q 324 526 382 526 q 230 509 275 526 q 144 464 185 492 l 78 601 q 213 667 136 642 q 372 693 290 693 q 478 679 426 693 q 569 633 529 665 q 634 550 610 601 q 658 422 658 499 l 658 0 l 439 0 l 439 88 l 436 88 q 402 58 422 75 q 355 24 382 40 q 292 -2 328 8 q 214 -12 257 -12 q 142 1 176 -12 q 83 40 108 14 q 44 106 58 67 q 29 196 29 144 m 440 299 l 354 299 q 285 281 310 299 q 261 226 261 263 q 276 181 261 199 q 325 164 290 164 q 391 186 363 164 q 440 236 419 208 l 440 299 z "},"b":{"ha":756,"x_min":65,"x_max":721,"o":"m 269 65 l 254 0 l 65 0 l 65 1028 l 290 1028 l 290 678 q 290 638 290 660 q 289 593 289 615 l 290 593 q 328 627 307 610 q 376 659 350 644 q 431 683 401 674 q 494 693 461 693 q 600 667 557 693 q 670 595 643 640 q 709 490 697 550 q 721 361 721 429 q 703 212 721 281 q 651 93 685 143 q 567 15 617 43 q 456 -12 518 -12 q 367 5 417 -12 q 272 65 318 22 l 269 65 m 493 351 q 488 410 493 382 q 472 459 483 438 q 443 493 461 481 q 400 506 425 506 q 335 481 364 506 q 286 433 306 456 l 286 207 q 330 172 304 189 q 388 156 356 156 q 466 203 439 156 q 493 351 493 251 z "},"c":{"ha":663,"x_min":33,"x_max":642,"o":"m 33 339 q 58 490 33 424 q 128 601 83 556 q 233 669 172 646 q 367 693 294 693 q 471 683 426 693 q 548 656 515 672 q 602 622 581 640 q 636 588 624 603 l 532 456 q 472 498 504 479 q 394 517 440 517 q 295 468 329 517 q 261 340 261 419 q 294 210 261 256 q 399 164 328 164 q 480 182 446 164 q 549 232 514 200 l 642 108 q 597 66 622 88 q 537 27 571 44 q 459 -1 503 10 q 361 -12 415 -12 q 240 6 299 -12 q 135 65 181 24 q 61 174 89 107 q 33 339 33 240 z "},"d":{"ha":756,"x_min":35,"x_max":690,"o":"m 35 331 q 49 468 35 403 q 96 583 64 533 q 178 663 128 633 q 299 693 228 693 q 356 687 331 693 q 402 672 382 681 q 438 652 422 663 q 465 632 453 642 l 467 632 q 466 675 467 647 q 465 714 465 703 l 465 1028 l 690 1028 l 690 0 l 472 0 l 472 92 l 469 92 q 433 60 454 78 q 387 26 413 42 q 330 -1 361 10 q 261 -12 299 -12 q 174 8 215 -12 q 102 72 133 29 q 53 178 71 114 q 35 331 35 243 m 469 472 q 424 508 449 492 q 367 525 399 525 q 288 471 314 525 q 263 333 263 417 q 285 220 263 265 q 356 175 308 175 q 422 200 392 175 q 469 250 451 225 l 469 472 z "},"e":{"ha":706,"x_min":33,"x_max":674,"o":"m 33 336 q 58 489 33 422 q 127 601 82 556 q 234 669 172 646 q 371 693 296 693 q 515 665 457 693 q 609 591 574 638 q 659 485 644 544 q 674 361 674 425 l 674 299 l 261 299 q 272 249 263 274 q 299 204 281 224 q 344 172 317 185 q 410 160 372 160 q 499 176 461 160 q 578 231 538 193 l 658 96 q 534 17 600 46 q 385 -12 468 -12 q 252 3 315 -12 q 140 60 189 19 q 63 167 92 100 q 33 336 33 233 m 461 424 q 434 506 458 472 q 363 539 410 539 q 299 513 328 539 q 263 424 269 486 l 461 424 z "},"f":{"ha":561,"x_min":31,"x_max":567,"o":"m 31 501 l 31 681 l 151 681 l 151 714 q 174 852 151 793 q 239 950 197 911 q 338 1008 281 989 q 463 1028 394 1028 q 517 1026 488 1028 q 567 1018 547 1024 l 558 853 q 527 856 540 856 q 499 856 514 856 q 455 849 476 856 q 416 826 433 842 q 388 785 399 810 q 378 722 378 760 l 378 681 l 539 681 l 539 501 l 378 501 l 378 0 l 151 0 l 151 501 l 31 501 z "},"g":{"ha":756,"x_min":35,"x_max":690,"o":"m 150 -117 q 222 -165 183 -146 q 313 -185 260 -185 q 423 -141 381 -185 q 465 -12 465 -97 l 465 6 q 466 44 465 21 q 467 89 467 68 l 465 89 q 431 58 450 75 q 385 24 411 40 q 329 -2 360 8 q 261 -12 299 -12 q 161 14 204 -12 q 90 86 118 40 q 49 194 63 132 q 35 328 35 256 q 50 467 35 401 q 97 583 65 533 q 178 663 129 633 q 297 693 228 693 q 388 677 338 693 q 483 611 439 661 l 486 611 l 501 681 l 690 681 l 690 14 q 663 -148 690 -78 q 588 -265 636 -218 q 474 -335 540 -311 q 326 -360 407 -360 q 179 -334 247 -360 q 63 -258 111 -308 l 150 -117 m 469 468 q 425 506 451 488 q 367 525 399 525 q 290 473 317 525 q 263 338 263 421 q 290 215 263 256 q 356 175 318 175 q 421 199 392 175 q 469 250 450 222 l 469 468 z "},"h":{"ha":764,"x_min":65,"x_max":699,"o":"m 290 1028 l 290 676 q 290 635 290 654 q 289 586 289 615 l 290 586 q 338 626 314 607 q 390 660 363 644 q 450 684 418 675 q 519 693 482 693 q 649 636 599 693 q 699 467 699 579 l 699 0 l 474 0 l 474 389 q 461 463 474 433 q 408 492 449 492 q 344 471 376 492 q 290 425 313 450 l 290 0 l 65 0 l 65 1028 l 290 1028 z "},"i":{"ha":358,"x_min":67,"x_max":292,"o":"m 292 681 l 292 0 l 67 0 l 67 681 l 292 681 m 292 968 l 292 793 l 67 793 l 67 968 l 292 968 z "},"j":{"ha":358,"x_min":-60,"x_max":292,"o":"m -60 -201 q 39 -144 11 -194 q 67 10 67 -93 l 67 681 l 292 681 l 292 15 q 203 -267 292 -174 q -60 -360 114 -360 l -60 -201 m 292 968 l 292 793 l 67 793 l 67 968 l 292 968 z "},"k":{"ha":735,"x_min":65,"x_max":743,"o":"m 290 1028 l 290 457 l 350 457 l 488 681 l 743 681 l 529 371 l 743 0 l 490 0 l 350 269 l 290 269 l 290 0 l 65 0 l 65 1028 l 290 1028 z "},"l":{"ha":358,"x_min":67,"x_max":292,"o":"m 292 1028 l 292 0 l 67 0 l 67 1028 l 292 1028 z "},"m":{"ha":1138,"x_min":65,"x_max":1072,"o":"m 282 681 l 282 583 l 285 583 q 330 624 306 604 q 382 658 354 643 q 441 683 410 674 q 507 693 472 693 q 599 667 560 693 q 664 583 639 642 l 667 583 q 770 662 719 631 q 883 693 821 693 q 1019 632 965 693 q 1072 447 1072 571 l 1072 0 l 850 0 l 850 389 q 837 467 850 442 q 790 492 824 492 q 728 470 758 492 q 678 425 697 449 l 678 0 l 460 0 l 460 389 q 445 467 460 442 q 397 492 431 492 q 338 470 369 492 q 288 425 307 449 l 288 0 l 65 0 l 65 681 l 282 681 z "},"n":{"ha":764,"x_min":65,"x_max":699,"o":"m 285 681 l 285 583 l 288 583 q 335 624 310 604 q 388 658 360 643 q 449 683 417 674 q 519 693 482 693 q 649 636 599 693 q 699 467 699 579 l 699 0 l 474 0 l 474 389 q 461 462 474 432 q 410 492 449 492 q 345 471 378 492 q 290 425 313 450 l 290 0 l 65 0 l 65 681 l 285 681 z "},"o":{"ha":747,"x_min":33,"x_max":715,"o":"m 33 339 q 58 494 33 428 q 126 605 82 561 q 234 671 171 649 q 375 693 297 693 q 516 671 453 693 q 624 605 579 649 q 692 494 668 561 q 715 339 715 428 q 691 184 715 250 q 622 74 667 118 q 515 9 578 31 q 374 -12 451 -12 q 233 9 296 -12 q 125 74 169 31 q 57 184 81 118 q 33 339 33 250 m 486 339 q 460 477 486 428 q 375 526 433 526 q 289 477 317 526 q 261 339 261 428 q 288 203 261 251 q 374 154 315 154 q 459 203 432 154 q 486 339 486 251 z "},"p":{"ha":756,"x_min":65,"x_max":721,"o":"m 285 681 l 285 590 l 288 590 q 316 616 297 599 q 362 650 335 633 q 423 680 389 667 q 494 693 457 693 q 595 669 553 693 q 665 600 638 644 q 707 494 693 556 q 721 358 721 432 q 704 216 721 283 q 654 98 688 149 q 572 17 621 47 q 457 -12 522 -12 q 400 -6 425 -12 q 354 10 375 0 q 318 29 333 19 q 290 47 303 39 l 289 47 q 290 5 289 31 q 290 -32 290 -21 l 290 -347 l 65 -347 l 65 681 l 285 681 m 493 343 q 489 403 493 374 q 475 455 485 432 q 448 492 465 478 q 406 506 431 506 q 369 498 386 506 q 335 479 351 490 q 307 456 319 468 q 286 432 294 443 l 286 207 q 332 172 307 188 q 389 156 357 156 q 470 209 447 156 q 493 343 493 263 z "},"q":{"ha":756,"x_min":35,"x_max":690,"o":"m 465 6 q 466 44 465 21 q 467 89 467 68 l 465 89 q 431 58 450 75 q 385 24 411 40 q 329 -2 360 8 q 261 -12 299 -12 q 161 14 204 -12 q 90 87 118 40 q 49 198 63 133 q 35 338 35 263 q 50 472 35 407 q 97 585 65 536 q 178 664 129 635 q 297 693 228 693 q 388 677 338 693 q 483 611 439 661 l 486 611 l 501 681 l 690 681 l 690 -347 l 465 -347 l 465 6 m 469 468 q 425 506 451 488 q 367 525 399 525 q 290 476 317 525 q 263 338 263 426 q 289 215 263 256 q 356 175 315 175 q 421 199 392 175 q 469 250 450 222 l 469 468 z "},"r":{"ha":572,"x_min":65,"x_max":551,"o":"m 285 681 l 285 551 l 288 551 q 331 605 308 579 q 380 650 354 631 q 435 681 406 669 q 500 693 465 693 q 528 692 511 693 q 551 689 544 692 l 536 469 q 483 474 517 474 q 386 456 435 474 q 290 392 338 439 l 290 0 l 65 0 l 65 681 l 285 681 z "},"s":{"ha":663,"x_min":32,"x_max":625,"o":"m 108 232 q 217 176 160 196 q 332 156 274 156 q 404 196 404 156 q 378 229 404 217 q 311 257 353 242 l 208 301 q 98 376 138 331 q 58 494 58 422 q 133 642 58 590 q 336 693 208 693 q 503 665 436 693 q 615 593 571 636 l 526 461 q 448 506 494 489 q 344 524 401 524 q 294 515 313 524 q 275 486 275 506 q 301 455 275 467 q 367 428 326 443 l 457 390 q 583 310 542 357 q 625 193 625 264 q 603 105 625 143 q 544 40 582 67 q 451 1 506 14 q 333 -12 397 -12 q 161 17 238 -12 q 32 93 85 47 l 108 232 z "},"t":{"ha":624,"x_min":28,"x_max":611,"o":"m 150 501 l 28 501 l 28 681 l 150 681 l 150 846 l 375 903 l 375 681 l 556 681 l 556 501 l 375 501 l 375 274 q 392 189 375 214 q 446 164 410 164 q 495 174 469 164 q 543 201 521 185 l 611 72 q 508 10 567 33 q 379 -12 450 -12 q 206 46 261 -12 q 150 232 150 104 l 150 501 z "},"u":{"ha":764,"x_min":65,"x_max":699,"o":"m 65 681 l 290 681 l 290 278 q 304 215 290 242 q 354 189 318 189 q 418 210 386 189 q 474 257 450 231 l 474 681 l 699 681 l 699 0 l 479 0 l 479 99 l 476 99 q 428 58 453 78 q 374 22 403 38 q 314 -3 346 7 q 244 -12 282 -12 q 116 39 167 -12 q 65 197 65 90 l 65 681 z "},"v":{"ha":708,"x_min":0,"x_max":708,"o":"m 242 681 l 336 317 q 347 269 340 299 q 357 214 353 239 l 363 214 q 385 318 371 267 l 478 681 l 708 681 l 463 0 l 246 0 l 0 681 l 242 681 z "},"w":{"ha":1039,"x_min":14,"x_max":1025,"o":"m 238 681 l 299 331 q 305 286 301 311 q 310 238 308 261 l 315 238 q 324 283 319 260 q 333 331 328 307 l 418 681 l 626 681 l 704 331 q 713 284 710 307 q 721 238 717 261 l 728 238 q 734 284 729 258 q 742 329 739 310 l 807 681 l 1025 681 l 857 0 l 643 0 l 542 369 q 531 419 536 392 q 522 467 525 446 l 515 467 q 507 417 513 446 q 496 369 501 389 l 394 0 l 181 0 l 14 681 l 238 681 z "},"x":{"ha":718,"x_min":1,"x_max":718,"o":"m 15 681 l 268 681 l 338 504 q 349 469 343 489 q 358 438 356 450 l 365 438 q 374 469 368 451 q 386 504 379 486 l 458 681 l 703 681 l 518 358 l 718 0 l 464 0 l 385 174 q 370 209 378 189 q 356 249 363 229 l 350 249 q 336 209 343 229 q 322 174 329 189 l 244 0 l 1 0 l 203 358 l 15 681 z "},"y":{"ha":707,"x_min":-1,"x_max":707,"o":"m 63 -183 q 117 -187 89 -187 q 155 -182 135 -187 q 194 -162 175 -176 q 228 -124 213 -147 q 254 -64 244 -100 l 269 -11 l -1 681 l 243 681 l 343 346 q 356 295 350 325 q 365 238 363 265 l 372 238 q 381 292 375 258 q 393 347 388 326 l 479 681 l 707 681 l 446 -110 q 326 -297 406 -233 q 139 -360 247 -360 q 88 -356 113 -360 q 44 -344 63 -351 l 63 -183 z "},"z":{"ha":669,"x_min":35,"x_max":633,"o":"m 294 433 q 358 497 324 467 l 358 501 l 63 501 l 63 681 l 624 681 l 624 533 l 368 256 q 331 217 350 236 q 296 183 311 199 l 296 179 l 633 179 l 633 0 l 35 0 l 35 154 l 294 433 z "},"{":{"ha":594,"x_min":83,"x_max":525,"o":"m 199 182 q 196 231 199 207 q 183 274 193 256 q 151 304 172 293 q 93 315 131 315 l 83 315 l 83 476 l 93 476 q 151 488 131 476 q 183 517 172 499 q 196 560 193 536 q 199 610 199 585 l 199 772 q 214 883 199 828 q 266 983 229 939 q 366 1056 303 1028 q 525 1083 429 1083 l 525 919 q 459 902 483 915 q 422 870 435 889 q 406 828 410 851 q 403 781 403 806 l 403 632 q 390 539 403 579 q 359 469 378 499 q 318 423 340 440 q 275 400 296 406 l 275 392 q 318 369 296 386 q 359 322 340 351 q 390 252 378 293 q 403 160 403 211 l 403 11 q 406 -37 403 -14 q 422 -80 410 -61 q 459 -111 435 -99 q 525 -128 483 -124 l 525 -292 q 366 -264 429 -292 q 266 -192 303 -236 q 214 -92 229 -147 q 199 19 199 -36 l 199 182 z "},"|":{"ha":388,"x_min":101,"x_max":286,"o":"m 286 1074 l 286 -292 l 101 -292 l 101 1074 l 286 1074 z "},"}":{"ha":594,"x_min":69,"x_max":511,"o":"m 69 -128 q 135 -111 111 -124 q 172 -80 160 -99 q 189 -37 185 -61 q 193 11 193 -14 l 193 160 q 205 252 193 211 q 235 322 217 293 q 276 369 254 351 q 319 392 299 386 l 319 400 q 276 423 299 406 q 235 469 254 440 q 205 539 217 499 q 193 632 193 579 l 193 781 q 189 828 193 806 q 172 870 185 851 q 135 902 160 889 q 69 919 111 915 l 69 1083 q 228 1056 165 1083 q 328 983 292 1028 q 381 883 365 939 q 396 772 396 828 l 396 610 q 399 560 396 585 q 412 517 401 536 q 443 488 422 499 q 501 476 464 476 l 511 476 l 511 315 l 501 315 q 443 304 464 315 q 412 274 422 293 q 399 231 401 256 q 396 182 396 207 l 396 19 q 381 -92 396 -36 q 328 -192 365 -147 q 228 -264 292 -236 q 69 -292 165 -292 l 69 -128 l 69 -128 z "},"~":{"ha":833,"x_min":81,"x_max":751,"o":"m 81 451 q 113 500 93 475 q 160 545 133 525 q 217 578 186 565 q 283 592 249 592 q 349 582 317 592 q 413 557 381 572 q 480 530 449 542 q 539 518 511 518 q 606 542 575 518 q 654 592 638 565 l 751 506 q 719 455 739 481 q 675 408 700 429 q 619 372 650 386 q 553 358 588 358 q 475 372 514 358 q 401 401 436 386 q 341 425 369 417 q 288 433 313 433 q 219 409 246 433 q 174 358 193 385 l 81 451 l 81 451 z "}," ":{"ha":450,"x_min":0,"x_max":0,"o":""},"¡":{"ha":418,"x_min":64,"x_max":354,"o":"m 308 376 l 354 -292 l 64 -292 l 111 376 l 308 376 m 328 681 l 328 492 l 90 492 l 90 681 l 328 681 z "},"¢":{"ha":711,"x_min":71,"x_max":681,"o":"m 329 -7 q 226 29 274 4 q 144 96 179 54 q 90 197 110 138 q 71 339 71 257 q 139 573 71 482 q 329 688 207 664 l 329 825 l 486 825 l 486 685 q 602 644 558 672 q 674 588 646 615 l 571 456 q 510 498 542 479 q 432 517 479 517 q 334 468 368 517 q 300 340 300 419 q 333 210 300 256 q 436 164 365 164 q 518 182 485 164 q 588 232 551 200 l 681 108 q 606 46 651 76 q 486 -3 561 15 l 486 -144 l 329 -144 l 329 -7 l 329 -7 z "},"£":{"ha":793,"x_min":58,"x_max":763,"o":"m 163 179 l 163 397 l 58 397 l 58 560 l 163 560 l 163 629 q 186 785 163 718 q 253 896 210 851 q 355 963 296 940 q 485 985 414 985 q 585 972 540 985 q 663 941 629 960 q 722 899 697 922 q 763 854 747 875 l 643 719 q 584 776 617 750 q 501 801 551 801 q 415 760 442 801 q 388 653 388 719 l 388 560 l 574 560 l 574 397 l 388 397 l 388 179 l 763 179 l 763 0 l 58 0 l 58 179 l 163 179 z "},"¤":{"ha":785,"x_min":18,"x_max":767,"o":"m 125 281 q 88 370 101 324 q 75 474 75 417 q 88 576 75 529 q 125 669 100 622 l 18 775 l 131 885 l 231 781 q 305 817 264 804 q 392 831 346 831 q 480 817 439 831 q 553 781 521 804 l 654 885 l 767 775 l 658 669 q 695 576 682 624 q 708 474 708 529 q 695 371 708 418 q 658 281 682 324 l 767 174 l 650 64 l 556 168 q 478 131 519 144 q 392 117 436 117 q 229 169 301 117 l 135 64 l 18 174 l 125 281 m 556 474 q 544 549 556 513 q 512 613 533 585 q 460 657 490 640 q 392 674 429 674 q 323 657 353 674 q 272 613 293 640 q 240 549 251 585 q 229 474 229 513 q 240 401 229 436 q 273 337 251 365 q 324 292 294 308 q 392 275 354 275 q 460 292 429 275 q 511 337 490 308 q 544 401 532 365 q 556 474 556 436 z "},"¥":{"ha":813,"x_min":17,"x_max":794,"o":"m 108 146 l 108 256 l 292 256 l 292 326 l 108 326 l 108 436 l 244 436 l 17 972 l 260 972 l 375 639 q 391 588 382 618 q 404 531 400 557 l 414 531 q 427 585 418 554 q 444 638 436 615 l 561 972 l 794 972 l 564 436 l 700 436 l 700 326 l 517 326 l 517 256 l 700 256 l 700 146 l 517 146 l 517 0 l 292 0 l 292 146 l 108 146 z "},"¦":{"ha":388,"x_min":101,"x_max":286,"o":"m 286 279 l 286 -292 l 101 -292 l 101 279 l 286 279 m 286 1074 l 286 503 l 101 503 l 101 1074 l 286 1074 z "},"§":{"ha":746,"x_min":39,"x_max":708,"o":"m 165 -112 q 228 -157 190 -133 q 324 -181 267 -181 q 360 -176 342 -181 q 392 -164 378 -172 q 416 -142 407 -156 q 425 -107 425 -128 q 414 -65 425 -82 q 382 -33 403 -47 q 333 -3 361 -18 q 272 33 306 13 l 200 76 q 140 118 168 94 q 88 172 111 142 q 52 237 65 201 q 39 317 39 272 q 49 392 39 358 q 76 456 58 426 q 122 510 94 485 q 185 563 149 536 q 123 639 146 596 q 100 747 100 682 q 117 830 100 788 q 169 906 133 872 q 259 963 204 940 q 390 985 314 985 q 550 957 482 985 q 675 871 618 929 l 578 738 q 512 785 553 761 q 417 808 471 808 q 353 789 381 808 q 325 733 325 769 q 360 666 325 697 q 469 592 396 635 l 533 554 q 598 513 567 535 q 653 464 629 492 q 693 402 678 436 q 708 324 708 368 q 694 235 708 275 q 658 162 679 194 q 613 103 638 129 q 568 58 589 78 q 625 -11 599 29 q 651 -119 651 -51 q 637 -197 651 -156 q 588 -275 622 -239 q 495 -335 553 -311 q 353 -360 438 -360 q 193 -331 261 -360 q 71 -244 125 -301 l 165 -112 m 494 289 q 473 359 494 329 q 421 413 451 389 q 378 441 404 425 q 315 475 351 457 q 267 413 283 447 q 250 342 250 378 q 269 273 250 301 q 314 222 288 244 q 367 183 336 203 q 435 143 399 164 q 476 211 458 175 q 494 289 494 247 z "},"¨":{"ha":746,"x_min":157,"x_max":590,"o":"m 324 979 l 324 801 l 157 801 l 157 979 l 324 979 m 590 979 l 590 801 l 424 801 l 424 979 l 590 979 z "},"©":{"ha":1050,"x_min":86,"x_max":964,"o":"m 315 488 q 374 682 315 610 q 540 754 432 754 q 647 729 610 754 q 711 672 685 704 l 644 585 q 603 621 625 604 q 546 638 581 638 q 501 626 519 638 q 472 593 483 614 q 456 545 461 572 q 451 488 451 518 q 477 381 451 418 q 547 343 503 343 q 606 358 581 343 q 656 400 632 374 l 715 317 q 642 253 688 279 q 539 228 596 228 q 375 290 435 228 q 315 488 315 351 m 86 485 q 117 675 86 585 q 206 834 149 765 q 344 944 264 903 q 525 985 425 985 q 706 944 625 985 q 844 834 786 903 q 933 675 901 765 q 964 485 964 585 q 933 296 964 386 q 844 137 901 206 q 705 27 786 68 q 525 -14 624 -14 q 345 27 426 -14 q 206 137 264 68 q 117 296 149 206 q 86 485 86 386 m 861 483 q 837 634 861 563 q 769 760 813 706 q 663 847 725 814 q 524 879 600 879 q 386 847 447 879 q 281 760 325 814 q 214 634 238 706 q 190 483 190 563 q 214 335 190 406 q 281 210 238 264 q 386 124 325 156 q 524 92 447 92 q 662 124 600 92 q 768 210 724 156 q 837 335 813 264 q 861 483 861 406 z "},"ª":{"ha":606,"x_min":67,"x_max":519,"o":"m 67 631 q 87 711 67 681 q 138 758 107 742 q 205 779 168 774 q 275 785 242 785 l 354 785 l 354 799 q 338 849 354 826 q 276 872 321 872 q 210 860 242 872 q 149 828 178 847 l 100 919 q 197 967 140 949 q 313 985 254 985 q 389 974 351 985 q 456 940 426 964 q 502 878 485 917 q 519 783 519 840 l 519 494 l 357 494 l 357 553 l 356 553 q 300 509 339 529 q 203 489 261 489 q 106 524 146 489 q 67 631 67 560 m 357 706 l 301 706 q 253 693 269 706 q 238 649 238 681 q 247 612 238 628 q 279 596 257 596 q 325 613 306 596 q 357 653 344 631 l 357 706 z "},"«":{"ha":686,"x_min":57,"x_max":636,"o":"m 239 672 l 382 603 l 251 354 l 382 107 l 239 38 l 57 354 l 239 672 m 493 635 l 636 574 l 522 354 l 636 136 l 493 74 l 336 354 l 493 635 z "},"¬":{"ha":910,"x_min":57,"x_max":800,"o":"m 57 454 l 57 624 l 800 624 l 800 221 l 635 221 l 635 454 l 57 454 z "},"­":{"ha":575,"x_min":97,"x_max":479,"o":"m 479 453 l 479 283 l 97 283 l 97 453 l 479 453 z "},"®":{"ha":1050,"x_min":86,"x_max":964,"o":"m 553 746 q 608 738 579 746 q 660 713 638 731 q 699 665 683 694 q 714 590 714 635 q 688 493 714 529 q 631 442 663 457 l 749 235 l 601 235 l 506 419 l 481 419 l 481 235 l 351 235 l 351 746 l 553 746 m 86 485 q 117 675 86 585 q 206 834 149 765 q 344 944 264 903 q 525 985 425 985 q 706 944 625 985 q 844 834 786 903 q 933 675 901 765 q 964 485 964 585 q 933 296 964 386 q 844 137 901 206 q 705 27 786 68 q 525 -14 624 -14 q 345 27 426 -14 q 206 137 264 68 q 117 296 149 206 q 86 485 86 386 m 861 483 q 837 634 861 563 q 769 760 813 706 q 663 847 725 814 q 524 879 600 879 q 386 847 447 879 q 281 760 325 814 q 214 634 238 706 q 190 483 190 563 q 214 335 190 406 q 281 210 238 264 q 386 124 325 156 q 524 92 447 92 q 662 124 600 92 q 768 210 724 156 q 837 335 813 264 q 861 483 861 406 m 521 517 q 563 532 543 517 q 582 586 582 547 q 565 635 582 622 q 525 649 547 649 l 476 649 l 476 517 l 521 517 z "},"¯":{"ha":746,"x_min":181,"x_max":565,"o":"m 565 951 l 565 813 l 181 813 l 181 951 l 565 951 z "},"°":{"ha":457,"x_min":39,"x_max":418,"o":"m 39 779 q 53 858 39 821 q 92 924 67 896 q 152 969 117 953 q 229 985 188 985 q 306 969 271 985 q 365 924 340 953 q 404 858 390 896 q 418 779 418 821 q 404 700 418 738 q 365 635 390 663 q 306 590 340 607 q 229 574 271 574 q 152 590 188 574 q 92 635 117 607 q 53 700 67 663 q 39 779 39 738 m 294 779 q 276 833 294 810 q 229 856 258 856 q 182 833 199 856 q 165 779 165 810 q 183 727 165 750 q 229 704 200 704 q 276 727 258 704 q 294 779 294 750 z "},"±":{"ha":824,"x_min":88,"x_max":735,"o":"m 88 525 l 88 683 l 332 683 l 332 918 l 492 918 l 492 683 l 735 683 l 735 525 l 492 525 l 492 290 l 332 290 l 332 525 l 88 525 m 735 208 l 735 49 l 88 49 l 88 208 l 735 208 z "},"²":{"ha":547,"x_min":64,"x_max":468,"o":"m 193 617 q 253 678 231 651 q 289 724 276 704 q 306 762 301 744 q 310 796 310 779 q 293 838 310 821 q 250 856 276 856 q 190 836 218 856 q 142 790 161 817 l 64 871 q 94 908 75 888 q 140 945 113 928 q 201 974 167 963 q 278 985 236 985 q 367 971 331 985 q 425 934 403 957 q 457 881 447 911 q 467 818 467 850 q 455 749 467 781 q 421 687 443 717 q 367 626 399 657 q 297 561 336 596 l 260 528 l 260 524 l 468 524 l 468 394 l 82 394 l 82 510 l 193 617 z "},"³":{"ha":547,"x_min":56,"x_max":472,"o":"m 114 567 q 161 531 129 550 q 242 513 193 513 q 297 527 278 513 q 317 569 317 542 q 249 631 317 631 l 203 631 l 203 742 l 246 742 q 296 760 279 742 q 313 804 313 778 q 294 844 313 833 q 250 856 276 856 q 194 844 219 856 q 138 804 169 832 l 67 894 q 155 960 100 935 q 275 985 210 985 q 419 944 368 985 q 469 833 469 903 q 461 788 469 810 q 439 748 453 767 q 406 716 425 729 q 367 699 388 703 l 367 692 q 440 653 407 688 q 472 563 472 619 q 456 489 472 522 q 409 432 439 456 q 340 396 379 408 q 254 383 300 383 q 140 407 193 383 q 56 471 88 431 l 114 567 z "},"´":{"ha":746,"x_min":301,"x_max":611,"o":"m 611 1007 l 446 799 l 301 799 l 401 1007 l 611 1007 z "},"µ":{"ha":763,"x_min":65,"x_max":699,"o":"m 290 681 l 290 261 q 311 200 290 219 q 360 181 332 181 q 421 199 393 181 q 474 249 449 218 l 474 681 l 699 681 l 699 0 l 481 0 l 481 88 l 475 88 q 417 12 450 36 q 347 -12 383 -12 q 292 4 313 -12 l 288 4 q 290 -28 289 -11 q 290 -68 290 -44 l 290 -347 l 65 -347 l 65 681 l 290 681 z "},"μ":{"ha":763,"x_min":65,"x_max":699,"o":"m 290 681 l 290 261 q 311 200 290 219 q 360 181 332 181 q 421 199 393 181 q 474 249 449 218 l 474 681 l 699 681 l 699 0 l 481 0 l 481 88 l 475 88 q 417 12 450 36 q 347 -12 383 -12 q 292 4 313 -12 l 288 4 q 290 -28 289 -11 q 290 -68 290 -44 l 290 -347 l 65 -347 l 65 681 l 290 681 z "},"¶":{"ha":644,"x_min":32,"x_max":564,"o":"m 276 453 q 171 474 217 453 q 94 532 125 496 q 48 615 64 568 q 32 711 32 661 q 47 810 32 763 q 91 893 61 857 q 167 951 121 929 q 276 972 214 972 l 386 972 l 386 -347 l 276 -347 l 276 453 m 564 972 l 564 -347 l 456 -347 l 456 972 l 564 972 z "},"·":{"ha":326,"x_min":25,"x_max":300,"o":"m 25 486 q 63 585 25 544 q 163 626 101 626 q 263 585 225 626 q 300 486 300 544 q 263 388 300 428 q 163 347 225 347 q 63 388 101 347 q 25 486 25 428 z "},"¸":{"ha":746,"x_min":214,"x_max":532,"o":"m 254 -207 q 299 -229 274 -222 q 347 -236 324 -236 q 403 -186 403 -236 q 381 -149 403 -158 q 335 -140 360 -140 q 303 -140 324 -140 q 268 -143 283 -140 l 293 0 l 399 0 l 388 -60 q 497 -94 463 -60 q 532 -186 532 -129 q 518 -249 532 -222 q 480 -296 504 -276 q 423 -325 456 -315 q 354 -335 390 -335 q 274 -324 311 -335 q 214 -293 238 -312 l 254 -207 z "},"¹":{"ha":547,"x_min":82,"x_max":390,"o":"m 140 749 l 82 856 l 258 972 l 390 972 l 390 394 l 238 394 l 238 807 l 140 749 z "},"º":{"ha":606,"x_min":60,"x_max":546,"o":"m 60 736 q 127 919 60 854 q 303 985 194 985 q 479 919 413 985 q 546 736 546 854 q 479 553 546 618 q 303 489 413 489 q 126 553 193 489 q 60 736 60 618 m 378 736 q 374 785 378 761 q 363 826 371 808 q 340 856 354 844 q 303 867 325 867 q 266 856 281 867 q 243 826 251 844 q 231 785 235 808 q 228 736 228 761 q 231 688 228 711 q 243 647 235 664 q 266 618 251 629 q 303 607 281 607 q 340 618 325 607 q 363 647 354 629 q 374 688 371 664 q 378 736 378 711 z "},"»":{"ha":686,"x_min":51,"x_max":631,"o":"m 165 354 l 51 574 l 194 635 l 351 354 l 194 74 l 51 136 l 165 354 m 436 354 l 306 603 l 449 672 l 631 354 l 449 38 l 306 107 l 436 354 z "},"¼":{"ha":1185,"x_min":54,"x_max":1106,"o":"m 657 133 l 657 238 l 876 578 l 1022 578 l 1022 260 l 1106 260 l 1106 133 l 1022 133 l 1022 0 l 871 0 l 871 133 l 657 133 m 113 749 l 54 856 l 232 972 l 363 972 l 363 394 l 210 394 l 210 807 l 113 749 m 878 401 l 874 401 l 776 256 l 776 251 l 878 251 l 878 401 m 721 1028 l 833 982 l 414 -75 l 307 -26 l 721 1028 z "},"½":{"ha":1185,"x_min":47,"x_max":1115,"o":"m 839 219 q 899 282 876 256 q 935 329 922 308 q 951 367 947 350 q 956 401 956 383 q 940 444 956 426 q 899 461 924 461 q 838 441 867 461 q 789 396 810 421 l 711 476 q 740 513 721 493 q 787 551 760 533 q 849 579 814 568 q 926 590 883 590 q 1014 576 978 590 q 1072 539 1050 563 q 1104 485 1094 515 q 1114 422 1114 454 q 1101 355 1114 386 q 1067 293 1089 324 q 1013 232 1044 263 q 944 167 982 201 l 908 133 l 908 128 l 1115 128 l 1115 0 l 729 0 l 729 113 l 839 219 m 104 749 l 47 856 l 224 972 l 356 972 l 356 394 l 203 394 l 203 807 l 104 749 m 718 1028 l 828 982 l 410 -75 l 303 -26 l 718 1028 z "},"¾":{"ha":1185,"x_min":43,"x_max":1110,"o":"m 101 567 q 153 529 121 546 q 229 513 185 513 q 285 527 265 513 q 304 569 304 542 q 287 615 304 599 q 238 631 269 631 l 190 631 l 190 742 l 233 742 q 283 760 267 742 q 300 804 300 778 q 282 844 300 833 q 238 856 264 856 q 182 844 207 856 q 126 804 157 832 l 56 894 q 142 960 88 935 q 264 985 197 985 q 406 944 356 985 q 457 833 457 903 q 428 748 457 788 q 354 699 399 708 l 354 692 q 427 653 394 688 q 460 563 460 619 q 443 489 460 522 q 397 432 426 456 q 327 396 367 408 q 242 383 288 383 q 128 407 181 383 q 43 471 75 431 l 101 567 m 663 133 l 663 238 l 882 578 l 1029 578 l 1029 260 l 1110 260 l 1110 133 l 1029 133 l 1029 0 l 876 0 l 876 133 l 663 133 m 883 403 l 879 403 l 781 256 l 781 251 l 883 251 l 883 403 m 749 1028 l 860 982 l 442 -75 l 335 -26 l 749 1028 z "},"¿":{"ha":688,"x_min":22,"x_max":692,"o":"m 22 -62 q 58 78 22 17 q 167 199 93 139 l 199 226 q 250 335 250 274 l 250 376 l 485 376 l 485 332 q 390 150 485 231 l 354 119 q 294 53 314 83 q 275 -18 275 22 q 299 -79 275 -54 q 372 -104 324 -104 q 485 -69 439 -104 q 565 10 532 -33 l 692 -112 q 635 -183 669 -149 q 556 -245 601 -218 q 454 -288 511 -272 q 328 -304 397 -304 q 195 -285 253 -304 q 99 -233 138 -267 q 42 -156 61 -200 q 22 -62 22 -112 m 485 681 l 485 492 l 249 492 l 249 681 l 485 681 z "},"À":{"ha":918,"x_min":11,"x_max":908,"o":"m 483 635 q 469 689 476 657 q 458 749 463 721 l 447 749 q 433 690 440 722 q 419 636 425 658 l 361 418 l 538 418 l 483 635 m 583 972 l 908 0 l 665 0 l 592 217 l 310 217 l 242 0 l 11 0 l 333 972 l 583 972 m 443 1306 l 554 1067 l 404 1067 l 222 1306 l 443 1306 z "},"Á":{"ha":918,"x_min":11,"x_max":908,"o":"m 483 635 q 469 689 476 657 q 458 749 463 721 l 447 749 q 433 690 440 722 q 419 636 425 658 l 361 418 l 538 418 l 483 635 m 583 972 l 908 0 l 665 0 l 592 217 l 310 217 l 242 0 l 11 0 l 333 972 l 583 972 m 719 1306 l 538 1067 l 389 1067 l 500 1306 l 719 1306 z "},"Â":{"ha":918,"x_min":11,"x_max":908,"o":"m 483 635 q 469 689 476 657 q 458 749 463 721 l 447 749 q 433 690 440 722 q 419 636 425 658 l 361 418 l 538 418 l 483 635 m 583 972 l 908 0 l 665 0 l 592 217 l 310 217 l 242 0 l 11 0 l 333 972 l 583 972 m 542 1301 l 725 1065 l 563 1065 l 461 1183 l 360 1065 l 197 1065 l 379 1301 l 542 1301 z "},"Ã":{"ha":918,"x_min":11,"x_max":908,"o":"m 483 635 q 469 689 476 657 q 458 749 463 721 l 447 749 q 433 690 440 722 q 419 636 425 658 l 361 418 l 538 418 l 483 635 m 583 972 l 908 0 l 665 0 l 592 217 l 310 217 l 242 0 l 11 0 l 333 972 l 583 972 m 446 1104 q 406 1124 425 1115 q 368 1132 386 1132 q 342 1121 357 1132 q 322 1072 328 1110 l 207 1071 q 216 1147 207 1111 q 244 1211 225 1183 q 290 1256 263 1239 q 356 1272 318 1272 q 415 1263 386 1272 q 475 1238 443 1253 q 523 1215 503 1225 q 556 1206 543 1206 q 581 1216 567 1206 q 599 1268 594 1226 l 711 1268 q 672 1117 711 1169 q 576 1065 633 1065 q 547 1067 561 1065 q 518 1074 533 1069 q 485 1085 503 1078 q 446 1104 468 1093 z "},"Ä":{"ha":918,"x_min":11,"x_max":908,"o":"m 483 635 q 469 689 476 657 q 458 749 463 721 l 447 749 q 433 690 440 722 q 419 636 425 658 l 361 418 l 538 418 l 483 635 m 583 972 l 908 0 l 665 0 l 592 217 l 310 217 l 242 0 l 11 0 l 333 972 l 583 972 m 407 1278 l 407 1088 l 225 1088 l 225 1278 l 407 1278 m 696 1278 l 696 1088 l 514 1088 l 514 1278 l 696 1278 z "},"Å":{"ha":918,"x_min":11,"x_max":908,"o":"m 483 635 q 469 689 476 657 q 458 749 463 721 l 447 749 q 433 690 440 722 q 419 636 425 658 l 361 418 l 538 418 l 483 635 m 583 972 l 908 0 l 665 0 l 592 217 l 310 217 l 242 0 l 11 0 l 333 972 l 583 972 m 289 1218 q 301 1287 289 1254 q 335 1344 313 1319 q 388 1382 357 1368 q 458 1396 419 1396 q 528 1382 496 1396 q 582 1344 560 1368 q 617 1287 604 1319 q 629 1218 629 1254 q 617 1149 629 1182 q 582 1092 604 1117 q 528 1054 560 1068 q 458 1040 496 1040 q 388 1054 419 1040 q 335 1092 357 1068 q 301 1149 313 1117 q 289 1218 289 1182 m 524 1218 q 505 1268 524 1246 q 458 1290 486 1290 q 412 1268 429 1290 q 394 1218 394 1246 q 412 1168 394 1190 q 458 1146 429 1146 q 505 1168 486 1146 q 524 1218 524 1190 z "},"Æ":{"ha":1235,"x_min":4,"x_max":1201,"o":"m 1201 972 l 1201 771 l 839 771 l 839 593 l 1126 593 l 1126 394 l 839 394 l 839 201 l 1201 201 l 1201 0 l 604 0 l 604 217 l 349 217 l 240 0 l 4 0 l 486 972 l 1201 972 m 604 756 l 593 756 l 440 418 l 604 418 l 604 756 z "},"Ç":{"ha":829,"x_min":42,"x_max":797,"o":"m 356 -225 q 403 -249 375 -240 q 454 -257 431 -257 q 514 -203 514 -257 q 492 -162 514 -172 q 442 -153 469 -153 q 410 -153 431 -153 q 372 -156 389 -153 l 397 -8 q 134 129 226 11 q 42 481 42 247 q 69 689 42 596 q 151 848 97 782 q 285 949 206 914 q 467 985 364 985 q 578 973 529 985 q 664 941 626 961 q 731 894 701 921 q 786 836 761 867 l 665 686 q 627 724 646 706 q 586 755 608 742 q 538 776 564 768 q 478 785 511 785 q 388 760 425 785 q 327 694 351 736 q 292 597 303 653 q 281 481 281 542 q 335 260 281 335 q 481 186 389 186 q 594 215 547 186 q 685 293 640 244 l 797 149 q 672 42 747 86 q 506 -10 597 -3 l 497 -65 q 613 -103 576 -65 q 649 -201 649 -142 q 634 -269 649 -239 q 594 -319 619 -299 q 534 -351 568 -340 q 463 -361 500 -361 q 378 -350 418 -361 q 314 -317 339 -339 l 356 -225 z "},"È":{"ha":708,"x_min":78,"x_max":675,"o":"m 675 972 l 675 771 l 313 771 l 313 593 l 600 593 l 600 394 l 313 394 l 313 201 l 675 201 l 675 0 l 78 0 l 78 972 l 675 972 m 346 1306 l 457 1067 l 307 1067 l 125 1306 l 346 1306 z "},"É":{"ha":708,"x_min":78,"x_max":675,"o":"m 675 972 l 675 771 l 313 771 l 313 593 l 600 593 l 600 394 l 313 394 l 313 201 l 675 201 l 675 0 l 78 0 l 78 972 l 675 972 m 614 1306 l 432 1067 l 283 1067 l 394 1306 l 614 1306 z "},"Ê":{"ha":708,"x_min":78,"x_max":675,"o":"m 675 972 l 675 771 l 313 771 l 313 593 l 600 593 l 600 394 l 313 394 l 313 201 l 675 201 l 675 0 l 78 0 l 78 972 l 675 972 m 449 1301 l 632 1065 l 469 1065 l 368 1183 l 267 1065 l 104 1065 l 286 1301 l 449 1301 z "},"Ë":{"ha":708,"x_min":78,"x_max":675,"o":"m 675 972 l 675 771 l 313 771 l 313 593 l 600 593 l 600 394 l 313 394 l 313 201 l 675 201 l 675 0 l 78 0 l 78 972 l 675 972 m 314 1278 l 314 1088 l 132 1088 l 132 1278 l 314 1278 m 603 1278 l 603 1088 l 421 1088 l 421 1278 l 603 1278 z "},"Ì":{"ha":390,"x_min":-33,"x_max":313,"o":"m 313 972 l 313 0 l 78 0 l 78 972 l 313 972 m 188 1306 l 299 1067 l 149 1067 l -33 1306 l 188 1306 z "},"Í":{"ha":390,"x_min":78,"x_max":447,"o":"m 313 972 l 313 0 l 78 0 l 78 972 l 313 972 m 447 1306 l 265 1067 l 117 1067 l 228 1306 l 447 1306 z "},"Î":{"ha":390,"x_min":-68,"x_max":460,"o":"m 313 972 l 313 0 l 78 0 l 78 972 l 313 972 m 276 1301 l 460 1065 l 297 1065 l 196 1183 l 94 1065 l -68 1065 l 114 1301 l 276 1301 z "},"Ï":{"ha":390,"x_min":-39,"x_max":432,"o":"m 313 972 l 313 0 l 78 0 l 78 972 l 313 972 m 143 1278 l 143 1088 l -39 1088 l -39 1278 l 143 1278 m 432 1278 l 432 1088 l 250 1088 l 250 1278 l 432 1278 z "},"Ð":{"ha":932,"x_min":18,"x_max":892,"o":"m 18 411 l 18 596 l 139 596 l 139 972 l 449 972 q 617 952 538 972 q 758 878 697 932 q 856 730 819 824 q 892 489 892 636 q 854 270 892 363 q 753 118 817 178 q 608 29 690 58 q 438 0 526 0 l 139 0 l 139 411 l 18 411 m 425 199 q 594 272 536 199 q 653 486 653 346 q 640 622 653 567 q 601 710 628 676 q 532 759 574 744 q 433 774 490 774 l 371 774 l 371 596 l 529 596 l 529 411 l 371 411 l 371 199 l 425 199 z "},"Ñ":{"ha":913,"x_min":78,"x_max":835,"o":"m 331 972 l 558 529 q 571 501 564 518 q 585 466 578 485 q 601 428 593 447 q 615 393 608 410 l 626 393 q 621 476 624 432 q 618 547 618 521 l 618 972 l 835 972 l 835 0 l 614 0 l 346 517 q 319 576 333 542 q 292 643 304 611 l 281 643 q 284 606 282 629 q 288 555 286 582 q 292 501 290 528 q 294 458 294 475 l 294 0 l 78 0 l 78 972 l 331 972 m 447 1104 q 407 1124 426 1115 q 369 1132 388 1132 q 344 1121 358 1132 q 324 1072 329 1110 l 208 1071 q 217 1147 208 1111 q 245 1211 226 1183 q 292 1256 264 1239 q 357 1272 319 1272 q 416 1263 388 1272 q 476 1238 444 1253 q 524 1215 504 1225 q 557 1206 544 1206 q 582 1216 568 1206 q 600 1268 596 1226 l 713 1268 q 674 1117 713 1169 q 578 1065 635 1065 q 549 1067 563 1065 q 519 1074 535 1069 q 487 1085 504 1078 q 447 1104 469 1093 z "},"Ò":{"ha":946,"x_min":42,"x_max":904,"o":"m 42 486 q 69 694 42 601 q 149 851 96 786 q 284 950 203 915 q 474 985 365 985 q 663 950 582 985 q 797 851 743 915 q 878 694 851 786 q 904 486 904 601 q 878 278 904 371 q 797 122 851 186 q 663 22 743 57 q 474 -12 582 -12 q 284 22 365 -12 q 149 122 203 57 q 69 278 96 186 q 42 486 42 371 m 667 486 q 659 593 667 539 q 631 691 651 647 q 572 763 610 735 q 474 790 533 790 q 375 763 413 790 q 317 691 338 735 q 288 593 296 647 q 281 486 281 539 q 288 379 281 433 q 317 281 296 325 q 375 210 338 238 q 474 182 413 182 q 572 210 533 182 q 631 281 610 238 q 659 379 651 325 q 667 486 667 433 m 458 1306 l 569 1067 l 419 1067 l 238 1306 l 458 1306 z "},"Ó":{"ha":946,"x_min":42,"x_max":904,"o":"m 42 486 q 69 694 42 601 q 149 851 96 786 q 284 950 203 915 q 474 985 365 985 q 663 950 582 985 q 797 851 743 915 q 878 694 851 786 q 904 486 904 601 q 878 278 904 371 q 797 122 851 186 q 663 22 743 57 q 474 -12 582 -12 q 284 22 365 -12 q 149 122 203 57 q 69 278 96 186 q 42 486 42 371 m 667 486 q 659 593 667 539 q 631 691 651 647 q 572 763 610 735 q 474 790 533 790 q 375 763 413 790 q 317 691 338 735 q 288 593 296 647 q 281 486 281 539 q 288 379 281 433 q 317 281 296 325 q 375 210 338 238 q 474 182 413 182 q 572 210 533 182 q 631 281 610 238 q 659 379 651 325 q 667 486 667 433 m 733 1306 l 551 1067 l 403 1067 l 514 1306 l 733 1306 z "},"Ô":{"ha":946,"x_min":42,"x_max":904,"o":"m 42 486 q 69 694 42 601 q 149 851 96 786 q 284 950 203 915 q 474 985 365 985 q 663 950 582 985 q 797 851 743 915 q 878 694 851 786 q 904 486 904 601 q 878 278 904 371 q 797 122 851 186 q 663 22 743 57 q 474 -12 582 -12 q 284 22 365 -12 q 149 122 203 57 q 69 278 96 186 q 42 486 42 371 m 667 486 q 659 593 667 539 q 631 691 651 647 q 572 763 610 735 q 474 790 533 790 q 375 763 413 790 q 317 691 338 735 q 288 593 296 647 q 281 486 281 539 q 288 379 281 433 q 317 281 296 325 q 375 210 338 238 q 474 182 413 182 q 572 210 533 182 q 631 281 610 238 q 659 379 651 325 q 667 486 667 433 m 556 1301 l 739 1065 l 576 1065 l 475 1183 l 374 1065 l 211 1065 l 393 1301 l 556 1301 z "},"Õ":{"ha":946,"x_min":42,"x_max":904,"o":"m 42 486 q 69 694 42 601 q 149 851 96 786 q 284 950 203 915 q 474 985 365 985 q 663 950 582 985 q 797 851 743 915 q 878 694 851 786 q 904 486 904 601 q 878 278 904 371 q 797 122 851 186 q 663 22 743 57 q 474 -12 582 -12 q 284 22 365 -12 q 149 122 203 57 q 69 278 96 186 q 42 486 42 371 m 667 486 q 659 593 667 539 q 631 691 651 647 q 572 763 610 735 q 474 790 533 790 q 375 763 413 790 q 317 691 338 735 q 288 593 296 647 q 281 486 281 539 q 288 379 281 433 q 317 281 296 325 q 375 210 338 238 q 474 182 413 182 q 572 210 533 182 q 631 281 610 238 q 659 379 651 325 q 667 486 667 433 m 461 1104 q 421 1124 440 1115 q 383 1132 401 1132 q 358 1121 372 1132 q 338 1072 343 1110 l 222 1071 q 231 1147 222 1111 q 259 1211 240 1183 q 306 1256 278 1239 q 371 1272 333 1272 q 430 1263 401 1272 q 490 1238 458 1253 q 538 1215 518 1225 q 571 1206 558 1206 q 596 1216 582 1206 q 614 1268 610 1226 l 726 1268 q 688 1117 726 1169 q 592 1065 649 1065 q 563 1067 576 1065 q 533 1074 549 1069 q 501 1085 518 1078 q 461 1104 483 1093 z "},"Ö":{"ha":946,"x_min":42,"x_max":904,"o":"m 42 486 q 69 694 42 601 q 149 851 96 786 q 284 950 203 915 q 474 985 365 985 q 663 950 582 985 q 797 851 743 915 q 878 694 851 786 q 904 486 904 601 q 878 278 904 371 q 797 122 851 186 q 663 22 743 57 q 474 -12 582 -12 q 284 22 365 -12 q 149 122 203 57 q 69 278 96 186 q 42 486 42 371 m 667 486 q 659 593 667 539 q 631 691 651 647 q 572 763 610 735 q 474 790 533 790 q 375 763 413 790 q 317 691 338 735 q 288 593 296 647 q 281 486 281 539 q 288 379 281 433 q 317 281 296 325 q 375 210 338 238 q 474 182 413 182 q 572 210 533 182 q 631 281 610 238 q 659 379 651 325 q 667 486 667 433 m 421 1278 l 421 1088 l 239 1088 l 239 1278 l 421 1278 m 710 1278 l 710 1088 l 528 1088 l 528 1278 l 710 1278 z "},"×":{"ha":769,"x_min":85,"x_max":685,"o":"m 286 483 l 85 693 l 196 797 l 385 589 l 574 797 l 685 693 l 483 483 l 685 274 l 574 169 l 385 378 l 196 169 l 85 274 l 286 483 z "},"Ø":{"ha":946,"x_min":42,"x_max":904,"o":"m 174 94 q 74 258 107 160 q 42 486 42 357 q 69 694 42 601 q 149 851 96 786 q 284 950 203 915 q 474 985 365 985 q 669 947 586 985 l 739 1065 l 843 1003 l 771 879 q 871 715 838 814 q 904 486 904 617 q 878 278 904 371 q 797 122 851 186 q 663 22 743 57 q 474 -12 582 -12 q 274 26 360 -12 l 204 -93 l 103 -28 l 174 94 m 667 486 q 661 573 667 529 q 642 654 656 617 l 379 208 q 474 182 418 182 q 572 210 533 182 q 631 281 610 238 q 659 379 651 325 q 667 486 667 433 m 564 767 q 474 790 528 790 q 375 763 413 790 q 317 691 338 735 q 288 593 296 647 q 281 486 281 539 q 285 401 281 444 q 303 319 290 358 l 564 767 z "},"Ù":{"ha":885,"x_min":72,"x_max":813,"o":"m 72 972 l 307 972 l 307 342 q 346 224 307 263 q 451 186 385 186 q 551 224 513 186 q 590 342 590 263 l 590 972 l 813 972 l 813 351 q 787 190 813 258 q 713 76 761 121 q 597 10 665 32 q 443 -12 528 -12 q 287 8 356 -12 q 170 73 218 29 q 97 185 122 117 q 72 351 72 254 l 72 972 m 426 1306 l 538 1067 l 388 1067 l 206 1306 l 426 1306 z "},"Ú":{"ha":885,"x_min":72,"x_max":813,"o":"m 72 972 l 307 972 l 307 342 q 346 224 307 263 q 451 186 385 186 q 551 224 513 186 q 590 342 590 263 l 590 972 l 813 972 l 813 351 q 787 190 813 258 q 713 76 761 121 q 597 10 665 32 q 443 -12 528 -12 q 287 8 356 -12 q 170 73 218 29 q 97 185 122 117 q 72 351 72 254 l 72 972 m 703 1306 l 521 1067 l 372 1067 l 483 1306 l 703 1306 z "},"Û":{"ha":885,"x_min":72,"x_max":813,"o":"m 72 972 l 307 972 l 307 342 q 346 224 307 263 q 451 186 385 186 q 551 224 513 186 q 590 342 590 263 l 590 972 l 813 972 l 813 351 q 787 190 813 258 q 713 76 761 121 q 597 10 665 32 q 443 -12 528 -12 q 287 8 356 -12 q 170 73 218 29 q 97 185 122 117 q 72 351 72 254 l 72 972 m 525 1301 l 708 1065 l 546 1065 l 444 1183 l 343 1065 l 181 1065 l 363 1301 l 525 1301 z "},"Ü":{"ha":885,"x_min":72,"x_max":813,"o":"m 72 972 l 307 972 l 307 342 q 346 224 307 263 q 451 186 385 186 q 551 224 513 186 q 590 342 590 263 l 590 972 l 813 972 l 813 351 q 787 190 813 258 q 713 76 761 121 q 597 10 665 32 q 443 -12 528 -12 q 287 8 356 -12 q 170 73 218 29 q 97 185 122 117 q 72 351 72 254 l 72 972 m 390 1278 l 390 1088 l 208 1088 l 208 1278 l 390 1278 m 679 1278 l 679 1088 l 497 1088 l 497 1278 l 679 1278 z "},"Ý":{"ha":806,"x_min":-14,"x_max":819,"o":"m -14 972 l 239 972 l 368 639 q 385 584 375 618 q 401 524 396 550 l 413 524 q 426 582 417 549 q 446 638 436 615 l 576 972 l 819 972 l 518 331 l 518 0 l 285 0 l 285 331 l -14 972 m 660 1306 l 478 1067 l 329 1067 l 440 1306 l 660 1306 z "},"Þ":{"ha":785,"x_min":78,"x_max":749,"o":"m 313 982 l 313 819 l 439 819 q 545 806 490 819 q 645 756 600 792 q 719 661 690 721 q 749 511 749 601 q 724 373 749 433 q 656 271 700 313 q 552 208 613 229 q 418 186 492 186 l 313 186 l 313 0 l 78 0 l 78 982 l 313 982 m 393 365 q 476 399 440 365 q 511 510 511 433 q 476 611 511 581 q 396 642 442 642 l 308 642 l 308 365 l 393 365 z "},"ß":{"ha":783,"x_min":65,"x_max":751,"o":"m 372 151 q 417 146 399 146 q 456 152 436 146 q 490 175 475 158 q 513 222 504 192 q 522 300 522 251 q 513 376 522 347 q 487 422 503 406 q 451 443 471 438 q 411 449 431 449 l 372 449 l 372 607 l 410 607 q 463 639 443 607 q 482 743 482 671 q 458 835 482 808 q 396 861 433 861 q 344 849 364 861 q 312 817 324 838 q 295 768 300 796 q 290 708 290 740 l 290 0 l 65 0 l 65 708 q 83 835 65 776 q 141 936 101 893 q 242 1003 181 979 q 392 1028 304 1028 q 535 1008 475 1028 q 633 953 594 989 q 690 867 672 917 q 708 757 708 817 q 672 617 708 674 q 569 542 635 561 l 569 536 q 639 516 606 532 q 697 471 672 500 q 737 399 722 442 q 751 299 751 357 q 675 67 751 147 q 457 -12 599 -12 q 411 -10 435 -12 q 368 -1 388 -8 l 372 151 z "},"à":{"ha":724,"x_min":29,"x_max":658,"o":"m 29 196 q 54 305 29 261 q 119 374 79 349 q 210 410 160 400 q 313 421 261 421 l 433 421 l 433 426 q 408 499 433 472 q 324 526 382 526 q 230 509 275 526 q 144 464 185 492 l 78 601 q 213 667 136 642 q 372 693 290 693 q 478 679 426 693 q 569 633 529 665 q 634 550 610 601 q 658 422 658 499 l 658 0 l 439 0 l 439 88 l 436 88 q 402 58 422 75 q 355 24 382 40 q 292 -2 328 8 q 214 -12 257 -12 q 142 1 176 -12 q 83 40 108 14 q 44 106 58 67 q 29 196 29 144 m 440 299 l 354 299 q 285 281 310 299 q 261 226 261 263 q 276 181 261 199 q 325 164 290 164 q 391 186 363 164 q 440 236 419 208 l 440 299 m 358 1007 l 458 799 l 314 799 l 149 1007 l 358 1007 z "},"á":{"ha":724,"x_min":29,"x_max":658,"o":"m 29 196 q 54 305 29 261 q 119 374 79 349 q 210 410 160 400 q 313 421 261 421 l 433 421 l 433 426 q 408 499 433 472 q 324 526 382 526 q 230 509 275 526 q 144 464 185 492 l 78 601 q 213 667 136 642 q 372 693 290 693 q 478 679 426 693 q 569 633 529 665 q 634 550 610 601 q 658 422 658 499 l 658 0 l 439 0 l 439 88 l 436 88 q 402 58 422 75 q 355 24 382 40 q 292 -2 328 8 q 214 -12 257 -12 q 142 1 176 -12 q 83 40 108 14 q 44 106 58 67 q 29 196 29 144 m 440 299 l 354 299 q 285 281 310 299 q 261 226 261 263 q 276 181 261 199 q 325 164 290 164 q 391 186 363 164 q 440 236 419 208 l 440 299 m 600 1007 l 435 799 l 290 799 l 390 1007 l 600 1007 z "},"â":{"ha":724,"x_min":29,"x_max":658,"o":"m 29 196 q 54 305 29 261 q 119 374 79 349 q 210 410 160 400 q 313 421 261 421 l 433 421 l 433 426 q 408 499 433 472 q 324 526 382 526 q 230 509 275 526 q 144 464 185 492 l 78 601 q 213 667 136 642 q 372 693 290 693 q 478 679 426 693 q 569 633 529 665 q 634 550 610 601 q 658 422 658 499 l 658 0 l 439 0 l 439 88 l 436 88 q 402 58 422 75 q 355 24 382 40 q 292 -2 328 8 q 214 -12 257 -12 q 142 1 176 -12 q 83 40 108 14 q 44 106 58 67 q 29 196 29 144 m 440 299 l 354 299 q 285 281 310 299 q 261 226 261 263 q 276 181 261 199 q 325 164 290 164 q 391 186 363 164 q 440 236 419 208 l 440 299 m 449 1001 l 618 799 l 464 799 l 369 896 l 276 799 l 121 799 l 290 1001 l 449 1001 z "},"ã":{"ha":724,"x_min":29,"x_max":658,"o":"m 29 196 q 54 305 29 261 q 119 374 79 349 q 210 410 160 400 q 313 421 261 421 l 433 421 l 433 426 q 408 499 433 472 q 324 526 382 526 q 230 509 275 526 q 144 464 185 492 l 78 601 q 213 667 136 642 q 372 693 290 693 q 478 679 426 693 q 569 633 529 665 q 634 550 610 601 q 658 422 658 499 l 658 0 l 439 0 l 439 88 l 436 88 q 402 58 422 75 q 355 24 382 40 q 292 -2 328 8 q 214 -12 257 -12 q 142 1 176 -12 q 83 40 108 14 q 44 106 58 67 q 29 196 29 144 m 440 299 l 354 299 q 285 281 310 299 q 261 226 261 263 q 276 181 261 199 q 325 164 290 164 q 391 186 363 164 q 440 236 419 208 l 440 299 m 357 824 q 321 843 338 835 q 290 851 304 851 q 266 843 279 851 q 249 799 253 835 l 146 799 q 153 869 146 836 q 178 928 161 903 q 219 969 194 954 q 281 985 244 985 q 328 976 307 985 q 385 949 349 968 q 425 928 407 938 q 453 919 443 919 q 475 926 463 919 q 493 972 488 933 l 593 972 q 560 834 593 881 q 469 788 526 788 q 444 789 456 788 q 422 794 433 790 q 394 806 410 799 q 357 824 379 813 z "},"ä":{"ha":724,"x_min":29,"x_max":658,"o":"m 29 196 q 54 305 29 261 q 119 374 79 349 q 210 410 160 400 q 313 421 261 421 l 433 421 l 433 426 q 408 499 433 472 q 324 526 382 526 q 230 509 275 526 q 144 464 185 492 l 78 601 q 213 667 136 642 q 372 693 290 693 q 478 679 426 693 q 569 633 529 665 q 634 550 610 601 q 658 422 658 499 l 658 0 l 439 0 l 439 88 l 436 88 q 402 58 422 75 q 355 24 382 40 q 292 -2 328 8 q 214 -12 257 -12 q 142 1 176 -12 q 83 40 108 14 q 44 106 58 67 q 29 196 29 144 m 440 299 l 354 299 q 285 281 310 299 q 261 226 261 263 q 276 181 261 199 q 325 164 290 164 q 391 186 363 164 q 440 236 419 208 l 440 299 m 319 979 l 319 801 l 153 801 l 153 979 l 319 979 m 586 979 l 586 801 l 419 801 l 419 979 l 586 979 z "},"å":{"ha":724,"x_min":29,"x_max":658,"o":"m 29 196 q 54 305 29 261 q 119 374 79 349 q 210 410 160 400 q 313 421 261 421 l 433 421 l 433 426 q 408 499 433 472 q 324 526 382 526 q 230 509 275 526 q 144 464 185 492 l 78 601 q 213 667 136 642 q 372 693 290 693 q 478 679 426 693 q 569 633 529 665 q 634 550 610 601 q 658 422 658 499 l 658 0 l 439 0 l 439 88 l 436 88 q 402 58 422 75 q 355 24 382 40 q 292 -2 328 8 q 214 -12 257 -12 q 142 1 176 -12 q 83 40 108 14 q 44 106 58 67 q 29 196 29 144 m 440 299 l 354 299 q 285 281 310 299 q 261 226 261 263 q 276 181 261 199 q 325 164 290 164 q 391 186 363 164 q 440 236 419 208 l 440 299 m 208 953 q 220 1019 208 988 q 253 1072 232 1050 q 305 1108 275 1094 q 371 1121 335 1121 q 435 1108 406 1121 q 487 1072 465 1094 q 520 1019 508 1050 q 532 953 532 988 q 520 886 532 917 q 487 833 508 856 q 435 797 465 810 q 371 783 406 783 q 253 832 299 783 q 208 953 208 881 m 432 953 q 415 1001 432 981 q 371 1021 399 1021 q 326 1001 343 1021 q 310 953 310 981 q 326 904 310 925 q 371 883 343 883 q 415 904 399 883 q 432 953 432 925 z "},"æ":{"ha":1113,"x_min":29,"x_max":1079,"o":"m 29 196 q 51 299 29 256 q 110 369 74 342 q 197 408 147 396 q 300 421 246 421 l 433 421 l 433 426 q 408 499 433 472 q 324 526 382 526 q 228 509 272 526 q 144 464 185 492 l 78 601 q 211 668 138 643 q 364 693 285 693 q 479 674 426 693 q 572 615 532 654 q 779 693 658 693 q 918 666 861 693 q 1011 594 975 639 q 1063 488 1047 549 q 1079 361 1079 428 l 1079 299 l 667 299 q 677 249 668 274 q 704 204 686 224 q 750 172 722 185 q 815 160 778 160 q 906 178 867 160 q 983 231 946 196 l 1064 96 q 940 17 1007 47 q 790 -12 872 -12 q 634 16 706 -12 q 515 113 563 44 q 439 51 475 75 q 369 13 403 28 q 305 -7 336 -1 q 240 -12 274 -12 q 86 44 143 -12 q 29 196 29 100 m 440 299 l 354 299 q 285 281 310 299 q 261 226 261 263 q 276 181 261 199 q 325 164 290 164 q 392 186 364 164 q 440 236 419 208 l 440 299 m 867 424 q 859 467 865 446 q 841 503 853 488 q 811 529 829 519 q 768 539 793 539 q 701 507 728 539 q 668 424 675 475 l 867 424 z "},"ç":{"ha":663,"x_min":33,"x_max":642,"o":"m 271 -207 q 316 -229 290 -222 q 365 -236 342 -236 q 421 -186 421 -236 q 399 -149 421 -158 q 351 -140 378 -140 q 321 -140 340 -140 q 286 -143 301 -140 l 308 -10 q 204 17 254 -4 q 116 81 154 39 q 56 186 78 122 q 33 339 33 250 q 58 490 33 424 q 128 601 83 556 q 233 669 172 646 q 367 693 294 693 q 471 683 426 693 q 548 656 515 672 q 602 622 581 640 q 636 588 624 603 l 532 456 q 472 498 504 479 q 394 517 440 517 q 295 468 329 517 q 261 340 261 419 q 294 210 261 256 q 399 164 328 164 q 480 182 446 164 q 549 232 514 200 l 642 108 q 553 36 607 71 q 414 -8 500 1 l 404 -60 q 515 -94 479 -60 q 550 -186 550 -129 q 536 -249 550 -222 q 498 -296 522 -276 q 441 -325 474 -315 q 371 -335 408 -335 q 292 -324 329 -335 q 231 -293 254 -312 l 271 -207 z "},"è":{"ha":706,"x_min":33,"x_max":674,"o":"m 33 336 q 58 489 33 422 q 127 601 82 556 q 234 669 172 646 q 371 693 296 693 q 515 665 457 693 q 609 591 574 638 q 659 485 644 544 q 674 361 674 425 l 674 299 l 261 299 q 272 249 263 274 q 299 204 281 224 q 344 172 317 185 q 410 160 372 160 q 499 176 461 160 q 578 231 538 193 l 658 96 q 534 17 600 46 q 385 -12 468 -12 q 252 3 315 -12 q 140 60 189 19 q 63 167 92 100 q 33 336 33 233 m 461 424 q 434 506 458 472 q 363 539 410 539 q 299 513 328 539 q 263 424 269 486 l 461 424 m 343 1007 l 443 799 l 299 799 l 133 1007 l 343 1007 z "},"é":{"ha":706,"x_min":33,"x_max":674,"o":"m 33 336 q 58 489 33 422 q 127 601 82 556 q 234 669 172 646 q 371 693 296 693 q 515 665 457 693 q 609 591 574 638 q 659 485 644 544 q 674 361 674 425 l 674 299 l 261 299 q 272 249 263 274 q 299 204 281 224 q 344 172 317 185 q 410 160 372 160 q 499 176 461 160 q 578 231 538 193 l 658 96 q 534 17 600 46 q 385 -12 468 -12 q 252 3 315 -12 q 140 60 189 19 q 63 167 92 100 q 33 336 33 233 m 461 424 q 434 506 458 472 q 363 539 410 539 q 299 513 328 539 q 263 424 269 486 l 461 424 m 592 1007 l 426 799 l 282 799 l 382 1007 l 592 1007 z "},"ê":{"ha":706,"x_min":33,"x_max":674,"o":"m 33 336 q 58 489 33 422 q 127 601 82 556 q 234 669 172 646 q 371 693 296 693 q 515 665 457 693 q 609 591 574 638 q 659 485 644 544 q 674 361 674 425 l 674 299 l 261 299 q 272 249 263 274 q 299 204 281 224 q 344 172 317 185 q 410 160 372 160 q 499 176 461 160 q 578 231 538 193 l 658 96 q 534 17 600 46 q 385 -12 468 -12 q 252 3 315 -12 q 140 60 189 19 q 63 167 92 100 q 33 336 33 233 m 461 424 q 434 506 458 472 q 363 539 410 539 q 299 513 328 539 q 263 424 269 486 l 461 424 m 449 1001 l 618 799 l 464 799 l 369 896 l 276 799 l 121 799 l 290 1001 l 449 1001 z "},"ë":{"ha":706,"x_min":33,"x_max":674,"o":"m 33 336 q 58 489 33 422 q 127 601 82 556 q 234 669 172 646 q 371 693 296 693 q 515 665 457 693 q 609 591 574 638 q 659 485 644 544 q 674 361 674 425 l 674 299 l 261 299 q 272 249 263 274 q 299 204 281 224 q 344 172 317 185 q 410 160 372 160 q 499 176 461 160 q 578 231 538 193 l 658 96 q 534 17 600 46 q 385 -12 468 -12 q 252 3 315 -12 q 140 60 189 19 q 63 167 92 100 q 33 336 33 233 m 461 424 q 434 506 458 472 q 363 539 410 539 q 299 513 328 539 q 263 424 269 486 l 461 424 m 318 979 l 318 801 l 151 801 l 151 979 l 318 979 m 585 979 l 585 801 l 418 801 l 418 979 l 585 979 z "},"ì":{"ha":358,"x_min":-40,"x_max":292,"o":"m 292 681 l 292 0 l 67 0 l 67 681 l 292 681 m 169 1007 l 269 799 l 125 799 l -40 1007 l 169 1007 z "},"í":{"ha":358,"x_min":67,"x_max":418,"o":"m 292 681 l 292 0 l 67 0 l 67 681 l 292 681 m 418 1007 l 253 799 l 108 799 l 208 1007 l 418 1007 z "},"î":{"ha":358,"x_min":-68,"x_max":429,"o":"m 292 681 l 292 0 l 67 0 l 67 681 l 292 681 m 260 1001 l 429 799 l 275 799 l 181 896 l 88 799 l -68 799 l 101 1001 l 260 1001 z "},"ï":{"ha":358,"x_min":-36,"x_max":397,"o":"m 292 681 l 292 0 l 67 0 l 67 681 l 292 681 m 131 979 l 131 801 l -36 801 l -36 979 l 131 979 m 397 979 l 397 801 l 231 801 l 231 979 l 397 979 z "},"ð":{"ha":760,"x_min":32,"x_max":729,"o":"m 32 318 q 52 458 32 394 q 110 567 72 521 q 204 638 149 613 q 331 663 260 663 q 526 539 469 663 l 536 539 q 494 701 525 631 q 396 815 463 771 l 285 711 l 218 789 l 297 864 q 221 882 258 879 q 144 888 183 885 l 158 1042 q 297 1030 231 1040 q 428 990 364 1019 l 544 1099 l 611 1021 l 521 938 q 676 744 624 863 q 729 449 729 625 q 711 281 729 364 q 649 133 693 199 q 534 28 606 68 q 357 -12 463 -12 q 226 11 286 -12 q 124 78 167 35 q 56 182 81 121 q 32 318 32 243 m 490 333 q 461 445 490 400 q 372 490 432 490 q 287 443 313 490 q 261 321 261 396 q 267 256 261 286 q 288 203 274 226 q 323 167 301 181 q 375 154 344 154 q 432 170 410 154 q 467 212 454 186 q 485 269 481 238 q 490 333 490 301 z "},"ñ":{"ha":764,"x_min":65,"x_max":699,"o":"m 285 681 l 285 583 l 288 583 q 335 624 310 604 q 388 658 360 643 q 449 683 417 674 q 519 693 482 693 q 649 636 599 693 q 699 467 699 579 l 699 0 l 474 0 l 474 389 q 461 462 474 432 q 410 492 449 492 q 345 471 378 492 q 290 425 313 450 l 290 0 l 65 0 l 65 681 l 285 681 m 376 824 q 340 843 357 835 q 310 851 324 851 q 285 843 299 851 q 268 799 272 835 l 165 799 q 173 869 165 836 q 197 928 181 903 q 239 969 214 954 q 300 985 264 985 q 347 976 326 985 q 404 949 368 968 q 444 928 426 938 q 472 919 463 919 q 494 926 482 919 q 513 972 507 933 l 613 972 q 579 834 613 881 q 489 788 546 788 q 464 789 475 788 q 441 794 453 790 q 414 806 429 799 q 376 824 399 813 z "},"ò":{"ha":747,"x_min":33,"x_max":715,"o":"m 33 339 q 58 494 33 428 q 126 605 82 561 q 234 671 171 649 q 375 693 297 693 q 516 671 453 693 q 624 605 579 649 q 692 494 668 561 q 715 339 715 428 q 691 184 715 250 q 622 74 667 118 q 515 9 578 31 q 374 -12 451 -12 q 233 9 296 -12 q 125 74 169 31 q 57 184 81 118 q 33 339 33 250 m 486 339 q 460 477 486 428 q 375 526 433 526 q 289 477 317 526 q 261 339 261 428 q 288 203 261 251 q 374 154 315 154 q 459 203 432 154 q 486 339 486 251 m 363 1007 l 463 799 l 318 799 l 153 1007 l 363 1007 z "},"ó":{"ha":747,"x_min":33,"x_max":715,"o":"m 33 339 q 58 494 33 428 q 126 605 82 561 q 234 671 171 649 q 375 693 297 693 q 516 671 453 693 q 624 605 579 649 q 692 494 668 561 q 715 339 715 428 q 691 184 715 250 q 622 74 667 118 q 515 9 578 31 q 374 -12 451 -12 q 233 9 296 -12 q 125 74 169 31 q 57 184 81 118 q 33 339 33 250 m 486 339 q 460 477 486 428 q 375 526 433 526 q 289 477 317 526 q 261 339 261 428 q 288 203 261 251 q 374 154 315 154 q 459 203 432 154 q 486 339 486 251 m 613 1007 l 447 799 l 303 799 l 403 1007 l 613 1007 z "},"ô":{"ha":747,"x_min":33,"x_max":715,"o":"m 33 339 q 58 494 33 428 q 126 605 82 561 q 234 671 171 649 q 375 693 297 693 q 516 671 453 693 q 624 605 579 649 q 692 494 668 561 q 715 339 715 428 q 691 184 715 250 q 622 74 667 118 q 515 9 578 31 q 374 -12 451 -12 q 233 9 296 -12 q 125 74 169 31 q 57 184 81 118 q 33 339 33 250 m 486 339 q 460 477 486 428 q 375 526 433 526 q 289 477 317 526 q 261 339 261 428 q 288 203 261 251 q 374 154 315 154 q 459 203 432 154 q 486 339 486 251 m 454 1001 l 624 799 l 469 799 l 375 896 l 282 799 l 126 799 l 296 1001 l 454 1001 z "},"õ":{"ha":747,"x_min":33,"x_max":715,"o":"m 33 339 q 58 494 33 428 q 126 605 82 561 q 234 671 171 649 q 375 693 297 693 q 516 671 453 693 q 624 605 579 649 q 692 494 668 561 q 715 339 715 428 q 691 184 715 250 q 622 74 667 118 q 515 9 578 31 q 374 -12 451 -12 q 233 9 296 -12 q 125 74 169 31 q 57 184 81 118 q 33 339 33 250 m 486 339 q 460 477 486 428 q 375 526 433 526 q 289 477 317 526 q 261 339 261 428 q 288 203 261 251 q 374 154 315 154 q 459 203 432 154 q 486 339 486 251 m 361 824 q 325 843 342 835 q 294 851 308 851 q 270 843 283 851 q 253 799 257 835 l 150 799 q 158 869 150 836 q 182 928 165 903 q 224 969 199 954 q 285 985 249 985 q 332 976 311 985 q 389 949 353 968 q 429 928 411 938 q 457 919 447 919 q 479 926 467 919 q 497 972 492 933 l 597 972 q 564 834 597 881 q 474 788 531 788 q 449 789 460 788 q 426 794 438 790 q 399 806 414 799 q 361 824 383 813 z "},"ö":{"ha":747,"x_min":33,"x_max":715,"o":"m 33 339 q 58 494 33 428 q 126 605 82 561 q 234 671 171 649 q 375 693 297 693 q 516 671 453 693 q 624 605 579 649 q 692 494 668 561 q 715 339 715 428 q 691 184 715 250 q 622 74 667 118 q 515 9 578 31 q 374 -12 451 -12 q 233 9 296 -12 q 125 74 169 31 q 57 184 81 118 q 33 339 33 250 m 486 339 q 460 477 486 428 q 375 526 433 526 q 289 477 317 526 q 261 339 261 428 q 288 203 261 251 q 374 154 315 154 q 459 203 432 154 q 486 339 486 251 m 324 979 l 324 801 l 157 801 l 157 979 l 324 979 m 590 979 l 590 801 l 424 801 l 424 979 l 590 979 z "},"÷":{"ha":824,"x_min":88,"x_max":735,"o":"m 294 210 q 328 294 294 260 q 411 329 363 329 q 495 294 461 329 q 529 210 529 260 q 495 123 529 160 q 411 86 461 86 q 365 96 386 86 q 328 123 344 106 q 303 163 313 140 q 294 210 294 185 m 294 756 q 328 841 294 806 q 411 876 363 876 q 495 841 461 876 q 529 756 529 806 q 520 710 529 732 q 495 673 511 689 q 458 647 479 657 q 411 638 436 638 q 365 647 386 638 q 328 673 344 657 q 303 710 313 689 q 294 756 294 732 m 735 563 l 735 404 l 88 404 l 88 563 l 735 563 z "},"ø":{"ha":747,"x_min":33,"x_max":715,"o":"m 147 54 q 63 169 92 99 q 33 339 33 239 q 58 494 33 428 q 126 605 82 561 q 234 671 171 649 q 375 693 297 693 q 500 676 443 693 l 567 794 l 656 743 l 592 633 q 683 516 651 589 q 715 339 715 443 q 691 184 715 250 q 622 74 667 118 q 515 9 578 31 q 374 -12 451 -12 q 235 8 297 -12 l 176 -96 l 90 -44 l 147 54 m 488 339 q 476 431 488 390 l 325 165 q 374 153 346 153 q 460 202 432 153 q 488 339 488 251 m 411 521 q 375 528 393 528 q 288 478 317 528 q 260 339 260 428 q 262 301 260 319 q 268 268 264 283 l 411 521 z "},"ù":{"ha":764,"x_min":65,"x_max":699,"o":"m 65 681 l 290 681 l 290 278 q 304 215 290 242 q 354 189 318 189 q 418 210 386 189 q 474 257 450 231 l 474 681 l 699 681 l 699 0 l 479 0 l 479 99 l 476 99 q 428 58 453 78 q 374 22 403 38 q 314 -3 346 7 q 244 -12 282 -12 q 116 39 167 -12 q 65 197 65 90 l 65 681 m 372 1007 l 472 799 l 328 799 l 163 1007 l 372 1007 z "},"ú":{"ha":764,"x_min":65,"x_max":699,"o":"m 65 681 l 290 681 l 290 278 q 304 215 290 242 q 354 189 318 189 q 418 210 386 189 q 474 257 450 231 l 474 681 l 699 681 l 699 0 l 479 0 l 479 99 l 476 99 q 428 58 453 78 q 374 22 403 38 q 314 -3 346 7 q 244 -12 282 -12 q 116 39 167 -12 q 65 197 65 90 l 65 681 m 621 1007 l 456 799 l 311 799 l 411 1007 l 621 1007 z "},"û":{"ha":764,"x_min":65,"x_max":699,"o":"m 65 681 l 290 681 l 290 278 q 304 215 290 242 q 354 189 318 189 q 418 210 386 189 q 474 257 450 231 l 474 681 l 699 681 l 699 0 l 479 0 l 479 99 l 476 99 q 428 58 453 78 q 374 22 403 38 q 314 -3 346 7 q 244 -12 282 -12 q 116 39 167 -12 q 65 197 65 90 l 65 681 m 463 1001 l 632 799 l 478 799 l 383 896 l 290 799 l 135 799 l 304 1001 l 463 1001 z "},"ü":{"ha":764,"x_min":65,"x_max":699,"o":"m 65 681 l 290 681 l 290 278 q 304 215 290 242 q 354 189 318 189 q 418 210 386 189 q 474 257 450 231 l 474 681 l 699 681 l 699 0 l 479 0 l 479 99 l 476 99 q 428 58 453 78 q 374 22 403 38 q 314 -3 346 7 q 244 -12 282 -12 q 116 39 167 -12 q 65 197 65 90 l 65 681 m 333 979 l 333 801 l 167 801 l 167 979 l 333 979 m 600 979 l 600 801 l 433 801 l 433 979 l 600 979 z "},"ý":{"ha":707,"x_min":-1,"x_max":707,"o":"m 63 -183 q 117 -187 89 -187 q 155 -182 135 -187 q 194 -162 175 -176 q 228 -124 213 -147 q 254 -64 244 -100 l 269 -11 l -1 681 l 243 681 l 343 346 q 356 295 350 325 q 365 238 363 265 l 372 238 q 381 292 375 258 q 393 347 388 326 l 479 681 l 707 681 l 446 -110 q 326 -297 406 -233 q 139 -360 247 -360 q 88 -356 113 -360 q 44 -344 63 -351 l 63 -183 m 592 1007 l 426 799 l 282 799 l 382 1007 l 592 1007 z "},"þ":{"ha":756,"x_min":65,"x_max":721,"o":"m 290 1028 l 290 592 l 293 592 q 327 623 307 606 q 373 656 347 640 q 429 683 399 672 q 494 693 460 693 q 595 669 553 693 q 665 600 638 644 q 707 494 693 556 q 721 358 721 432 q 704 216 721 283 q 654 98 688 149 q 572 17 621 47 q 457 -12 522 -12 q 400 -6 425 -12 q 354 10 375 0 q 318 29 333 19 q 290 47 303 39 l 289 47 q 290 5 289 31 q 290 -32 290 -21 l 290 -347 l 65 -347 l 65 1028 l 290 1028 m 493 343 q 488 406 493 376 q 473 458 483 436 q 445 492 463 479 q 401 506 428 506 q 367 498 383 506 q 335 478 350 490 q 307 453 319 467 q 286 429 294 440 l 286 207 q 332 172 307 188 q 389 156 357 156 q 470 209 447 156 q 493 343 493 263 z "},"ÿ":{"ha":707,"x_min":-1,"x_max":707,"o":"m 63 -183 q 117 -187 89 -187 q 155 -182 135 -187 q 194 -162 175 -176 q 228 -124 213 -147 q 254 -64 244 -100 l 269 -11 l -1 681 l 243 681 l 343 346 q 356 295 350 325 q 365 238 363 265 l 372 238 q 381 292 375 258 q 393 347 388 326 l 479 681 l 707 681 l 446 -110 q 326 -297 406 -233 q 139 -360 247 -360 q 88 -356 113 -360 q 44 -344 63 -351 l 63 -183 m 304 979 l 304 801 l 138 801 l 138 979 l 304 979 m 571 979 l 571 801 l 404 801 l 404 979 l 571 979 z "},"Ā":{"ha":918,"x_min":11,"x_max":908,"o":"m 483 635 q 469 689 476 657 q 458 749 463 721 l 447 749 q 433 690 440 722 q 419 636 425 658 l 361 418 l 538 418 l 483 635 m 583 972 l 908 0 l 665 0 l 592 217 l 310 217 l 242 0 l 11 0 l 333 972 l 583 972 m 671 1239 l 671 1094 l 250 1094 l 250 1239 l 671 1239 z "},"ā":{"ha":724,"x_min":29,"x_max":658,"o":"m 29 196 q 54 305 29 261 q 119 374 79 349 q 210 410 160 400 q 313 421 261 421 l 433 421 l 433 426 q 408 499 433 472 q 324 526 382 526 q 230 509 275 526 q 144 464 185 492 l 78 601 q 213 667 136 642 q 372 693 290 693 q 478 679 426 693 q 569 633 529 665 q 634 550 610 601 q 658 422 658 499 l 658 0 l 439 0 l 439 88 l 436 88 q 402 58 422 75 q 355 24 382 40 q 292 -2 328 8 q 214 -12 257 -12 q 142 1 176 -12 q 83 40 108 14 q 44 106 58 67 q 29 196 29 144 m 440 299 l 354 299 q 285 281 310 299 q 261 226 261 263 q 276 181 261 199 q 325 164 290 164 q 391 186 363 164 q 440 236 419 208 l 440 299 m 565 951 l 565 813 l 181 813 l 181 951 l 565 951 z "},"Ă":{"ha":918,"x_min":11,"x_max":908,"o":"m 483 635 q 469 689 476 657 q 458 749 463 721 l 447 749 q 433 690 440 722 q 419 636 425 658 l 361 418 l 538 418 l 483 635 m 583 972 l 908 0 l 665 0 l 592 217 l 310 217 l 242 0 l 11 0 l 333 972 l 583 972 m 358 1297 q 391 1224 367 1256 q 460 1193 415 1193 q 530 1224 507 1193 q 563 1296 553 1254 l 711 1286 q 690 1196 707 1238 q 642 1124 674 1154 q 566 1076 611 1093 q 460 1060 521 1060 q 353 1077 399 1060 q 278 1125 308 1094 q 231 1197 247 1156 q 210 1288 214 1239 l 358 1297 z "},"ă":{"ha":724,"x_min":29,"x_max":658,"o":"m 29 196 q 54 305 29 261 q 119 374 79 349 q 210 410 160 400 q 313 421 261 421 l 433 421 l 433 426 q 408 499 433 472 q 324 526 382 526 q 230 509 275 526 q 144 464 185 492 l 78 601 q 213 667 136 642 q 372 693 290 693 q 478 679 426 693 q 569 633 529 665 q 634 550 610 601 q 658 422 658 499 l 658 0 l 439 0 l 439 88 l 436 88 q 402 58 422 75 q 355 24 382 40 q 292 -2 328 8 q 214 -12 257 -12 q 142 1 176 -12 q 83 40 108 14 q 44 106 58 67 q 29 196 29 144 m 440 299 l 354 299 q 285 281 310 299 q 261 226 261 263 q 276 181 261 199 q 325 164 290 164 q 391 186 363 164 q 440 236 419 208 l 440 299 m 286 1001 q 314 944 293 965 q 374 922 335 922 q 435 943 414 922 q 464 1000 456 964 l 594 994 q 576 916 590 953 q 534 852 561 879 q 467 810 507 825 q 374 794 426 794 q 281 810 321 794 q 215 852 242 825 q 172 916 188 879 q 154 994 157 953 l 286 1001 z "},"Ą":{"ha":918,"x_min":11,"x_max":908,"o":"m 578 -189 q 606 -87 578 -136 q 689 0 633 -39 l 665 0 l 592 217 l 310 217 l 242 0 l 11 0 l 333 972 l 583 972 l 908 0 l 808 0 q 735 -72 760 -32 q 711 -156 711 -112 q 728 -206 711 -186 q 779 -226 746 -226 q 815 -222 797 -226 q 857 -203 832 -218 l 896 -290 q 815 -331 858 -324 q 743 -339 772 -339 q 619 -294 661 -339 q 578 -189 578 -250 m 483 635 q 471 689 478 657 q 458 749 464 721 l 447 749 q 433 690 440 722 q 419 636 426 658 l 361 418 l 538 418 l 483 635 z "},"ą":{"ha":722,"x_min":29,"x_max":658,"o":"m 347 -181 q 375 -82 347 -128 q 456 0 403 -36 l 439 0 l 439 88 l 436 88 q 402 58 422 75 q 355 24 382 40 q 292 -2 328 8 q 214 -12 257 -12 q 142 1 176 -12 q 83 40 108 14 q 44 106 58 67 q 29 196 29 144 q 54 305 29 261 q 119 374 79 349 q 210 410 160 400 q 313 421 261 421 l 433 421 l 433 426 q 408 499 433 472 q 324 526 382 526 q 230 509 275 526 q 144 464 185 492 l 78 601 q 213 667 136 642 q 372 693 290 693 q 478 679 426 693 q 569 633 529 665 q 634 550 610 601 q 658 422 658 499 l 658 0 l 572 0 q 498 -65 524 -29 q 472 -149 472 -101 q 490 -196 472 -176 q 538 -215 507 -215 q 572 -210 554 -215 q 613 -192 589 -206 l 649 -272 q 574 -312 613 -304 q 507 -319 535 -319 q 388 -279 428 -319 q 347 -181 347 -239 m 440 299 l 354 299 q 285 281 310 299 q 261 226 261 263 q 276 181 261 199 q 325 164 290 164 q 391 186 363 164 q 440 236 419 208 l 440 299 z "},"Ć":{"ha":829,"x_min":42,"x_max":797,"o":"m 42 481 q 69 689 42 596 q 151 848 97 782 q 285 949 206 914 q 467 985 364 985 q 578 973 529 985 q 664 941 626 961 q 731 894 701 921 q 786 836 761 867 l 665 686 q 627 724 646 706 q 586 755 608 742 q 538 776 564 768 q 478 785 511 785 q 388 760 425 785 q 327 694 351 736 q 292 597 303 653 q 281 481 281 542 q 335 260 281 335 q 481 186 389 186 q 594 215 547 186 q 685 293 640 244 l 797 149 q 657 33 743 79 q 467 -12 571 -12 q 153 107 264 -12 q 42 481 42 226 m 696 1306 l 514 1067 l 365 1067 l 476 1306 l 696 1306 z "},"ć":{"ha":663,"x_min":33,"x_max":642,"o":"m 33 339 q 58 490 33 424 q 128 601 83 556 q 233 669 172 646 q 367 693 294 693 q 471 683 426 693 q 548 656 515 672 q 602 622 581 640 q 636 588 624 603 l 532 456 q 472 498 504 479 q 394 517 440 517 q 295 468 329 517 q 261 340 261 419 q 294 210 261 256 q 399 164 328 164 q 480 182 446 164 q 549 232 514 200 l 642 108 q 597 66 622 88 q 537 27 571 44 q 459 -1 503 10 q 361 -12 415 -12 q 240 6 299 -12 q 135 65 181 24 q 61 174 89 107 q 33 339 33 240 m 578 1007 l 413 799 l 268 799 l 368 1007 l 578 1007 z "},"Ĉ":{"ha":829,"x_min":42,"x_max":797,"o":"m 42 481 q 69 689 42 596 q 151 848 97 782 q 285 949 206 914 q 467 985 364 985 q 578 973 529 985 q 664 941 626 961 q 731 894 701 921 q 786 836 761 867 l 665 686 q 627 724 646 706 q 586 755 608 742 q 538 776 564 768 q 478 785 511 785 q 388 760 425 785 q 327 694 351 736 q 292 597 303 653 q 281 481 281 542 q 335 260 281 335 q 481 186 389 186 q 594 215 547 186 q 685 293 640 244 l 797 149 q 657 33 743 79 q 467 -12 571 -12 q 153 107 264 -12 q 42 481 42 226 m 554 1301 l 738 1065 l 575 1065 l 474 1183 l 372 1065 l 210 1065 l 392 1301 l 554 1301 z "},"ĉ":{"ha":663,"x_min":33,"x_max":642,"o":"m 33 339 q 58 490 33 424 q 128 601 83 556 q 233 669 172 646 q 367 693 294 693 q 471 683 426 693 q 548 656 515 672 q 602 622 581 640 q 636 588 624 603 l 532 456 q 472 498 504 479 q 394 517 440 517 q 295 468 329 517 q 261 340 261 419 q 294 210 261 256 q 399 164 328 164 q 480 182 446 164 q 549 232 514 200 l 642 108 q 597 66 622 88 q 537 27 571 44 q 459 -1 503 10 q 361 -12 415 -12 q 240 6 299 -12 q 135 65 181 24 q 61 174 89 107 q 33 339 33 240 m 451 1001 l 621 799 l 467 799 l 372 896 l 279 799 l 124 799 l 293 1001 l 451 1001 z "},"Ċ":{"ha":829,"x_min":42,"x_max":797,"o":"m 42 481 q 69 689 42 596 q 151 848 97 782 q 285 949 206 914 q 467 985 364 985 q 578 973 529 985 q 664 941 626 961 q 731 894 701 921 q 786 836 761 867 l 665 686 q 627 724 646 706 q 586 755 608 742 q 538 776 564 768 q 478 785 511 785 q 388 760 425 785 q 327 694 351 736 q 292 597 303 653 q 281 481 281 542 q 335 260 281 335 q 481 186 389 186 q 594 215 547 186 q 685 293 640 244 l 797 149 q 657 33 743 79 q 467 -12 571 -12 q 153 107 264 -12 q 42 481 42 226 m 557 1285 l 557 1086 l 368 1086 l 368 1285 l 557 1285 z "},"ċ":{"ha":663,"x_min":33,"x_max":642,"o":"m 33 339 q 58 490 33 424 q 128 601 83 556 q 233 669 172 646 q 367 693 294 693 q 471 683 426 693 q 548 656 515 672 q 602 622 581 640 q 636 588 624 603 l 532 456 q 472 498 504 479 q 394 517 440 517 q 295 468 329 517 q 261 340 261 419 q 294 210 261 256 q 399 164 328 164 q 480 182 446 164 q 549 232 514 200 l 642 108 q 597 66 622 88 q 537 27 571 44 q 459 -1 503 10 q 361 -12 415 -12 q 240 6 299 -12 q 135 65 181 24 q 61 174 89 107 q 33 339 33 240 m 463 981 l 463 804 l 274 804 l 274 981 l 463 981 z "},"Č":{"ha":829,"x_min":42,"x_max":797,"o":"m 42 481 q 69 689 42 596 q 151 848 97 782 q 285 949 206 914 q 467 985 364 985 q 578 973 529 985 q 664 941 626 961 q 731 894 701 921 q 786 836 761 867 l 665 686 q 627 724 646 706 q 586 755 608 742 q 538 776 564 768 q 478 785 511 785 q 388 760 425 785 q 327 694 351 736 q 292 597 303 653 q 281 481 281 542 q 335 260 281 335 q 481 186 389 186 q 594 215 547 186 q 685 293 640 244 l 797 149 q 657 33 743 79 q 467 -12 571 -12 q 153 107 264 -12 q 42 481 42 226 m 358 1301 l 460 1183 l 561 1301 l 724 1301 l 542 1065 l 379 1065 l 196 1301 l 358 1301 z "},"č":{"ha":663,"x_min":33,"x_max":642,"o":"m 33 339 q 58 490 33 424 q 128 601 83 556 q 233 669 172 646 q 367 693 294 693 q 471 683 426 693 q 548 656 515 672 q 602 622 581 640 q 636 588 624 603 l 532 456 q 472 498 504 479 q 394 517 440 517 q 295 468 329 517 q 261 340 261 419 q 294 210 261 256 q 399 164 328 164 q 480 182 446 164 q 549 232 514 200 l 642 108 q 597 66 622 88 q 537 27 571 44 q 459 -1 503 10 q 361 -12 415 -12 q 240 6 299 -12 q 135 65 181 24 q 61 174 89 107 q 33 339 33 240 m 268 1001 l 361 904 l 456 1001 l 610 1001 l 440 799 l 282 799 l 113 1001 l 268 1001 z "},"Ď":{"ha":871,"x_min":78,"x_max":831,"o":"m 388 972 q 556 952 476 972 q 697 878 636 932 q 794 730 758 824 q 831 489 831 636 q 793 270 831 363 q 692 118 756 178 q 547 29 629 58 q 376 0 465 0 l 78 0 l 78 972 l 388 972 m 363 199 q 533 272 475 199 q 592 486 592 346 q 579 622 592 567 q 540 710 567 676 q 471 759 513 744 q 372 774 429 774 l 311 774 l 311 199 l 363 199 m 281 1301 l 382 1183 l 483 1301 l 646 1301 l 464 1065 l 301 1065 l 118 1301 l 281 1301 z "},"ď":{"ha":949,"x_min":35,"x_max":964,"o":"m 35 331 q 49 468 35 403 q 96 583 64 533 q 178 663 128 633 q 299 693 228 693 q 356 687 331 693 q 402 672 382 681 q 438 652 422 663 q 465 632 453 642 l 467 632 q 466 675 467 647 q 465 714 465 703 l 465 1028 l 690 1028 l 690 0 l 472 0 l 472 92 l 469 92 q 433 60 454 78 q 387 26 413 42 q 330 -1 361 10 q 261 -12 299 -12 q 174 8 215 -12 q 102 72 133 29 q 53 178 71 114 q 35 331 35 243 m 469 472 q 424 508 449 492 q 367 525 399 525 q 288 471 314 525 q 263 333 263 417 q 285 220 263 265 q 356 175 308 175 q 422 200 392 175 q 469 250 451 225 l 469 472 m 964 972 l 881 635 l 768 635 l 768 972 l 964 972 z "},"Đ":{"ha":932,"x_min":18,"x_max":892,"o":"m 18 411 l 18 596 l 139 596 l 139 972 l 449 972 q 617 952 538 972 q 758 878 697 932 q 856 730 819 824 q 892 489 892 636 q 854 270 892 363 q 753 118 817 178 q 608 29 690 58 q 438 0 526 0 l 139 0 l 139 411 l 18 411 m 425 199 q 594 272 536 199 q 653 486 653 346 q 640 622 653 567 q 601 710 628 676 q 532 759 574 744 q 433 774 490 774 l 371 774 l 371 596 l 529 596 l 529 411 l 371 411 l 371 199 l 425 199 z "},"đ":{"ha":814,"x_min":35,"x_max":835,"o":"m 35 325 q 49 461 35 397 q 96 573 64 525 q 178 649 128 621 q 299 678 228 678 q 356 672 331 678 q 402 656 382 665 q 438 637 422 647 q 465 617 453 626 l 467 617 q 466 660 467 632 q 465 699 465 688 l 465 744 l 219 744 l 219 876 l 465 876 l 465 1028 l 690 1028 l 690 876 l 835 876 l 835 744 l 690 744 l 690 0 l 472 0 l 472 92 l 469 92 q 434 60 454 78 q 388 26 414 42 q 330 -1 361 10 q 261 -12 299 -12 q 174 8 215 -12 q 102 69 133 28 q 53 174 71 110 q 35 325 35 238 m 469 457 q 424 493 449 476 q 367 510 399 510 q 288 460 314 510 q 263 328 263 411 q 285 217 263 260 q 356 175 308 175 q 422 200 392 175 q 469 250 451 225 l 469 457 z "},"Ē":{"ha":708,"x_min":78,"x_max":675,"o":"m 675 972 l 675 771 l 313 771 l 313 593 l 600 593 l 600 394 l 313 394 l 313 201 l 675 201 l 675 0 l 78 0 l 78 972 l 675 972 m 579 1239 l 579 1094 l 158 1094 l 158 1239 l 579 1239 z "},"ē":{"ha":706,"x_min":33,"x_max":674,"o":"m 33 336 q 58 489 33 422 q 127 601 82 556 q 234 669 172 646 q 371 693 296 693 q 515 665 457 693 q 609 591 574 638 q 659 485 644 544 q 674 361 674 425 l 674 299 l 261 299 q 272 249 263 274 q 299 204 281 224 q 344 172 317 185 q 410 160 372 160 q 499 176 461 160 q 578 231 538 193 l 658 96 q 534 17 600 46 q 385 -12 468 -12 q 252 3 315 -12 q 140 60 189 19 q 63 167 92 100 q 33 336 33 233 m 461 424 q 434 506 458 472 q 363 539 410 539 q 299 513 328 539 q 263 424 269 486 l 461 424 m 564 951 l 564 813 l 179 813 l 179 951 l 564 951 z "},"Ė":{"ha":708,"x_min":78,"x_max":675,"o":"m 675 972 l 675 771 l 313 771 l 313 593 l 600 593 l 600 394 l 313 394 l 313 201 l 675 201 l 675 0 l 78 0 l 78 972 l 675 972 m 467 1285 l 467 1086 l 278 1086 l 278 1285 l 467 1285 z "},"ė":{"ha":706,"x_min":33,"x_max":674,"o":"m 33 336 q 58 489 33 422 q 127 601 82 556 q 234 669 172 646 q 371 693 296 693 q 515 665 457 693 q 609 591 574 638 q 659 485 644 544 q 674 361 674 425 l 674 299 l 261 299 q 272 249 263 274 q 299 204 281 224 q 344 172 317 185 q 410 160 372 160 q 499 176 461 160 q 578 231 538 193 l 658 96 q 534 17 600 46 q 385 -12 468 -12 q 252 3 315 -12 q 140 60 189 19 q 63 167 92 100 q 33 336 33 233 m 461 424 q 434 506 458 472 q 363 539 410 539 q 299 513 328 539 q 263 424 269 486 l 461 424 m 467 981 l 467 804 l 278 804 l 278 981 l 467 981 z "},"Ę":{"ha":708,"x_min":78,"x_max":675,"o":"m 357 -189 q 385 -87 357 -136 q 468 0 413 -39 l 78 0 l 78 972 l 675 972 l 675 771 l 313 771 l 313 593 l 600 593 l 600 394 l 313 394 l 313 201 l 675 201 l 675 0 l 588 0 q 515 -72 539 -32 q 490 -156 490 -112 q 508 -206 490 -186 q 558 -226 525 -226 q 594 -222 576 -226 q 636 -203 611 -218 l 675 -290 q 594 -331 638 -324 q 522 -339 551 -339 q 399 -294 440 -339 q 357 -189 357 -250 z "},"ę":{"ha":706,"x_min":33,"x_max":674,"o":"m 282 -181 q 374 -12 282 -83 l 372 -12 q 243 6 304 -11 q 135 63 182 22 q 61 169 89 103 q 33 336 33 236 q 58 489 33 422 q 127 601 82 556 q 234 669 172 646 q 371 693 296 693 q 515 665 457 693 q 609 591 574 638 q 659 485 644 544 q 674 361 674 425 l 674 299 l 261 299 q 272 249 263 274 q 299 204 281 224 q 344 172 317 185 q 410 160 372 160 q 499 176 461 160 q 578 231 538 193 l 658 96 q 598 51 629 71 q 532 17 567 31 q 440 -56 472 -15 q 407 -149 407 -96 q 424 -196 407 -176 q 472 -215 442 -215 q 506 -210 489 -215 q 547 -192 524 -206 l 585 -272 q 509 -312 549 -304 q 442 -319 469 -319 q 322 -279 363 -319 q 282 -181 282 -239 m 461 424 q 434 506 458 472 q 363 539 410 539 q 299 513 328 539 q 263 424 269 486 l 461 424 z "},"Ě":{"ha":708,"x_min":78,"x_max":675,"o":"m 675 972 l 675 771 l 313 771 l 313 593 l 600 593 l 600 394 l 313 394 l 313 201 l 675 201 l 675 0 l 78 0 l 78 972 l 675 972 m 271 1301 l 372 1183 l 474 1301 l 636 1301 l 454 1065 l 292 1065 l 108 1301 l 271 1301 z "},"ě":{"ha":706,"x_min":33,"x_max":674,"o":"m 33 336 q 58 489 33 422 q 127 601 82 556 q 234 669 172 646 q 371 693 296 693 q 515 665 457 693 q 609 591 574 638 q 659 485 644 544 q 674 361 674 425 l 674 299 l 261 299 q 272 249 263 274 q 299 204 281 224 q 344 172 317 185 q 410 160 372 160 q 499 176 461 160 q 578 231 538 193 l 658 96 q 534 17 600 46 q 385 -12 468 -12 q 252 3 315 -12 q 140 60 189 19 q 63 167 92 100 q 33 336 33 233 m 461 424 q 434 506 458 472 q 363 539 410 539 q 299 513 328 539 q 263 424 269 486 l 461 424 m 276 1001 l 369 904 l 464 1001 l 618 1001 l 449 799 l 290 799 l 121 1001 l 276 1001 z "},"Ĝ":{"ha":894,"x_min":42,"x_max":831,"o":"m 42 481 q 75 701 42 607 q 167 859 108 796 q 306 953 226 922 q 479 985 386 985 q 601 973 550 985 q 691 942 653 961 q 758 895 729 922 q 815 839 788 868 l 690 685 q 592 761 642 738 q 486 785 543 785 q 385 755 425 785 q 323 680 346 725 q 290 581 300 635 q 281 481 281 528 q 300 336 281 393 q 351 246 319 279 q 420 199 382 213 q 497 186 458 186 q 560 196 531 186 q 613 226 590 206 l 613 363 l 451 363 l 451 543 l 831 543 l 831 115 q 760 65 799 89 q 677 24 721 42 q 587 -3 633 7 q 494 -12 540 -12 q 317 13 400 -12 q 174 95 235 38 q 77 247 113 153 q 42 481 42 342 m 563 1301 l 746 1065 l 583 1065 l 482 1183 l 381 1065 l 218 1065 l 400 1301 l 563 1301 z "},"ĝ":{"ha":756,"x_min":35,"x_max":690,"o":"m 150 -117 q 222 -165 183 -146 q 313 -185 260 -185 q 423 -141 381 -185 q 465 -12 465 -97 l 465 6 q 466 44 465 21 q 467 89 467 68 l 465 89 q 431 58 450 75 q 385 24 411 40 q 329 -2 360 8 q 261 -12 299 -12 q 161 14 204 -12 q 90 86 118 40 q 49 194 63 132 q 35 328 35 256 q 50 467 35 401 q 97 583 65 533 q 178 663 129 633 q 297 693 228 693 q 388 677 338 693 q 483 611 439 661 l 486 611 l 501 681 l 690 681 l 690 14 q 663 -148 690 -78 q 588 -265 636 -218 q 474 -335 540 -311 q 326 -360 407 -360 q 179 -334 247 -360 q 63 -258 111 -308 l 150 -117 m 469 468 q 425 506 451 488 q 367 525 399 525 q 290 473 317 525 q 263 338 263 421 q 290 215 263 256 q 356 175 318 175 q 421 199 392 175 q 469 250 450 222 l 469 468 m 458 1001 l 628 799 l 474 799 l 379 896 l 286 799 l 131 799 l 300 1001 l 458 1001 z "},"Ğ":{"ha":894,"x_min":42,"x_max":831,"o":"m 42 481 q 75 701 42 607 q 167 859 108 796 q 306 953 226 922 q 479 985 386 985 q 601 973 550 985 q 691 942 653 961 q 758 895 729 922 q 815 839 788 868 l 690 685 q 592 761 642 738 q 486 785 543 785 q 385 755 425 785 q 323 680 346 725 q 290 581 300 635 q 281 481 281 528 q 300 336 281 393 q 351 246 319 279 q 420 199 382 213 q 497 186 458 186 q 560 196 531 186 q 613 226 590 206 l 613 363 l 451 363 l 451 543 l 831 543 l 831 115 q 760 65 799 89 q 677 24 721 42 q 587 -3 633 7 q 494 -12 540 -12 q 317 13 400 -12 q 174 95 235 38 q 77 247 113 153 q 42 481 42 342 m 372 1297 q 405 1224 381 1256 q 474 1193 429 1193 q 544 1224 521 1193 q 576 1296 567 1254 l 725 1286 q 704 1196 721 1238 q 656 1124 688 1154 q 580 1076 625 1093 q 474 1060 535 1060 q 367 1077 413 1060 q 292 1125 322 1094 q 244 1197 261 1156 q 224 1288 228 1239 l 372 1297 z "},"ğ":{"ha":756,"x_min":35,"x_max":690,"o":"m 150 -117 q 222 -165 183 -146 q 313 -185 260 -185 q 423 -141 381 -185 q 465 -12 465 -97 l 465 6 q 466 44 465 21 q 467 89 467 68 l 465 89 q 431 58 450 75 q 385 24 411 40 q 329 -2 360 8 q 261 -12 299 -12 q 161 14 204 -12 q 90 86 118 40 q 49 194 63 132 q 35 328 35 256 q 50 467 35 401 q 97 583 65 533 q 178 663 129 633 q 297 693 228 693 q 388 677 338 693 q 483 611 439 661 l 486 611 l 501 681 l 690 681 l 690 14 q 663 -148 690 -78 q 588 -265 636 -218 q 474 -335 540 -311 q 326 -360 407 -360 q 179 -334 247 -360 q 63 -258 111 -308 l 150 -117 m 469 468 q 425 506 451 488 q 367 525 399 525 q 290 473 317 525 q 263 338 263 421 q 290 215 263 256 q 356 175 318 175 q 421 199 392 175 q 469 250 450 222 l 469 468 m 258 1001 q 286 944 265 965 q 346 922 307 922 q 407 943 386 922 q 436 1000 428 964 l 567 994 q 548 916 563 953 q 506 852 533 879 q 439 810 479 825 q 346 794 399 794 q 253 810 293 794 q 187 852 214 825 q 144 916 160 879 q 126 994 129 953 l 258 1001 z "},"Ġ":{"ha":894,"x_min":42,"x_max":831,"o":"m 42 481 q 75 701 42 607 q 167 859 108 796 q 306 953 226 922 q 479 985 386 985 q 601 973 550 985 q 691 942 653 961 q 758 895 729 922 q 815 839 788 868 l 690 685 q 592 761 642 738 q 486 785 543 785 q 385 755 425 785 q 323 680 346 725 q 290 581 300 635 q 281 481 281 528 q 300 336 281 393 q 351 246 319 279 q 420 199 382 213 q 497 186 458 186 q 560 196 531 186 q 613 226 590 206 l 613 363 l 451 363 l 451 543 l 831 543 l 831 115 q 760 65 799 89 q 677 24 721 42 q 587 -3 633 7 q 494 -12 540 -12 q 317 13 400 -12 q 174 95 235 38 q 77 247 113 153 q 42 481 42 342 m 568 1285 l 568 1086 l 379 1086 l 379 1285 l 568 1285 z "},"ġ":{"ha":756,"x_min":35,"x_max":690,"o":"m 150 -117 q 222 -165 183 -146 q 313 -185 260 -185 q 423 -141 381 -185 q 465 -12 465 -97 l 465 6 q 466 44 465 21 q 467 89 467 68 l 465 89 q 431 58 450 75 q 385 24 411 40 q 329 -2 360 8 q 261 -12 299 -12 q 161 14 204 -12 q 90 86 118 40 q 49 194 63 132 q 35 328 35 256 q 50 467 35 401 q 97 583 65 533 q 178 663 129 633 q 297 693 228 693 q 388 677 338 693 q 483 611 439 661 l 486 611 l 501 681 l 690 681 l 690 14 q 663 -148 690 -78 q 588 -265 636 -218 q 474 -335 540 -311 q 326 -360 407 -360 q 179 -334 247 -360 q 63 -258 111 -308 l 150 -117 m 469 468 q 425 506 451 488 q 367 525 399 525 q 290 473 317 525 q 263 338 263 421 q 290 215 263 256 q 356 175 318 175 q 421 199 392 175 q 469 250 450 222 l 469 468 m 472 981 l 472 804 l 283 804 l 283 981 l 472 981 z "},"Ģ":{"ha":894,"x_min":42,"x_max":831,"o":"m 42 481 q 75 701 42 607 q 167 859 108 796 q 306 953 226 922 q 479 985 386 985 q 601 973 550 985 q 691 942 653 961 q 758 895 729 922 q 815 839 788 868 l 690 685 q 592 761 642 738 q 486 785 543 785 q 385 755 425 785 q 323 680 346 725 q 290 581 300 635 q 281 481 281 528 q 300 336 281 393 q 351 246 319 279 q 420 199 382 213 q 497 186 458 186 q 560 196 531 186 q 613 226 590 206 l 613 363 l 451 363 l 451 543 l 831 543 l 831 115 q 760 65 799 89 q 677 24 721 42 q 587 -3 633 7 q 494 -12 540 -12 q 317 13 400 -12 q 174 95 235 38 q 77 247 113 153 q 42 481 42 342 m 586 -90 l 503 -460 l 382 -460 l 382 -90 l 586 -90 z "},"ģ":{"ha":756,"x_min":35,"x_max":690,"o":"m 150 -117 q 222 -165 183 -146 q 313 -185 260 -185 q 423 -141 381 -185 q 465 -12 465 -97 l 465 6 q 466 44 465 21 q 467 89 467 68 l 465 89 q 431 58 450 75 q 385 24 411 40 q 329 -2 360 8 q 261 -12 299 -12 q 161 14 204 -12 q 90 86 118 40 q 49 194 63 132 q 35 328 35 256 q 50 467 35 401 q 97 583 65 533 q 178 663 129 633 q 297 693 228 693 q 388 677 338 693 q 483 611 439 661 l 486 611 l 501 681 l 690 681 l 690 14 q 663 -148 690 -78 q 588 -265 636 -218 q 474 -335 540 -311 q 326 -360 407 -360 q 179 -334 247 -360 q 63 -258 111 -308 l 150 -117 m 469 468 q 425 506 451 488 q 367 525 399 525 q 290 473 317 525 q 263 338 263 421 q 290 215 263 256 q 356 175 318 175 q 421 199 392 175 q 469 250 450 222 l 469 468 m 257 785 l 340 1129 l 454 1129 l 454 785 l 257 785 z "},"Ĥ":{"ha":910,"x_min":78,"x_max":832,"o":"m 313 972 l 313 611 l 597 611 l 597 972 l 832 972 l 832 0 l 597 0 l 597 399 l 313 399 l 313 0 l 78 0 l 78 972 l 313 972 m 542 1301 l 725 1065 l 563 1065 l 461 1183 l 360 1065 l 197 1065 l 379 1301 l 542 1301 z "},"ĥ":{"ha":764,"x_min":-69,"x_max":699,"o":"m 290 1028 l 290 676 q 290 635 290 654 q 289 586 289 615 l 290 586 q 338 626 314 607 q 390 660 363 644 q 450 684 418 675 q 519 693 482 693 q 649 636 599 693 q 699 467 699 579 l 699 0 l 474 0 l 474 389 q 461 463 474 433 q 408 492 449 492 q 344 471 376 492 q 290 425 313 450 l 290 0 l 65 0 l 65 1028 l 290 1028 m 258 1321 l 428 1118 l 274 1118 l 179 1215 l 86 1118 l -69 1118 l 100 1321 l 258 1321 z "},"Ħ":{"ha":1003,"x_min":15,"x_max":988,"o":"m 15 661 l 15 821 l 125 821 l 125 972 l 360 972 l 360 821 l 643 821 l 643 972 l 878 972 l 878 821 l 988 821 l 988 661 l 878 661 l 878 0 l 643 0 l 643 343 l 360 343 l 360 0 l 125 0 l 125 661 l 15 661 m 643 661 l 360 661 l 360 547 l 643 547 l 643 661 z "},"ħ":{"ha":817,"x_min":-26,"x_max":751,"o":"m -26 772 l -26 901 l 118 901 l 118 1028 l 343 1028 l 343 901 l 589 901 l 589 772 l 343 772 l 343 676 q 342 633 343 654 q 342 586 342 613 l 343 586 q 447 662 394 631 q 572 693 499 693 q 701 636 651 693 q 751 467 751 579 l 751 0 l 526 0 l 526 389 q 524 427 526 408 q 515 460 522 446 q 495 483 508 475 q 461 492 482 492 q 395 470 425 492 q 343 425 365 449 l 343 0 l 118 0 l 118 772 l -26 772 z "},"Ī":{"ha":390,"x_min":-14,"x_max":407,"o":"m 313 972 l 313 0 l 78 0 l 78 972 l 313 972 m 407 1239 l 407 1094 l -14 1094 l -14 1239 l 407 1239 z "},"ī":{"ha":358,"x_min":-12,"x_max":372,"o":"m 292 681 l 292 0 l 67 0 l 67 681 l 292 681 m 372 951 l 372 813 l -12 813 l -12 951 l 372 951 z "},"Į":{"ha":390,"x_min":14,"x_max":332,"o":"m 14 -189 q 125 0 14 -79 l 78 0 l 78 972 l 313 972 l 313 0 l 246 0 q 172 -72 197 -32 q 147 -156 147 -112 q 165 -206 147 -186 q 215 -226 182 -226 q 251 -222 233 -226 q 293 -203 268 -218 l 332 -290 q 251 -331 294 -324 q 179 -339 208 -339 q 56 -294 97 -339 q 14 -189 14 -250 z "},"į":{"ha":358,"x_min":7,"x_max":310,"o":"m 7 -181 q 35 -82 7 -128 q 115 0 63 -36 l 67 0 l 67 681 l 292 681 l 292 0 l 232 0 q 158 -65 183 -29 q 133 -149 133 -101 q 150 -196 133 -176 q 199 -215 167 -215 q 232 -210 215 -215 q 272 -192 249 -206 l 310 -272 q 234 -312 274 -304 q 167 -319 194 -319 q 47 -279 88 -319 q 7 -181 7 -239 m 292 968 l 292 793 l 67 793 l 67 968 l 292 968 z "},"İ":{"ha":390,"x_min":78,"x_max":313,"o":"m 313 972 l 313 0 l 78 0 l 78 972 l 313 972 m 290 1285 l 290 1086 l 101 1086 l 101 1285 l 290 1285 z "},"ı":{"ha":358,"x_min":67,"x_max":292,"o":"m 292 681 l 292 0 l 67 0 l 67 681 l 292 681 z "},"Ĵ":{"ha":514,"x_min":39,"x_max":571,"o":"m 39 182 q 106 194 75 183 q 159 226 136 204 q 195 283 182 249 q 208 367 208 317 l 208 972 l 443 972 l 443 364 q 341 76 443 164 q 39 -12 239 -11 l 39 182 l 39 182 m 388 1301 l 571 1065 l 408 1065 l 307 1183 l 206 1065 l 43 1065 l 225 1301 l 388 1301 z "},"ĵ":{"ha":358,"x_min":-69,"x_max":428,"o":"m -60 -201 q 39 -144 11 -194 q 67 10 67 -93 l 67 681 l 292 681 l 292 15 q 203 -267 292 -174 q -60 -360 114 -360 l -60 -201 l -60 -201 m 258 1001 l 428 799 l 274 799 l 179 896 l 86 799 l -69 799 l 100 1001 l 258 1001 z "},"Ķ":{"ha":843,"x_min":78,"x_max":853,"o":"m 313 972 l 313 604 l 388 604 l 589 972 l 847 972 l 574 511 l 853 0 l 586 0 l 388 390 l 313 390 l 313 0 l 78 0 l 78 972 l 313 972 m 536 -90 l 453 -460 l 332 -460 l 332 -90 l 536 -90 z "},"ķ":{"ha":735,"x_min":65,"x_max":743,"o":"m 290 1028 l 290 457 l 350 457 l 488 681 l 743 681 l 529 371 l 743 0 l 490 0 l 350 269 l 290 269 l 290 0 l 65 0 l 65 1028 l 290 1028 m 471 -90 l 389 -435 l 274 -435 l 274 -90 l 471 -90 z "},"Ĺ":{"ha":663,"x_min":78,"x_max":632,"o":"m 313 972 l 313 203 l 632 203 l 632 0 l 78 0 l 78 972 l 313 972 m 433 1306 l 251 1067 l 103 1067 l 214 1306 l 433 1306 z "},"ĺ":{"ha":358,"x_min":67,"x_max":406,"o":"m 292 1028 l 292 0 l 67 0 l 67 1028 l 292 1028 m 406 1347 l 240 1139 l 96 1139 l 196 1347 l 406 1347 z "},"Ļ":{"ha":663,"x_min":78,"x_max":632,"o":"m 313 972 l 313 203 l 632 203 l 632 0 l 78 0 l 78 972 l 313 972 m 457 -90 l 374 -460 l 253 -460 l 253 -90 l 457 -90 z "},"ļ":{"ha":358,"x_min":67,"x_max":292,"o":"m 292 1028 l 292 0 l 67 0 l 67 1028 l 292 1028 m 279 -90 l 197 -435 l 82 -435 l 82 -90 l 279 -90 z "},"Ľ":{"ha":663,"x_min":78,"x_max":646,"o":"m 313 972 l 313 203 l 632 203 l 632 0 l 78 0 l 78 972 l 313 972 m 646 972 l 564 631 l 450 631 l 450 972 l 646 972 z "},"ľ":{"ha":551,"x_min":67,"x_max":567,"o":"m 292 1028 l 292 0 l 67 0 l 67 1028 l 292 1028 m 567 972 l 483 635 l 371 635 l 371 972 l 567 972 z "},"Ŀ":{"ha":663,"x_min":78,"x_max":667,"o":"m 313 972 l 313 203 l 632 203 l 632 0 l 78 0 l 78 972 l 313 972 m 392 486 q 430 585 392 544 q 529 626 468 626 q 629 585 592 626 q 667 486 667 544 q 629 388 667 428 q 529 347 592 347 q 430 388 468 347 q 392 486 392 428 z "},"ŀ":{"ha":643,"x_min":67,"x_max":636,"o":"m 292 1028 l 292 0 l 67 0 l 67 1028 l 292 1028 m 361 486 q 399 585 361 544 q 499 626 438 626 q 599 585 561 626 q 636 486 636 544 q 599 388 636 428 q 499 347 561 347 q 399 388 438 347 q 361 486 361 428 z "},"Ł":{"ha":767,"x_min":4,"x_max":736,"o":"m 60 269 l 4 390 l 183 504 l 183 972 l 418 972 l 418 639 l 585 750 l 642 626 l 418 482 l 418 203 l 736 203 l 736 0 l 183 0 l 183 349 l 60 269 z "},"ł":{"ha":561,"x_min":-10,"x_max":586,"o":"m 50 321 l -10 426 l 167 542 l 167 1028 l 392 1028 l 392 674 l 525 763 l 586 657 l 392 531 l 392 0 l 167 0 l 167 399 l 50 321 z "},"Ń":{"ha":913,"x_min":78,"x_max":835,"o":"m 331 972 l 558 529 q 571 501 564 518 q 585 466 578 485 q 601 428 593 447 q 615 393 608 410 l 626 393 q 621 476 624 432 q 618 547 618 521 l 618 972 l 835 972 l 835 0 l 614 0 l 346 517 q 319 576 333 542 q 292 643 304 611 l 281 643 q 284 606 282 629 q 288 555 286 582 q 292 501 290 528 q 294 458 294 475 l 294 0 l 78 0 l 78 972 l 331 972 m 717 1306 l 535 1067 l 386 1067 l 497 1306 l 717 1306 z "},"ń":{"ha":764,"x_min":65,"x_max":699,"o":"m 285 681 l 285 583 l 288 583 q 335 624 310 604 q 388 658 360 643 q 449 683 417 674 q 519 693 482 693 q 649 636 599 693 q 699 467 699 579 l 699 0 l 474 0 l 474 389 q 461 462 474 432 q 410 492 449 492 q 345 471 378 492 q 290 425 313 450 l 290 0 l 65 0 l 65 681 l 285 681 m 621 1007 l 456 799 l 311 799 l 411 1007 l 621 1007 z "},"Ņ":{"ha":913,"x_min":78,"x_max":835,"o":"m 331 972 l 558 529 q 571 501 564 518 q 585 466 578 485 q 601 428 593 447 q 615 393 608 410 l 626 393 q 621 476 624 432 q 618 547 618 521 l 618 972 l 835 972 l 835 0 l 614 0 l 346 517 q 319 576 333 542 q 292 643 304 611 l 281 643 q 284 606 282 629 q 288 555 286 582 q 292 501 290 528 q 294 458 294 475 l 294 0 l 78 0 l 78 972 l 331 972 m 557 -90 l 474 -460 l 353 -460 l 353 -90 l 557 -90 z "},"ņ":{"ha":764,"x_min":65,"x_max":699,"o":"m 285 681 l 285 583 l 288 583 q 335 624 310 604 q 388 658 360 643 q 449 683 417 674 q 519 693 482 693 q 649 636 599 693 q 699 467 699 579 l 699 0 l 474 0 l 474 389 q 461 462 474 432 q 410 492 449 492 q 345 471 378 492 q 290 425 313 450 l 290 0 l 65 0 l 65 681 l 285 681 m 481 -90 l 399 -435 l 283 -435 l 283 -90 l 481 -90 z "},"Ň":{"ha":913,"x_min":78,"x_max":835,"o":"m 331 972 l 558 529 q 571 501 564 518 q 585 466 578 485 q 601 428 593 447 q 615 393 608 410 l 626 393 q 621 476 624 432 q 618 547 618 521 l 618 972 l 835 972 l 835 0 l 614 0 l 346 517 q 319 576 333 542 q 292 643 304 611 l 281 643 q 284 606 282 629 q 288 555 286 582 q 292 501 290 528 q 294 458 294 475 l 294 0 l 78 0 l 78 972 l 331 972 m 356 1301 l 457 1183 l 558 1301 l 721 1301 l 539 1065 l 376 1065 l 193 1301 l 356 1301 z "},"ň":{"ha":764,"x_min":65,"x_max":699,"o":"m 285 681 l 285 583 l 288 583 q 335 624 310 604 q 388 658 360 643 q 449 683 417 674 q 519 693 482 693 q 649 636 599 693 q 699 467 699 579 l 699 0 l 474 0 l 474 389 q 461 462 474 432 q 410 492 449 492 q 345 471 378 492 q 290 425 313 450 l 290 0 l 65 0 l 65 681 l 285 681 m 290 1001 l 383 904 l 478 1001 l 632 1001 l 463 799 l 304 799 l 135 1001 l 290 1001 z "},"Ō":{"ha":946,"x_min":42,"x_max":904,"o":"m 42 486 q 69 694 42 601 q 149 851 96 786 q 284 950 203 915 q 474 985 365 985 q 663 950 582 985 q 797 851 743 915 q 878 694 851 786 q 904 486 904 601 q 878 278 904 371 q 797 122 851 186 q 663 22 743 57 q 474 -12 582 -12 q 284 22 365 -12 q 149 122 203 57 q 69 278 96 186 q 42 486 42 371 m 667 486 q 659 593 667 539 q 631 691 651 647 q 572 763 610 735 q 474 790 533 790 q 375 763 413 790 q 317 691 338 735 q 288 593 296 647 q 281 486 281 539 q 288 379 281 433 q 317 281 296 325 q 375 210 338 238 q 474 182 413 182 q 572 210 533 182 q 631 281 610 238 q 659 379 651 325 q 667 486 667 433 m 685 1239 l 685 1094 l 264 1094 l 264 1239 l 685 1239 z "},"ō":{"ha":747,"x_min":33,"x_max":715,"o":"m 33 339 q 58 494 33 428 q 126 605 82 561 q 234 671 171 649 q 375 693 297 693 q 516 671 453 693 q 624 605 579 649 q 692 494 668 561 q 715 339 715 428 q 691 184 715 250 q 622 74 667 118 q 515 9 578 31 q 374 -12 451 -12 q 233 9 296 -12 q 125 74 169 31 q 57 184 81 118 q 33 339 33 250 m 486 339 q 460 477 486 428 q 375 526 433 526 q 289 477 317 526 q 261 339 261 428 q 288 203 261 251 q 374 154 315 154 q 459 203 432 154 q 486 339 486 251 m 567 951 l 567 813 l 182 813 l 182 951 l 567 951 z "},"Ő":{"ha":946,"x_min":42,"x_max":904,"o":"m 42 486 q 69 694 42 601 q 149 851 96 786 q 284 950 203 915 q 474 985 365 985 q 663 950 582 985 q 797 851 743 915 q 878 694 851 786 q 904 486 904 601 q 878 278 904 371 q 797 122 851 186 q 663 22 743 57 q 474 -12 582 -12 q 284 22 365 -12 q 149 122 203 57 q 69 278 96 186 q 42 486 42 371 m 667 486 q 659 593 667 539 q 631 691 651 647 q 572 763 610 735 q 474 790 533 790 q 375 763 413 790 q 317 691 338 735 q 288 593 296 647 q 281 486 281 539 q 288 379 281 433 q 317 281 296 325 q 375 210 338 238 q 474 182 413 182 q 572 210 533 182 q 631 281 610 238 q 659 379 651 325 q 667 486 667 433 m 588 1294 l 394 1067 l 256 1067 l 376 1294 l 588 1294 m 868 1294 l 676 1067 l 538 1067 l 657 1294 l 868 1294 z "},"ő":{"ha":747,"x_min":33,"x_max":729,"o":"m 33 339 q 58 494 33 428 q 126 605 82 561 q 234 671 171 649 q 375 693 297 693 q 516 671 453 693 q 624 605 579 649 q 692 494 668 561 q 715 339 715 428 q 691 184 715 250 q 622 74 667 118 q 515 9 578 31 q 374 -12 451 -12 q 233 9 296 -12 q 125 74 169 31 q 57 184 81 118 q 33 339 33 250 m 486 339 q 460 477 486 428 q 375 526 433 526 q 289 477 317 526 q 261 339 261 428 q 288 203 261 251 q 374 154 315 154 q 459 203 432 154 q 486 339 486 251 m 472 1004 l 303 799 l 165 799 l 274 1004 l 472 1004 m 729 1004 l 561 799 l 422 799 l 531 1004 l 729 1004 z "},"Œ":{"ha":1201,"x_min":42,"x_max":1168,"o":"m 42 486 q 68 692 42 600 q 149 849 94 783 q 283 949 203 914 q 472 985 364 985 q 536 981 504 985 q 596 972 568 978 l 1168 972 l 1168 771 l 806 771 l 806 593 l 1093 593 l 1093 394 l 806 394 l 806 201 l 1168 201 l 1168 0 l 596 0 q 536 -9 568 -6 q 472 -12 504 -12 q 283 23 364 -12 q 149 124 203 58 q 69 281 96 189 q 42 486 42 372 m 572 767 q 474 790 535 790 q 374 763 413 790 q 315 690 336 735 q 287 592 294 646 q 279 486 279 538 q 287 380 279 433 q 315 282 294 326 q 374 210 336 238 q 474 182 413 182 q 572 206 535 182 l 572 767 z "},"œ":{"ha":1156,"x_min":33,"x_max":1122,"o":"m 33 339 q 59 497 33 431 q 131 608 85 564 q 239 672 176 651 q 375 693 301 693 q 499 670 442 693 q 601 604 557 647 q 701 669 646 644 q 822 693 757 693 q 966 665 908 693 q 1058 592 1024 638 q 1108 485 1093 546 q 1122 361 1122 425 l 1122 299 l 710 299 q 720 252 711 276 q 747 207 729 228 q 792 173 764 186 q 858 160 819 160 q 948 176 910 160 q 1026 231 986 193 l 1107 96 q 983 17 1049 46 q 833 -12 917 -12 q 705 7 767 -12 q 594 69 643 26 q 494 8 550 29 q 374 -12 439 -12 q 238 8 300 -12 q 131 72 176 29 q 59 181 85 114 q 33 339 33 247 m 486 339 q 481 409 486 375 q 464 469 476 443 q 430 510 451 494 q 375 526 408 526 q 319 510 342 526 q 284 469 297 494 q 266 409 271 443 q 261 339 261 375 q 266 269 261 303 q 284 210 271 236 q 319 169 297 185 q 374 154 340 154 q 428 169 407 154 q 463 210 450 185 q 481 269 476 236 q 486 339 486 303 m 910 424 q 902 467 908 446 q 884 503 896 488 q 854 529 872 519 q 811 539 836 539 q 744 507 771 539 q 711 424 718 475 l 910 424 z "},"Ŕ":{"ha":818,"x_min":78,"x_max":819,"o":"m 447 972 q 551 959 497 972 q 651 912 606 946 q 725 821 696 878 q 754 676 754 764 q 707 506 754 574 q 593 407 660 438 l 819 0 l 556 0 l 367 372 l 313 372 l 313 0 l 78 0 l 78 972 l 447 972 m 394 549 q 480 578 443 549 q 517 676 517 607 q 485 767 517 739 q 406 794 454 794 l 308 794 l 308 549 l 394 549 m 618 1306 l 436 1067 l 288 1067 l 399 1306 l 618 1306 z "},"ŕ":{"ha":572,"x_min":65,"x_max":551,"o":"m 285 681 l 285 551 l 288 551 q 331 605 308 579 q 380 650 354 631 q 435 681 406 669 q 500 693 465 693 q 528 692 511 693 q 551 689 544 692 l 536 469 q 483 474 517 474 q 386 456 435 474 q 290 392 338 439 l 290 0 l 65 0 l 65 681 l 285 681 m 528 1007 l 363 799 l 218 799 l 318 1007 l 528 1007 z "},"Ŗ":{"ha":818,"x_min":78,"x_max":819,"o":"m 447 972 q 551 959 497 972 q 651 912 606 946 q 725 821 696 878 q 754 676 754 764 q 707 506 754 574 q 593 407 660 438 l 819 0 l 556 0 l 367 372 l 313 372 l 313 0 l 78 0 l 78 972 l 447 972 m 394 549 q 480 578 443 549 q 517 676 517 607 q 485 767 517 739 q 406 794 454 794 l 308 794 l 308 549 l 394 549 m 525 -90 l 442 -460 l 321 -460 l 321 -90 l 525 -90 z "},"ŗ":{"ha":572,"x_min":65,"x_max":551,"o":"m 285 681 l 285 551 l 288 551 q 331 605 308 579 q 380 650 354 631 q 435 681 406 669 q 500 693 465 693 q 528 692 511 693 q 551 689 544 692 l 536 469 q 483 474 517 474 q 386 456 435 474 q 290 392 338 439 l 290 0 l 65 0 l 65 681 l 285 681 m 278 -90 l 196 -435 l 81 -435 l 81 -90 l 278 -90 z "},"Ř":{"ha":818,"x_min":78,"x_max":819,"o":"m 447 972 q 551 959 497 972 q 651 912 606 946 q 725 821 696 878 q 754 676 754 764 q 707 506 754 574 q 593 407 660 438 l 819 0 l 556 0 l 367 372 l 313 372 l 313 0 l 78 0 l 78 972 l 447 972 m 394 549 q 480 578 443 549 q 517 676 517 607 q 485 767 517 739 q 406 794 454 794 l 308 794 l 308 549 l 394 549 m 272 1301 l 374 1183 l 475 1301 l 638 1301 l 456 1065 l 293 1065 l 110 1301 l 272 1301 z "},"ř":{"ha":572,"x_min":43,"x_max":551,"o":"m 285 681 l 285 551 l 288 551 q 331 605 308 579 q 380 650 354 631 q 435 681 406 669 q 500 693 465 693 q 528 692 511 693 q 551 689 544 692 l 536 469 q 483 474 517 474 q 386 456 435 474 q 290 392 338 439 l 290 0 l 65 0 l 65 681 l 285 681 m 199 1001 l 292 904 l 386 1001 l 540 1001 l 371 799 l 213 799 l 43 1001 l 199 1001 z "},"Ś":{"ha":768,"x_min":29,"x_max":740,"o":"m 133 289 q 183 250 154 268 q 244 217 211 232 q 312 194 276 203 q 383 186 347 186 q 467 207 436 186 q 500 264 499 228 q 473 315 500 296 q 390 363 446 335 l 267 424 q 117 535 175 468 q 60 704 60 601 q 148 910 60 836 q 401 985 236 985 q 509 972 460 985 q 599 939 558 960 q 670 892 639 918 q 724 840 701 867 l 600 693 q 510 760 557 736 q 406 785 464 785 q 324 761 349 785 q 299 706 299 738 q 335 642 299 665 q 435 589 372 618 l 517 550 q 613 497 571 524 q 683 437 654 469 q 726 364 711 404 q 740 274 740 324 q 712 148 740 201 q 635 59 683 94 q 525 6 588 24 q 394 -12 463 -12 q 181 28 274 -12 q 29 129 88 69 l 133 289 m 649 1306 l 467 1067 l 318 1067 l 429 1306 l 649 1306 z "},"ś":{"ha":663,"x_min":32,"x_max":625,"o":"m 108 232 q 217 176 160 196 q 332 156 274 156 q 404 196 404 156 q 378 229 404 217 q 311 257 353 242 l 208 301 q 98 376 138 331 q 58 494 58 422 q 133 642 58 590 q 336 693 208 693 q 503 665 436 693 q 615 593 571 636 l 526 461 q 448 506 494 489 q 344 524 401 524 q 294 515 313 524 q 275 486 275 506 q 301 455 275 467 q 367 428 326 443 l 457 390 q 583 310 542 357 q 625 193 625 264 q 603 105 625 143 q 544 40 582 67 q 451 1 506 14 q 333 -12 397 -12 q 161 17 238 -12 q 32 93 85 47 l 108 232 m 571 1007 l 406 799 l 261 799 l 361 1007 l 571 1007 z "},"Ŝ":{"ha":768,"x_min":29,"x_max":740,"o":"m 133 289 q 183 250 154 268 q 244 217 211 232 q 312 194 276 203 q 383 186 347 186 q 467 207 436 186 q 500 264 499 228 q 473 315 500 296 q 390 363 446 335 l 267 424 q 117 535 175 468 q 60 704 60 601 q 148 910 60 836 q 401 985 236 985 q 509 972 460 985 q 599 939 558 960 q 670 892 639 918 q 724 840 701 867 l 600 693 q 510 760 557 736 q 406 785 464 785 q 324 761 349 785 q 299 706 299 738 q 335 642 299 665 q 435 589 372 618 l 517 550 q 613 497 571 524 q 683 437 654 469 q 726 364 711 404 q 740 274 740 324 q 712 148 740 201 q 635 59 683 94 q 525 6 588 24 q 394 -12 463 -12 q 181 28 274 -12 q 29 129 88 69 l 133 289 m 474 1301 l 657 1065 l 494 1065 l 393 1183 l 292 1065 l 129 1065 l 311 1301 l 474 1301 z "},"ŝ":{"ha":663,"x_min":32,"x_max":625,"o":"m 108 232 q 217 176 160 196 q 332 156 274 156 q 404 196 404 156 q 378 229 404 217 q 311 257 353 242 l 208 301 q 98 376 138 331 q 58 494 58 422 q 133 642 58 590 q 336 693 208 693 q 503 665 436 693 q 615 593 571 636 l 526 461 q 448 506 494 489 q 344 524 401 524 q 294 515 313 524 q 275 486 275 506 q 301 455 275 467 q 367 428 326 443 l 457 390 q 583 310 542 357 q 625 193 625 264 q 603 105 625 143 q 544 40 582 67 q 451 1 506 14 q 333 -12 397 -12 q 161 17 238 -12 q 32 93 85 47 l 108 232 m 419 1001 l 589 799 l 435 799 l 340 896 l 247 799 l 92 799 l 261 1001 l 419 1001 z "},"Ş":{"ha":768,"x_min":29,"x_max":740,"o":"m 282 -225 q 329 -249 301 -240 q 381 -257 357 -257 q 424 -244 408 -257 q 439 -203 439 -231 q 417 -162 439 -172 q 368 -153 396 -153 q 335 -153 357 -153 q 299 -156 314 -153 l 324 -8 q 153 42 228 4 q 29 129 78 79 l 133 289 q 244 217 176 249 q 383 186 311 186 q 465 207 436 186 q 493 264 493 228 q 470 317 493 296 q 390 367 447 339 l 267 428 q 117 537 175 472 q 60 704 60 601 q 148 910 60 836 q 401 985 236 985 q 509 972 460 985 q 599 939 558 960 q 670 892 639 918 q 724 840 701 867 l 600 693 q 511 760 558 736 q 406 785 464 785 q 327 761 349 785 q 306 706 306 738 q 339 640 306 665 q 435 585 372 614 l 517 546 q 613 493 571 519 q 683 435 654 467 q 726 363 711 403 q 740 274 740 324 q 715 156 740 207 q 649 69 690 104 q 551 13 607 33 q 432 -11 494 -7 l 422 -65 q 538 -103 501 -65 q 574 -201 574 -142 q 559 -269 574 -239 q 519 -319 544 -299 q 460 -351 494 -340 q 388 -361 426 -361 q 304 -350 343 -361 q 239 -317 265 -339 l 282 -225 z "},"ş":{"ha":663,"x_min":32,"x_max":625,"o":"m 231 -207 q 276 -229 250 -222 q 325 -236 301 -236 q 381 -186 381 -236 q 359 -149 381 -158 q 313 -140 338 -140 q 281 -140 301 -140 q 246 -143 261 -140 l 267 -8 q 134 28 193 1 q 32 93 75 56 l 108 232 q 216 176 160 196 q 325 156 272 156 q 372 166 354 156 q 390 196 390 176 q 372 232 390 217 q 311 263 353 247 l 208 307 q 98 380 138 336 q 58 494 58 424 q 133 642 58 590 q 336 693 208 693 q 503 665 436 693 q 615 593 571 636 l 526 461 q 449 506 494 489 q 351 524 403 524 q 306 515 324 524 q 289 486 289 506 q 308 453 289 467 q 367 425 326 440 l 457 388 q 583 309 542 354 q 625 193 625 264 q 556 48 625 100 q 374 -11 486 -4 l 364 -60 q 475 -94 440 -60 q 510 -186 510 -129 q 496 -249 510 -222 q 458 -296 482 -276 q 401 -325 433 -315 q 331 -335 368 -335 q 251 -324 289 -335 q 190 -293 214 -312 l 231 -207 z "},"Š":{"ha":768,"x_min":29,"x_max":740,"o":"m 133 289 q 183 250 154 268 q 244 217 211 232 q 312 194 276 203 q 383 186 347 186 q 467 207 436 186 q 500 264 499 228 q 473 315 500 296 q 390 363 446 335 l 267 424 q 117 535 175 468 q 60 704 60 601 q 148 910 60 836 q 401 985 236 985 q 509 972 460 985 q 599 939 558 960 q 670 892 639 918 q 724 840 701 867 l 600 693 q 510 760 557 736 q 406 785 464 785 q 324 761 349 785 q 299 706 299 738 q 335 642 299 665 q 435 589 372 618 l 517 550 q 613 497 571 524 q 683 437 654 469 q 726 364 711 404 q 740 274 740 324 q 712 148 740 201 q 635 59 683 94 q 525 6 588 24 q 394 -12 463 -12 q 181 28 274 -12 q 29 129 88 69 l 133 289 m 292 1301 l 393 1183 l 494 1301 l 657 1301 l 475 1065 l 313 1065 l 129 1301 l 292 1301 z "},"š":{"ha":663,"x_min":32,"x_max":625,"o":"m 108 232 q 217 176 160 196 q 332 156 274 156 q 404 196 404 156 q 378 229 404 217 q 311 257 353 242 l 208 301 q 98 376 138 331 q 58 494 58 422 q 133 642 58 590 q 336 693 208 693 q 503 665 436 693 q 615 593 571 636 l 526 461 q 448 506 494 489 q 344 524 401 524 q 294 515 313 524 q 275 486 275 506 q 301 455 275 467 q 367 428 326 443 l 457 390 q 583 310 542 357 q 625 193 625 264 q 603 105 625 143 q 544 40 582 67 q 451 1 506 14 q 333 -12 397 -12 q 161 17 238 -12 q 32 93 85 47 l 108 232 m 249 1001 l 342 904 l 436 1001 l 590 1001 l 421 799 l 263 799 l 93 1001 l 249 1001 z "},"Ţ":{"ha":782,"x_min":21,"x_max":761,"o":"m 290 -225 q 338 -249 310 -240 q 389 -257 365 -257 q 432 -244 417 -257 q 447 -203 447 -231 q 426 -162 447 -172 q 376 -153 404 -153 q 344 -153 365 -153 q 307 -156 322 -153 l 333 0 l 274 0 l 274 771 l 21 771 l 21 972 l 761 972 l 761 771 l 508 771 l 508 0 l 442 0 l 431 -65 q 546 -103 510 -65 q 582 -201 582 -142 q 567 -269 582 -239 q 528 -319 553 -299 q 469 -351 503 -340 q 396 -361 435 -361 q 313 -350 351 -361 q 247 -317 274 -339 l 290 -225 z "},"ţ":{"ha":624,"x_min":28,"x_max":611,"o":"m 281 -207 q 325 -229 300 -222 q 374 -236 350 -236 q 429 -186 429 -236 q 408 -149 429 -158 q 361 -140 386 -140 q 330 -140 350 -140 q 294 -143 310 -140 l 318 -8 q 191 65 232 7 q 150 232 150 122 l 150 501 l 28 501 l 28 681 l 150 681 l 150 846 l 375 903 l 375 681 l 556 681 l 556 501 l 375 501 l 375 274 q 392 189 375 214 q 446 164 410 164 q 495 174 469 164 q 543 201 521 185 l 611 72 q 527 19 574 40 q 422 -10 481 -3 l 414 -60 q 524 -94 489 -60 q 558 -186 558 -129 q 544 -249 558 -222 q 506 -296 531 -276 q 449 -325 482 -315 q 381 -335 417 -335 q 301 -324 338 -335 q 240 -293 264 -312 l 281 -207 z "},"Ť":{"ha":782,"x_min":21,"x_max":761,"o":"m 21 771 l 21 972 l 761 972 l 761 771 l 508 771 l 508 0 l 274 0 l 274 771 l 21 771 m 290 1301 l 392 1183 l 493 1301 l 656 1301 l 474 1065 l 311 1065 l 128 1301 l 290 1301 z "},"ť":{"ha":636,"x_min":28,"x_max":672,"o":"m 150 501 l 28 501 l 28 681 l 150 681 l 150 846 l 375 903 l 375 681 l 556 681 l 556 501 l 375 501 l 375 274 q 392 189 375 214 q 446 164 410 164 q 495 174 469 164 q 543 201 521 185 l 611 72 q 508 10 567 33 q 379 -12 450 -12 q 206 46 261 -12 q 150 232 150 104 l 150 501 m 672 1104 l 589 767 l 476 767 l 476 1104 l 672 1104 z "},"Ū":{"ha":885,"x_min":72,"x_max":813,"o":"m 72 972 l 307 972 l 307 342 q 346 224 307 263 q 451 186 385 186 q 551 224 513 186 q 590 342 590 263 l 590 972 l 813 972 l 813 351 q 787 190 813 258 q 713 76 761 121 q 597 10 665 32 q 443 -12 528 -12 q 287 8 356 -12 q 170 73 218 29 q 97 185 122 117 q 72 351 72 254 l 72 972 m 654 1239 l 654 1094 l 233 1094 l 233 1239 l 654 1239 z "},"ū":{"ha":764,"x_min":65,"x_max":699,"o":"m 65 681 l 290 681 l 290 278 q 304 215 290 242 q 354 189 318 189 q 418 210 386 189 q 474 257 450 231 l 474 681 l 699 681 l 699 0 l 479 0 l 479 99 l 476 99 q 428 58 453 78 q 374 22 403 38 q 314 -3 346 7 q 244 -12 282 -12 q 116 39 167 -12 q 65 197 65 90 l 65 681 m 575 951 l 575 813 l 190 813 l 190 951 l 575 951 z "},"Ŭ":{"ha":885,"x_min":72,"x_max":813,"o":"m 72 972 l 307 972 l 307 342 q 346 224 307 263 q 451 186 385 186 q 551 224 513 186 q 590 342 590 263 l 590 972 l 813 972 l 813 351 q 787 190 813 258 q 713 76 761 121 q 597 10 665 32 q 443 -12 528 -12 q 287 8 356 -12 q 170 73 218 29 q 97 185 122 117 q 72 351 72 254 l 72 972 m 356 1297 q 388 1224 364 1256 q 457 1193 413 1193 q 527 1224 504 1193 q 560 1296 550 1254 l 708 1286 q 688 1196 704 1238 q 640 1124 671 1154 q 563 1076 608 1093 q 457 1060 518 1060 q 351 1077 396 1060 q 275 1125 306 1094 q 228 1197 244 1156 q 207 1288 211 1239 l 356 1297 z "},"ŭ":{"ha":764,"x_min":65,"x_max":699,"o":"m 65 681 l 290 681 l 290 278 q 304 215 290 242 q 354 189 318 189 q 418 210 386 189 q 474 257 450 231 l 474 681 l 699 681 l 699 0 l 479 0 l 479 99 l 476 99 q 428 58 453 78 q 374 22 403 38 q 314 -3 346 7 q 244 -12 282 -12 q 116 39 167 -12 q 65 197 65 90 l 65 681 m 294 1001 q 322 944 301 965 q 382 922 343 922 q 443 943 422 922 q 472 1000 464 964 l 603 994 q 584 916 599 953 q 542 852 569 879 q 475 810 515 825 q 382 794 435 794 q 290 810 329 794 q 223 852 250 825 q 181 916 196 879 q 163 994 165 953 l 294 1001 z "},"Ů":{"ha":885,"x_min":72,"x_max":813,"o":"m 72 972 l 307 972 l 307 342 q 346 224 307 263 q 451 186 385 186 q 551 224 513 186 q 590 342 590 263 l 590 972 l 813 972 l 813 351 q 787 190 813 258 q 713 76 761 121 q 597 10 665 32 q 443 -12 528 -12 q 287 8 356 -12 q 170 73 218 29 q 97 185 122 117 q 72 351 72 254 l 72 972 m 272 1218 q 284 1287 272 1254 q 318 1344 296 1319 q 372 1382 340 1368 q 442 1396 403 1396 q 511 1382 479 1396 q 565 1344 543 1368 q 600 1287 588 1319 q 613 1218 613 1254 q 600 1149 613 1182 q 565 1092 588 1117 q 511 1054 543 1068 q 442 1040 479 1040 q 372 1054 403 1040 q 318 1092 340 1068 q 284 1149 296 1117 q 272 1218 272 1182 m 507 1218 q 488 1268 507 1246 q 442 1290 469 1290 q 395 1268 413 1290 q 378 1218 378 1246 q 395 1168 378 1190 q 442 1146 413 1146 q 488 1168 469 1146 q 507 1218 507 1190 z "},"ů":{"ha":764,"x_min":65,"x_max":699,"o":"m 65 681 l 290 681 l 290 278 q 304 215 290 242 q 354 189 318 189 q 418 210 386 189 q 474 257 450 231 l 474 681 l 699 681 l 699 0 l 479 0 l 479 99 l 476 99 q 428 58 453 78 q 374 22 403 38 q 314 -3 346 7 q 244 -12 282 -12 q 116 39 167 -12 q 65 197 65 90 l 65 681 m 222 953 q 234 1019 222 988 q 267 1072 246 1050 q 319 1108 289 1094 q 385 1121 349 1121 q 449 1108 419 1121 q 501 1072 479 1094 q 534 1019 522 1050 q 546 953 546 988 q 534 886 546 917 q 501 833 522 856 q 449 797 479 810 q 385 783 419 783 q 267 832 313 783 q 222 953 222 881 m 446 953 q 429 1001 446 981 q 385 1021 413 1021 q 340 1001 357 1021 q 324 953 324 981 q 340 904 324 925 q 385 883 357 883 q 429 904 413 883 q 446 953 446 925 z "},"Ű":{"ha":885,"x_min":72,"x_max":832,"o":"m 72 972 l 307 972 l 307 342 q 346 224 307 263 q 451 186 385 186 q 551 224 513 186 q 590 342 590 263 l 590 972 l 813 972 l 813 351 q 787 190 813 258 q 713 76 761 121 q 597 10 665 32 q 443 -12 528 -12 q 287 8 356 -12 q 170 73 218 29 q 97 185 122 117 q 72 351 72 254 l 72 972 m 551 1294 l 358 1067 l 219 1067 l 340 1294 l 551 1294 m 832 1294 l 640 1067 l 501 1067 l 621 1294 l 832 1294 z "},"ű":{"ha":764,"x_min":65,"x_max":733,"o":"m 65 681 l 290 681 l 290 278 q 304 215 290 242 q 354 189 318 189 q 418 210 386 189 q 474 257 450 231 l 474 681 l 699 681 l 699 0 l 479 0 l 479 99 l 476 99 q 428 58 453 78 q 374 22 403 38 q 314 -3 346 7 q 244 -12 282 -12 q 116 39 167 -12 q 65 197 65 90 l 65 681 m 476 1004 l 307 799 l 169 799 l 278 1004 l 476 1004 m 733 1004 l 565 799 l 426 799 l 535 1004 l 733 1004 z "},"Ų":{"ha":885,"x_min":72,"x_max":813,"o":"m 353 -189 q 447 -12 353 -87 l 442 -12 q 287 8 356 -12 q 170 73 218 29 q 97 186 122 117 q 72 351 72 256 l 72 972 l 307 972 l 307 342 q 346 224 307 263 q 451 186 385 186 q 551 224 513 186 q 590 342 590 263 l 590 972 l 813 972 l 813 351 q 758 131 813 214 q 604 13 704 47 q 517 -62 547 -17 q 486 -156 486 -108 q 503 -206 486 -186 q 554 -226 521 -226 q 590 -222 572 -226 q 632 -203 607 -218 l 671 -290 q 590 -331 633 -324 q 518 -339 547 -339 q 394 -294 436 -339 q 353 -189 353 -250 z "},"ų":{"ha":764,"x_min":65,"x_max":699,"o":"m 388 -181 q 497 1 388 -72 l 479 1 l 479 99 l 476 99 q 374 22 431 57 q 244 -12 318 -12 q 116 39 167 -12 q 65 197 65 90 l 65 681 l 290 681 l 290 278 q 304 215 290 242 q 354 189 318 189 q 419 210 386 189 q 474 257 451 232 l 474 681 l 699 681 l 699 0 l 613 0 q 538 -65 564 -29 q 513 -149 513 -101 q 530 -196 513 -176 q 578 -215 547 -215 q 612 -210 594 -215 q 653 -192 629 -206 l 690 -272 q 615 -312 654 -304 q 547 -319 575 -319 q 428 -279 468 -319 q 388 -181 388 -239 z "},"Ÿ":{"ha":806,"x_min":-14,"x_max":819,"o":"m -14 972 l 239 972 l 368 639 q 385 584 375 618 q 401 524 396 550 l 413 524 q 426 582 417 549 q 446 638 436 615 l 576 972 l 819 972 l 518 331 l 518 0 l 285 0 l 285 331 l -14 972 m 350 1278 l 350 1088 l 168 1088 l 168 1278 l 350 1278 m 639 1278 l 639 1088 l 457 1088 l 457 1278 l 639 1278 z "},"Ź":{"ha":775,"x_min":26,"x_max":743,"o":"m 392 668 q 431 719 407 690 q 465 764 454 747 l 465 771 l 67 771 l 67 972 l 735 972 l 735 813 l 376 306 q 359 283 369 297 q 337 255 349 269 q 315 227 325 240 q 299 208 304 214 l 299 201 l 743 201 l 743 0 l 26 0 l 26 160 l 392 668 m 647 1306 l 465 1067 l 317 1067 l 428 1306 l 647 1306 z "},"ź":{"ha":669,"x_min":35,"x_max":633,"o":"m 294 433 q 358 497 324 467 l 358 501 l 63 501 l 63 681 l 624 681 l 624 533 l 368 256 q 331 217 350 236 q 296 183 311 199 l 296 179 l 633 179 l 633 0 l 35 0 l 35 154 l 294 433 m 574 1007 l 408 799 l 264 799 l 364 1007 l 574 1007 z "},"Ż":{"ha":775,"x_min":26,"x_max":743,"o":"m 392 668 q 431 719 407 690 q 465 764 454 747 l 465 771 l 67 771 l 67 972 l 735 972 l 735 813 l 376 306 q 359 283 369 297 q 337 255 349 269 q 315 227 325 240 q 299 208 304 214 l 299 201 l 743 201 l 743 0 l 26 0 l 26 160 l 392 668 m 490 1285 l 490 1086 l 301 1086 l 301 1285 l 490 1285 z "},"ż":{"ha":669,"x_min":35,"x_max":633,"o":"m 294 433 q 358 497 324 467 l 358 501 l 63 501 l 63 681 l 624 681 l 624 533 l 368 256 q 331 217 350 236 q 296 183 311 199 l 296 179 l 633 179 l 633 0 l 35 0 l 35 154 l 294 433 m 439 981 l 439 804 l 250 804 l 250 981 l 439 981 z "},"Ž":{"ha":775,"x_min":26,"x_max":743,"o":"m 392 668 q 431 719 407 690 q 465 764 454 747 l 465 771 l 67 771 l 67 972 l 735 972 l 735 813 l 376 306 q 359 283 369 297 q 337 255 349 269 q 315 227 325 240 q 299 208 304 214 l 299 201 l 743 201 l 743 0 l 26 0 l 26 160 l 392 668 m 290 1301 l 392 1183 l 493 1301 l 656 1301 l 474 1065 l 311 1065 l 128 1301 l 290 1301 z "},"ž":{"ha":669,"x_min":35,"x_max":633,"o":"m 294 433 q 358 497 324 467 l 358 501 l 63 501 l 63 681 l 624 681 l 624 533 l 368 256 q 331 217 350 236 q 296 183 311 199 l 296 179 l 633 179 l 633 0 l 35 0 l 35 154 l 294 433 m 244 1001 l 338 904 l 432 1001 l 586 1001 l 417 799 l 258 799 l 89 1001 l 244 1001 z "},"Ə":{"ha":910,"x_min":39,"x_max":869,"o":"m 39 542 l 631 542 q 573 720 626 656 q 424 785 519 785 q 286 754 340 785 q 193 682 232 724 l 65 817 q 122 873 86 843 q 206 928 157 903 q 315 969 254 953 q 450 985 376 985 q 615 958 538 985 q 748 874 692 932 q 837 723 804 815 q 869 499 869 631 q 844 297 869 390 q 768 134 819 203 q 638 26 717 65 q 450 -12 558 -12 q 264 24 342 -12 q 136 126 186 61 q 63 277 86 190 q 39 465 39 364 l 39 542 m 272 388 q 283 310 274 347 q 313 244 293 272 q 363 199 332 215 q 442 182 394 182 q 517 199 485 182 q 572 244 550 215 q 605 310 593 272 q 621 388 617 347 l 272 388 z "},"ƒ":{"ha":651,"x_min":-39,"x_max":636,"o":"m -18 -204 q 78 -153 46 -199 q 122 -10 111 -107 l 182 508 l 68 508 l 92 681 l 206 681 l 210 715 q 248 863 219 803 q 319 959 276 922 q 417 1012 363 996 q 533 1028 472 1028 q 591 1025 563 1028 q 636 1017 619 1022 l 608 858 q 578 861 592 861 q 549 861 564 861 q 508 853 529 861 q 470 830 488 846 q 440 788 453 814 q 422 724 426 761 l 418 681 l 569 681 l 546 508 l 394 508 l 336 7 q 286 -181 324 -110 q 197 -291 249 -251 q 83 -344 144 -331 q -39 -360 21 -358 l -18 -204 l -18 -204 z "},"ǝ":{"ha":706,"x_min":32,"x_max":674,"o":"m 32 382 l 444 382 q 435 428 444 404 q 409 474 426 453 q 364 508 392 494 q 299 521 336 521 q 208 504 247 521 q 129 450 169 488 l 49 585 q 174 664 106 635 q 331 693 243 693 q 459 677 397 693 q 569 621 521 661 q 645 513 617 581 q 674 344 674 446 q 648 192 674 258 q 577 80 622 125 q 470 11 532 35 q 335 -12 408 -12 q 191 15 249 -12 q 98 89 133 43 q 47 194 63 135 q 32 319 32 254 l 32 382 m 244 257 q 274 175 247 208 q 346 142 301 142 q 407 169 376 142 q 444 257 438 196 l 244 257 z "},"Ǧ":{"ha":894,"x_min":42,"x_max":831,"o":"m 42 481 q 75 701 42 607 q 167 859 108 796 q 306 953 226 922 q 479 985 386 985 q 601 973 550 985 q 691 942 653 961 q 758 895 729 922 q 815 839 788 868 l 690 685 q 592 761 642 738 q 486 785 543 785 q 385 755 425 785 q 323 680 346 725 q 290 581 300 635 q 281 481 281 528 q 300 336 281 393 q 351 246 319 279 q 420 199 382 213 q 497 186 458 186 q 560 196 531 186 q 613 226 590 206 l 613 363 l 451 363 l 451 543 l 831 543 l 831 115 q 760 65 799 89 q 677 24 721 42 q 587 -3 633 7 q 494 -12 540 -12 q 317 13 400 -12 q 174 95 235 38 q 77 247 113 153 q 42 481 42 342 m 381 1301 l 482 1183 l 583 1301 l 746 1301 l 564 1065 l 401 1065 l 218 1301 l 381 1301 z "},"ǧ":{"ha":756,"x_min":35,"x_max":690,"o":"m 150 -117 q 222 -165 183 -146 q 313 -185 260 -185 q 423 -141 381 -185 q 465 -12 465 -97 l 465 6 q 466 44 465 21 q 467 89 467 68 l 465 89 q 431 58 450 75 q 385 24 411 40 q 329 -2 360 8 q 261 -12 299 -12 q 161 14 204 -12 q 90 86 118 40 q 49 194 63 132 q 35 328 35 256 q 50 467 35 401 q 97 583 65 533 q 178 663 129 633 q 297 693 228 693 q 388 677 338 693 q 483 611 439 661 l 486 611 l 501 681 l 690 681 l 690 14 q 663 -148 690 -78 q 588 -265 636 -218 q 474 -335 540 -311 q 326 -360 407 -360 q 179 -334 247 -360 q 63 -258 111 -308 l 150 -117 m 469 468 q 425 506 451 488 q 367 525 399 525 q 290 473 317 525 q 263 338 263 421 q 290 215 263 256 q 356 175 318 175 q 421 199 392 175 q 469 250 450 222 l 469 468 m 286 1001 l 379 904 l 474 1001 l 628 1001 l 458 799 l 300 799 l 131 1001 l 286 1001 z "},"Ș":{"ha":768,"x_min":29,"x_max":740,"o":"m 133 289 q 183 250 154 268 q 244 217 211 232 q 312 194 276 203 q 383 186 347 186 q 467 207 436 186 q 500 264 499 228 q 473 315 500 296 q 390 363 446 335 l 267 424 q 117 535 175 468 q 60 704 60 601 q 148 910 60 836 q 401 985 236 985 q 509 972 460 985 q 599 939 558 960 q 670 892 639 918 q 724 840 701 867 l 600 693 q 510 760 557 736 q 406 785 464 785 q 324 761 349 785 q 299 706 299 738 q 335 642 299 665 q 435 589 372 618 l 517 550 q 613 497 571 524 q 683 437 654 469 q 726 364 711 404 q 740 274 740 324 q 712 148 740 201 q 635 59 683 94 q 525 6 588 24 q 394 -12 463 -12 q 181 28 274 -12 q 29 129 88 69 l 133 289 m 508 -90 l 425 -460 l 304 -460 l 304 -90 l 508 -90 z "},"ș":{"ha":663,"x_min":32,"x_max":625,"o":"m 108 232 q 217 176 160 196 q 332 156 274 156 q 404 196 404 156 q 378 229 404 217 q 311 257 353 242 l 208 301 q 98 376 138 331 q 58 494 58 422 q 133 642 58 590 q 336 693 208 693 q 503 665 436 693 q 615 593 571 636 l 526 461 q 448 506 494 489 q 344 524 401 524 q 294 515 313 524 q 275 486 275 506 q 301 455 275 467 q 367 428 326 443 l 457 390 q 583 310 542 357 q 625 193 625 264 q 603 105 625 143 q 544 40 582 67 q 451 1 506 14 q 333 -12 397 -12 q 161 17 238 -12 q 32 93 85 47 l 108 232 m 442 -90 l 360 -435 l 244 -435 l 244 -90 l 442 -90 z "},"Ț":{"ha":782,"x_min":21,"x_max":761,"o":"m 21 771 l 21 972 l 761 972 l 761 771 l 508 771 l 508 0 l 274 0 l 274 771 l 21 771 m 492 -90 l 408 -460 l 288 -460 l 288 -90 l 492 -90 z "},"ț":{"ha":624,"x_min":28,"x_max":611,"o":"m 150 501 l 28 501 l 28 681 l 150 681 l 150 846 l 375 903 l 375 681 l 556 681 l 556 501 l 375 501 l 375 274 q 392 189 375 214 q 446 164 410 164 q 495 174 469 164 q 543 201 521 185 l 611 72 q 508 10 567 33 q 379 -12 450 -12 q 206 46 261 -12 q 150 232 150 104 l 150 501 m 478 -90 l 396 -435 l 281 -435 l 281 -90 l 478 -90 z "},"ȷ":{"ha":358,"x_min":-60,"x_max":292,"o":"m -60 -201 q 39 -144 11 -194 q 67 10 67 -93 l 67 681 l 292 681 l 292 15 q 203 -267 292 -174 q -60 -360 114 -360 l -60 -201 l -60 -201 z "},"ə":{"ha":706,"x_min":32,"x_max":674,"o":"m 32 382 l 444 382 q 435 428 444 404 q 409 474 426 453 q 364 508 392 494 q 299 521 336 521 q 208 504 247 521 q 129 450 169 488 l 49 585 q 174 664 106 635 q 331 693 243 693 q 459 677 397 693 q 569 621 521 661 q 645 513 617 581 q 674 344 674 446 q 648 192 674 258 q 577 80 622 125 q 470 11 532 35 q 335 -12 408 -12 q 191 15 249 -12 q 98 89 133 43 q 47 194 63 135 q 32 319 32 254 l 32 382 m 244 257 q 274 175 247 208 q 346 142 301 142 q 407 169 376 142 q 444 257 438 196 l 244 257 z "},"ʼ":{"ha":253,"x_min":29,"x_max":225,"o":"m 225 972 l 142 635 l 29 635 l 29 972 l 225 972 z "},"ˆ":{"ha":746,"x_min":125,"x_max":622,"o":"m 453 1001 l 622 799 l 468 799 l 374 896 l 281 799 l 125 799 l 294 1001 l 453 1001 z "},"ˇ":{"ha":746,"x_min":125,"x_max":622,"o":"m 281 1001 l 374 904 l 468 1001 l 622 1001 l 453 799 l 294 799 l 125 1001 l 281 1001 z "},"˘":{"ha":747,"x_min":154,"x_max":594,"o":"m 286 1001 q 314 944 293 965 q 374 922 335 922 q 435 943 414 922 q 464 1000 456 964 l 594 994 q 576 916 590 953 q 534 852 561 879 q 467 810 507 825 q 374 794 426 794 q 281 810 321 794 q 215 852 242 825 q 172 916 188 879 q 154 994 157 953 l 286 1001 z "},"˙":{"ha":746,"x_min":279,"x_max":468,"o":"m 468 981 l 468 804 l 279 804 l 279 981 l 468 981 z "},"˚":{"ha":768,"x_min":222,"x_max":546,"o":"m 222 953 q 234 1019 222 988 q 267 1072 246 1050 q 319 1108 289 1094 q 385 1121 349 1121 q 449 1108 419 1121 q 501 1072 479 1094 q 534 1019 522 1050 q 546 953 546 988 q 534 886 546 917 q 501 833 522 856 q 449 797 479 810 q 385 783 419 783 q 267 832 313 783 q 222 953 222 881 m 446 953 q 429 1001 446 981 q 385 1021 413 1021 q 340 1001 357 1021 q 324 953 324 981 q 340 904 324 925 q 385 883 357 883 q 429 904 413 883 q 446 953 446 925 z "},"˛":{"ha":867,"x_min":281,"x_max":583,"o":"m 281 -181 q 315 -72 281 -122 q 417 17 350 -21 l 533 17 q 440 -56 474 -15 q 407 -149 407 -96 q 424 -196 407 -176 q 472 -215 440 -215 q 506 -210 489 -215 q 546 -192 522 -206 l 583 -272 q 508 -312 547 -304 q 440 -319 468 -319 q 321 -279 361 -319 q 281 -181 281 -239 z "},"˜":{"ha":746,"x_min":150,"x_max":597,"o":"m 361 824 q 325 843 342 835 q 294 851 308 851 q 270 843 283 851 q 253 799 257 835 l 150 799 q 158 869 150 836 q 182 928 165 903 q 224 969 199 954 q 285 985 249 985 q 332 976 311 985 q 389 949 353 968 q 429 928 411 938 q 457 919 447 919 q 479 926 467 919 q 497 972 492 933 l 597 972 q 564 834 597 881 q 474 788 531 788 q 449 789 460 788 q 426 794 438 790 q 399 806 414 799 q 361 824 383 813 z "},"˝":{"ha":767,"x_min":161,"x_max":725,"o":"m 468 1004 l 299 799 l 161 799 l 269 1004 l 468 1004 m 725 1004 l 557 799 l 418 799 l 526 1004 l 725 1004 z "},"́":{"ha":0,"x_min":-436,"x_max":-128,"o":"m -128 986 l -292 778 l -436 778 l -336 986 l -128 986 z "},"Δ":{"ha":911,"x_min":7,"x_max":904,"o":"m 488 615 q 474 678 481 639 q 460 749 467 717 l 449 749 q 434 678 442 718 q 421 617 426 639 l 304 197 l 603 197 l 488 615 m 581 972 l 904 0 l 7 0 l 329 972 l 581 972 z "},"∆":{"ha":911,"x_min":7,"x_max":904,"o":"m 488 615 q 474 678 481 639 q 460 749 467 717 l 449 749 q 434 678 442 718 q 421 617 426 639 l 304 197 l 603 197 l 488 615 m 581 972 l 904 0 l 7 0 l 329 972 l 581 972 z "},"Ω":{"ha":956,"x_min":51,"x_max":906,"o":"m 257 200 l 257 239 q 178 284 215 254 q 112 357 140 314 q 67 456 83 400 q 51 578 51 511 q 80 744 51 669 q 163 873 108 819 q 297 956 218 926 q 478 985 376 985 q 659 956 579 985 q 794 873 739 926 q 877 744 849 819 q 906 578 906 669 q 889 456 906 511 q 844 357 872 400 q 778 284 817 314 q 699 239 740 254 l 699 200 l 897 200 l 897 0 l 524 0 l 524 351 q 627 417 588 367 q 667 571 667 468 q 619 729 667 668 q 478 790 572 790 q 337 729 385 790 q 289 571 289 668 q 328 417 289 468 q 432 351 368 367 l 432 0 l 58 0 l 58 200 l 257 200 z "},"Ω":{"ha":956,"x_min":51,"x_max":906,"o":"m 257 200 l 257 239 q 178 284 215 254 q 112 357 140 314 q 67 456 83 400 q 51 578 51 511 q 80 744 51 669 q 163 873 108 819 q 297 956 218 926 q 478 985 376 985 q 659 956 579 985 q 794 873 739 926 q 877 744 849 819 q 906 578 906 669 q 889 456 906 511 q 844 357 872 400 q 778 284 817 314 q 699 239 740 254 l 699 200 l 897 200 l 897 0 l 524 0 l 524 351 q 627 417 588 367 q 667 571 667 468 q 619 729 667 668 q 478 790 572 790 q 337 729 385 790 q 289 571 289 668 q 328 417 289 468 q 432 351 368 367 l 432 0 l 58 0 l 58 200 l 257 200 z "},"π":{"ha":903,"x_min":47,"x_max":857,"o":"m 47 504 l 47 681 l 857 681 l 857 504 l 757 504 l 757 0 l 532 0 l 532 504 l 372 504 l 372 0 l 147 0 l 147 504 l 47 504 z "},"Ё":{"ha":708,"x_min":78,"x_max":675,"o":"m 675 972 l 675 771 l 313 771 l 313 593 l 600 593 l 600 394 l 313 394 l 313 201 l 675 201 l 675 0 l 78 0 l 78 972 l 675 972 m 314 1278 l 314 1088 l 132 1088 l 132 1278 l 314 1278 m 603 1278 l 603 1088 l 421 1088 l 421 1278 l 603 1278 z "},"Ђ":{"ha":1031,"x_min":21,"x_max":996,"o":"m 651 151 q 732 191 707 157 q 757 279 757 225 q 732 365 757 329 q 644 400 707 400 q 508 356 564 400 l 508 0 l 274 0 l 274 771 l 21 771 l 21 972 l 761 972 l 761 771 l 508 771 l 508 543 q 597 580 547 567 q 717 593 647 593 q 835 572 783 593 q 922 514 886 551 q 977 424 958 476 q 996 310 996 372 q 910 74 996 158 q 651 -12 824 -11 l 651 151 l 651 151 z "},"Ѓ":{"ha":663,"x_min":78,"x_max":642,"o":"m 642 972 l 642 771 l 310 771 l 310 0 l 78 0 l 78 972 l 642 972 m 610 1306 l 428 1067 l 279 1067 l 390 1306 l 610 1306 z "},"Є":{"ha":833,"x_min":42,"x_max":803,"o":"m 42 488 q 70 692 42 600 q 153 849 99 783 q 287 949 207 914 q 469 985 367 985 q 581 973 532 985 q 669 941 631 961 q 736 894 707 921 q 790 836 765 867 l 669 686 q 590 756 632 726 q 481 785 547 785 q 352 728 401 785 q 288 583 303 672 l 564 583 l 564 399 l 285 399 q 347 244 297 303 q 485 186 397 186 q 597 215 550 186 q 690 293 644 244 l 803 149 q 660 33 747 79 q 463 -12 574 -12 q 286 17 364 -12 q 154 108 208 46 q 71 264 100 169 q 42 488 42 358 z "},"Ѕ":{"ha":768,"x_min":29,"x_max":740,"o":"m 133 289 q 183 250 154 268 q 244 217 211 232 q 312 194 276 203 q 383 186 347 186 q 467 207 436 186 q 500 264 499 228 q 473 315 500 296 q 390 363 446 335 l 267 424 q 117 535 175 468 q 60 704 60 601 q 148 910 60 836 q 401 985 236 985 q 509 972 460 985 q 599 939 558 960 q 670 892 639 918 q 724 840 701 867 l 600 693 q 510 760 557 736 q 406 785 464 785 q 324 761 349 785 q 299 706 299 738 q 335 642 299 665 q 435 589 372 618 l 517 550 q 613 497 571 524 q 683 437 654 469 q 726 364 711 404 q 740 274 740 324 q 712 148 740 201 q 635 59 683 94 q 525 6 588 24 q 394 -12 463 -12 q 181 28 274 -12 q 29 129 88 69 l 133 289 z "},"І":{"ha":390,"x_min":78,"x_max":313,"o":"m 313 972 l 313 0 l 78 0 l 78 972 l 313 972 z "},"Ї":{"ha":390,"x_min":-39,"x_max":432,"o":"m 313 972 l 313 0 l 78 0 l 78 972 l 313 972 m 143 1278 l 143 1088 l -39 1088 l -39 1278 l 143 1278 m 432 1278 l 432 1088 l 250 1088 l 250 1278 l 432 1278 z "},"Ј":{"ha":514,"x_min":39,"x_max":443,"o":"m 39 182 q 106 194 75 183 q 159 226 136 204 q 195 283 182 249 q 208 367 208 317 l 208 972 l 443 972 l 443 364 q 341 76 443 164 q 39 -12 239 -11 l 39 182 l 39 182 z "},"Љ":{"ha":1306,"x_min":8,"x_max":1269,"o":"m 8 157 q 94 229 56 190 q 162 329 133 268 q 209 481 190 390 q 235 710 228 572 l 249 972 l 838 972 l 838 624 l 967 624 q 1189 549 1108 624 q 1269 317 1269 475 q 1239 174 1269 233 q 1160 76 1208 114 q 1049 19 1111 38 q 922 0 986 0 l 604 0 l 604 774 l 449 774 l 440 654 q 416 438 433 539 q 363 251 399 336 q 269 96 328 165 q 118 -26 210 26 l 8 157 m 906 178 q 1000 213 968 178 q 1032 314 1032 247 q 999 417 1032 389 q 908 446 967 446 l 833 446 l 833 178 l 906 178 z "},"Њ":{"ha":1296,"x_min":78,"x_max":1260,"o":"m 313 972 l 313 611 l 593 611 l 593 972 l 828 972 l 828 624 l 957 624 q 1179 549 1099 624 q 1260 317 1260 475 q 1229 174 1260 233 q 1149 76 1199 114 q 1038 19 1100 38 q 911 0 975 0 l 593 0 l 593 399 l 313 399 l 313 0 l 78 0 l 78 972 l 313 972 m 894 178 q 989 213 957 178 q 1021 314 1021 247 q 988 417 1021 389 q 899 446 956 446 l 822 446 l 822 178 l 894 178 z "},"Ћ":{"ha":1050,"x_min":21,"x_max":983,"o":"m 21 771 l 21 972 l 761 972 l 761 771 l 508 771 l 508 543 q 594 576 540 560 q 725 593 647 593 q 913 523 843 593 q 983 328 983 453 l 983 0 l 751 0 l 751 257 q 747 307 751 282 q 731 353 743 332 q 697 386 718 374 q 640 399 675 399 q 567 387 597 399 q 508 356 536 375 l 508 0 l 274 0 l 274 771 l 21 771 z "},"Ќ":{"ha":843,"x_min":78,"x_max":853,"o":"m 313 972 l 313 604 l 388 604 l 589 972 l 847 972 l 574 511 l 853 0 l 586 0 l 388 390 l 313 390 l 313 0 l 78 0 l 78 972 l 313 972 m 693 1306 l 511 1067 l 363 1067 l 474 1306 l 693 1306 z "},"Ў":{"ha":811,"x_min":-7,"x_max":817,"o":"m 154 185 q 192 177 171 179 q 226 175 213 175 q 288 198 264 175 q 325 257 311 221 l 336 286 l -7 972 l 253 972 l 403 604 q 417 557 410 585 q 432 499 425 529 l 442 499 q 453 558 447 532 q 465 601 460 585 l 578 972 l 817 972 l 546 239 q 427 51 501 115 q 228 -12 353 -12 q 175 -9 204 -12 q 121 3 146 -6 l 154 185 m 276 1318 q 294 1272 285 1293 q 319 1233 304 1250 q 357 1208 335 1217 q 411 1199 379 1199 q 464 1208 442 1199 q 501 1234 486 1218 q 526 1272 517 1250 q 544 1318 536 1293 l 696 1282 q 674 1207 692 1249 q 621 1128 656 1165 q 535 1067 586 1092 q 411 1042 483 1042 q 287 1067 339 1042 q 200 1128 235 1092 q 147 1207 165 1165 q 125 1282 129 1249 l 276 1318 z "},"Џ":{"ha":907,"x_min":78,"x_max":831,"o":"m 78 0 l 78 972 l 313 972 l 313 200 l 596 200 l 596 972 l 831 972 l 831 0 l 564 0 l 564 -264 l 344 -264 l 344 0 l 78 0 z "},"А":{"ha":918,"x_min":11,"x_max":908,"o":"m 483 635 q 469 689 476 657 q 458 749 463 721 l 447 749 q 433 690 440 722 q 419 636 425 658 l 361 418 l 538 418 l 483 635 m 583 972 l 908 0 l 665 0 l 592 217 l 310 217 l 242 0 l 11 0 l 333 972 l 583 972 z "},"Б":{"ha":786,"x_min":78,"x_max":750,"o":"m 681 972 l 681 771 l 313 771 l 313 590 l 444 590 q 750 299 750 590 q 717 155 750 213 q 636 63 685 97 q 529 14 588 28 q 421 0 471 0 l 78 0 l 78 972 l 681 972 m 393 178 q 477 203 443 178 q 511 299 511 229 q 502 355 511 333 q 477 389 493 376 q 440 406 461 401 q 393 411 418 411 l 308 411 l 308 178 l 393 178 z "},"В":{"ha":813,"x_min":78,"x_max":776,"o":"m 454 972 q 576 960 521 972 q 669 918 631 947 q 729 843 708 889 q 750 731 750 797 q 740 658 750 693 q 710 595 729 624 q 663 546 690 567 q 600 517 635 525 l 600 510 q 679 481 646 501 q 734 431 713 461 q 766 364 756 401 q 776 286 776 326 q 746 145 776 200 q 669 58 715 90 q 567 13 622 25 q 464 0 513 0 l 78 0 l 78 972 l 454 972 m 414 178 q 501 202 467 178 q 535 299 535 226 q 509 382 535 351 q 411 413 483 413 l 310 413 l 310 178 l 414 178 m 407 583 q 488 609 460 583 q 515 693 515 635 q 483 774 515 754 q 403 794 451 794 l 310 794 l 310 583 l 407 583 z "},"Г":{"ha":663,"x_min":78,"x_max":642,"o":"m 642 972 l 642 771 l 310 771 l 310 0 l 78 0 l 78 972 l 642 972 z "},"Д":{"ha":992,"x_min":19,"x_max":963,"o":"m 104 201 q 196 423 163 294 q 239 735 229 551 l 251 972 l 835 972 l 835 201 l 963 201 l 963 -224 l 758 -224 l 758 0 l 224 0 l 224 -224 l 19 -224 l 19 201 l 104 201 m 600 774 l 442 774 l 433 665 q 418 518 428 582 q 394 400 408 454 q 360 298 379 346 q 318 200 342 250 l 600 200 l 600 774 z "},"Е":{"ha":708,"x_min":78,"x_max":675,"o":"m 675 972 l 675 771 l 313 771 l 313 593 l 600 593 l 600 394 l 313 394 l 313 201 l 675 201 l 675 0 l 78 0 l 78 972 l 675 972 z "},"Ж":{"ha":1238,"x_min":3,"x_max":1235,"o":"m 10 972 l 260 972 l 424 581 l 503 581 l 503 972 l 736 972 l 736 581 l 814 581 l 979 972 l 1228 972 l 1011 501 l 1235 0 l 978 0 l 814 401 l 736 401 l 736 0 l 503 0 l 503 401 l 424 401 l 260 0 l 3 0 l 226 501 l 10 972 z "},"З":{"ha":769,"x_min":3,"x_max":731,"o":"m 110 290 q 201 219 144 251 q 336 186 257 186 q 453 217 415 186 q 490 300 490 247 q 459 374 490 349 q 372 399 428 399 l 253 399 l 253 583 l 364 583 q 472 688 472 583 q 438 763 472 740 q 356 785 404 785 q 242 756 296 785 q 147 682 188 726 l 19 817 q 81 876 44 846 q 163 930 117 906 q 267 969 210 954 q 390 985 324 985 q 631 916 549 985 q 713 725 713 847 q 701 653 713 688 q 667 590 689 618 q 617 542 646 561 q 556 515 589 522 l 556 506 q 622 484 590 501 q 678 439 654 467 q 716 374 701 411 q 731 292 731 336 q 703 165 731 221 q 626 69 675 108 q 509 8 578 29 q 360 -12 440 -12 q 156 27 251 -12 q 3 136 61 67 l 110 290 z "},"И":{"ha":913,"x_min":78,"x_max":835,"o":"m 313 972 l 313 521 q 309 456 313 496 q 301 386 306 417 l 311 386 q 335 442 321 410 q 360 494 349 475 l 632 972 l 835 972 l 835 0 l 600 0 l 600 442 q 603 506 600 467 q 611 576 607 546 l 601 576 q 578 520 592 553 q 553 468 564 488 l 281 0 l 78 0 l 78 972 l 313 972 z "},"Й":{"ha":913,"x_min":78,"x_max":835,"o":"m 313 972 l 313 521 q 309 456 313 496 q 301 386 306 417 l 311 386 q 335 442 321 410 q 360 494 349 475 l 632 972 l 835 972 l 835 0 l 600 0 l 600 442 q 603 506 600 467 q 611 576 607 546 l 601 576 q 578 520 592 553 q 553 468 564 488 l 281 0 l 78 0 l 78 972 l 313 972 m 322 1318 q 340 1272 331 1293 q 365 1233 350 1250 q 403 1208 381 1217 q 457 1199 425 1199 q 510 1208 488 1199 q 547 1234 532 1218 q 572 1272 563 1250 q 590 1318 582 1293 l 742 1282 q 719 1207 738 1249 q 667 1128 701 1165 q 581 1067 632 1092 q 457 1042 529 1042 q 333 1067 385 1042 q 246 1128 281 1092 q 193 1207 211 1165 q 171 1282 175 1249 l 322 1318 z "},"К":{"ha":843,"x_min":78,"x_max":853,"o":"m 313 972 l 313 604 l 388 604 l 589 972 l 847 972 l 574 511 l 853 0 l 586 0 l 388 390 l 313 390 l 313 0 l 78 0 l 78 972 l 313 972 z "},"Л":{"ha":915,"x_min":8,"x_max":838,"o":"m 8 157 q 94 229 56 190 q 162 329 133 268 q 209 481 190 390 q 235 710 228 572 l 249 972 l 838 972 l 838 0 l 604 0 l 604 774 l 449 774 l 440 654 q 416 438 433 539 q 363 251 399 336 q 269 96 328 165 q 118 -26 210 26 l 8 157 l 8 157 z "},"М":{"ha":1106,"x_min":67,"x_max":1039,"o":"m 388 972 l 517 572 q 532 513 525 544 q 546 447 539 482 l 557 447 q 570 515 563 481 q 586 574 578 549 l 715 972 l 969 972 l 1039 0 l 804 0 l 776 435 q 774 472 775 449 q 773 519 774 494 q 772 568 772 544 q 772 607 772 592 l 761 607 l 636 193 l 463 193 l 338 607 l 325 607 q 324 572 325 594 q 324 525 324 550 q 323 475 324 500 q 321 433 322 450 l 294 0 l 67 0 l 135 972 l 388 972 z "},"Н":{"ha":910,"x_min":78,"x_max":832,"o":"m 313 972 l 313 611 l 597 611 l 597 972 l 832 972 l 832 0 l 597 0 l 597 399 l 313 399 l 313 0 l 78 0 l 78 972 l 313 972 z "},"О":{"ha":946,"x_min":42,"x_max":904,"o":"m 42 486 q 69 694 42 601 q 149 851 96 786 q 284 950 203 915 q 474 985 365 985 q 663 950 582 985 q 797 851 743 915 q 878 694 851 786 q 904 486 904 601 q 878 278 904 371 q 797 122 851 186 q 663 22 743 57 q 474 -12 582 -12 q 284 22 365 -12 q 149 122 203 57 q 69 278 96 186 q 42 486 42 371 m 667 486 q 659 593 667 539 q 631 691 651 647 q 572 763 610 735 q 474 790 533 790 q 375 763 413 790 q 317 691 338 735 q 288 593 296 647 q 281 486 281 539 q 288 379 281 433 q 317 281 296 325 q 375 210 338 238 q 474 182 413 182 q 572 210 533 182 q 631 281 610 238 q 659 379 651 325 q 667 486 667 433 z "},"П":{"ha":901,"x_min":78,"x_max":822,"o":"m 822 972 l 822 0 l 593 0 l 593 771 l 307 771 l 307 0 l 78 0 l 78 972 l 822 972 z "},"Р":{"ha":779,"x_min":78,"x_max":749,"o":"m 439 972 q 545 958 490 972 q 645 909 600 944 q 719 814 690 874 q 749 664 749 754 q 724 526 749 586 q 656 424 700 465 q 552 360 613 382 q 418 339 492 339 l 313 339 l 313 0 l 78 0 l 78 972 l 439 972 m 393 518 q 476 552 440 518 q 511 663 511 586 q 476 764 511 733 q 396 794 442 794 l 308 794 l 308 518 l 393 518 z "},"С":{"ha":829,"x_min":42,"x_max":797,"o":"m 42 481 q 69 689 42 596 q 151 848 97 782 q 285 949 206 914 q 467 985 364 985 q 578 973 529 985 q 664 941 626 961 q 731 894 701 921 q 786 836 761 867 l 665 686 q 627 724 646 706 q 586 755 608 742 q 538 776 564 768 q 478 785 511 785 q 388 760 425 785 q 327 694 351 736 q 292 597 303 653 q 281 481 281 542 q 335 260 281 335 q 481 186 389 186 q 594 215 547 186 q 685 293 640 244 l 797 149 q 657 33 743 79 q 467 -12 571 -12 q 153 107 264 -12 q 42 481 42 226 z "},"Т":{"ha":782,"x_min":21,"x_max":761,"o":"m 21 771 l 21 972 l 761 972 l 761 771 l 508 771 l 508 0 l 274 0 l 274 771 l 21 771 z "},"У":{"ha":811,"x_min":-7,"x_max":817,"o":"m 154 185 q 192 177 171 179 q 226 175 213 175 q 288 198 264 175 q 325 257 311 221 l 336 286 l -7 972 l 253 972 l 403 604 q 417 557 410 585 q 432 499 425 529 l 442 499 q 453 558 447 532 q 465 601 460 585 l 578 972 l 817 972 l 546 239 q 427 51 501 115 q 228 -12 353 -12 q 175 -9 204 -12 q 121 3 146 -6 l 154 185 z "},"Ф":{"ha":1108,"x_min":40,"x_max":1068,"o":"m 438 111 q 274 135 347 111 q 149 208 201 160 q 69 327 97 256 q 40 493 40 399 q 69 658 40 586 q 151 778 99 729 q 276 853 203 828 q 438 878 350 878 l 438 997 l 671 997 l 671 878 q 833 853 760 878 q 959 778 907 828 q 1040 658 1011 729 q 1068 493 1068 586 q 1039 327 1068 399 q 958 208 1010 256 q 833 135 906 160 q 671 111 760 111 l 671 -14 l 438 -14 l 438 111 m 446 711 q 320 651 363 708 q 278 493 278 593 q 318 337 278 393 q 446 278 358 281 l 446 711 m 831 493 q 788 651 831 593 q 663 711 746 708 l 663 278 q 790 337 750 281 q 831 493 831 393 z "},"Х":{"ha":821,"x_min":1,"x_max":819,"o":"m 22 972 l 279 972 l 390 694 q 401 666 396 682 q 411 635 407 650 l 419 635 q 431 665 425 650 q 442 693 436 681 l 557 972 l 801 972 l 564 496 l 819 0 l 561 0 l 435 296 q 422 329 428 311 q 410 365 415 347 l 401 365 q 388 329 396 349 q 375 296 381 310 l 247 0 l 1 0 l 256 496 l 22 972 z "},"Ц":{"ha":960,"x_min":78,"x_max":931,"o":"m 78 0 l 78 972 l 313 972 l 313 200 l 568 200 l 568 972 l 803 972 l 803 201 l 931 201 l 931 -224 l 726 -224 l 726 0 l 78 0 z "},"Ч":{"ha":840,"x_min":49,"x_max":763,"o":"m 528 375 q 440 339 494 356 q 308 322 385 322 q 202 340 250 322 q 120 392 154 358 q 67 475 86 426 q 49 586 49 524 l 49 972 l 281 972 l 281 660 q 285 610 281 635 q 303 567 290 586 q 337 535 315 547 q 393 524 358 524 q 469 534 438 524 q 528 565 500 544 l 528 972 l 763 972 l 763 0 l 528 0 l 528 375 l 528 375 z "},"Ш":{"ha":1229,"x_min":78,"x_max":1151,"o":"m 311 972 l 311 200 l 500 200 l 500 972 l 729 972 l 729 200 l 918 200 l 918 972 l 1151 972 l 1151 0 l 78 0 l 78 972 l 311 972 z "},"Щ":{"ha":1310,"x_min":78,"x_max":1279,"o":"m 78 0 l 78 972 l 311 972 l 311 200 l 500 200 l 500 972 l 729 972 l 729 200 l 918 200 l 918 972 l 1151 972 l 1151 201 l 1279 201 l 1279 -224 l 1075 -224 l 1075 0 l 78 0 z "},"Ъ":{"ha":965,"x_min":18,"x_max":929,"o":"m 18 771 l 18 972 l 497 972 l 497 624 l 626 624 q 849 549 768 624 q 929 317 929 475 q 899 174 929 233 q 819 76 868 114 q 708 19 771 38 q 581 0 644 0 l 263 0 l 263 771 l 18 771 m 565 178 q 660 213 628 178 q 692 314 692 247 q 658 417 692 389 q 568 446 625 446 l 493 446 l 493 178 l 565 178 z "},"Ы":{"ha":1142,"x_min":78,"x_max":1064,"o":"m 313 972 l 313 624 l 435 624 q 656 549 576 624 q 735 317 735 475 q 705 174 735 233 q 626 76 675 114 q 515 19 576 38 q 389 0 453 0 l 78 0 l 78 972 l 313 972 m 375 178 q 470 213 438 178 q 503 314 503 247 q 469 417 503 389 q 379 446 436 446 l 308 446 l 308 178 l 375 178 m 1064 972 l 1064 0 l 829 0 l 829 972 l 1064 972 z "},"Ь":{"ha":781,"x_min":78,"x_max":744,"o":"m 313 972 l 313 624 l 442 624 q 664 549 583 624 q 744 317 744 475 q 714 174 744 233 q 635 76 683 114 q 523 19 586 38 q 396 0 460 0 l 78 0 l 78 972 l 313 972 m 381 178 q 475 213 443 178 q 507 314 507 247 q 474 417 507 389 q 383 446 440 446 l 308 446 l 308 178 l 381 178 z "},"Э":{"ha":857,"x_min":32,"x_max":817,"o":"m 139 290 q 231 219 175 251 q 360 186 288 186 q 505 244 449 186 q 572 399 561 301 l 297 399 l 297 583 l 572 583 q 522 729 567 674 q 389 785 476 785 q 267 756 318 785 q 174 682 217 726 l 46 817 q 103 873 68 843 q 186 928 139 903 q 290 969 233 953 q 411 985 346 985 q 576 955 501 985 q 705 865 651 925 q 788 715 758 804 q 817 504 817 625 q 783 278 817 375 q 690 116 750 181 q 548 19 631 51 q 367 -12 465 -12 q 267 -1 315 -12 q 174 31 218 11 q 94 77 131 50 q 32 136 58 104 l 139 290 z "},"Ю":{"ha":1317,"x_min":78,"x_max":1275,"o":"m 313 399 l 313 0 l 78 0 l 78 972 l 313 972 l 313 611 l 444 611 q 571 885 471 786 q 854 985 671 985 q 1042 950 963 985 q 1173 851 1121 915 q 1250 694 1225 786 q 1275 486 1275 601 q 1250 278 1275 371 q 1173 122 1225 186 q 1042 22 1121 57 q 854 -12 963 -12 q 684 16 757 -12 q 560 97 611 44 q 478 226 508 150 q 439 399 449 303 l 313 399 m 1036 486 q 1030 593 1036 539 q 1005 691 1024 647 q 950 763 986 735 q 854 790 914 790 q 757 763 793 790 q 701 691 721 735 q 676 593 682 647 q 669 486 669 539 q 676 379 669 433 q 701 281 682 325 q 757 210 721 238 q 854 182 793 182 q 950 210 914 182 q 1005 281 986 238 q 1030 379 1024 325 q 1036 486 1036 433 z "},"Я":{"ha":821,"x_min":1,"x_max":743,"o":"m 221 388 q 101 489 146 419 q 56 671 56 558 q 88 817 56 758 q 169 910 119 875 q 277 958 218 944 q 389 972 336 972 l 743 972 l 743 0 l 508 0 l 508 356 l 444 356 l 265 0 l 1 0 l 221 388 m 514 794 l 413 794 q 329 765 364 794 q 294 665 294 736 q 305 603 294 628 q 333 562 315 578 q 372 540 350 546 q 415 533 393 533 l 514 533 l 514 794 z "},"а":{"ha":724,"x_min":29,"x_max":658,"o":"m 29 196 q 54 305 29 261 q 119 374 79 349 q 210 410 160 400 q 313 421 261 421 l 433 421 l 433 426 q 408 499 433 472 q 324 526 382 526 q 230 509 275 526 q 144 464 185 492 l 78 601 q 213 667 136 642 q 372 693 290 693 q 478 679 426 693 q 569 633 529 665 q 634 550 610 601 q 658 422 658 499 l 658 0 l 439 0 l 439 88 l 436 88 q 402 58 422 75 q 355 24 382 40 q 292 -2 328 8 q 214 -12 257 -12 q 142 1 176 -12 q 83 40 108 14 q 44 106 58 67 q 29 196 29 144 m 440 299 l 354 299 q 285 281 310 299 q 261 226 261 263 q 276 181 261 199 q 325 164 290 164 q 391 186 363 164 q 440 236 419 208 l 440 299 z "},"б":{"ha":751,"x_min":36,"x_max":719,"o":"m 36 414 q 50 603 36 518 q 94 754 64 689 q 174 867 125 819 q 296 942 224 914 q 390 975 346 961 q 473 1002 433 989 q 549 1030 513 1015 q 618 1067 585 1044 l 685 919 q 620 874 654 892 q 549 842 586 856 q 469 815 511 828 q 381 785 426 803 q 253 685 292 753 q 207 514 214 618 l 215 511 q 306 625 251 586 q 440 664 360 664 q 563 640 510 664 q 650 572 615 615 q 702 467 685 528 q 719 333 719 407 q 696 190 719 254 q 628 81 672 126 q 521 12 583 36 q 382 -12 458 -12 q 128 94 219 -12 q 36 414 36 200 m 489 325 q 460 458 489 421 q 382 494 431 494 q 301 450 329 494 q 272 325 272 406 q 297 198 272 242 q 382 154 322 154 q 462 198 435 154 q 489 325 489 242 z "},"в":{"ha":697,"x_min":65,"x_max":667,"o":"m 428 681 q 533 667 490 681 q 600 631 575 654 q 635 576 625 608 q 646 508 646 544 q 617 417 646 460 q 529 360 588 374 l 529 356 q 634 303 601 346 q 667 201 667 261 q 605 53 667 106 q 431 0 543 0 l 65 0 l 65 681 l 428 681 m 338 139 q 410 155 388 139 q 432 214 432 171 q 410 269 432 254 q 357 285 389 285 l 285 285 l 285 139 l 338 139 m 344 411 q 406 429 392 411 q 421 483 421 447 q 402 528 421 514 q 351 542 383 542 l 285 542 l 285 411 l 344 411 z "},"г":{"ha":560,"x_min":65,"x_max":540,"o":"m 540 681 l 540 501 l 290 501 l 290 0 l 65 0 l 65 681 l 540 681 z "},"д":{"ha":828,"x_min":19,"x_max":803,"o":"m 92 179 q 123 231 108 204 q 150 297 138 258 q 172 390 163 336 q 186 525 181 444 l 196 681 l 693 681 l 693 179 l 803 179 l 803 -181 l 619 -181 l 619 0 l 203 0 l 203 -181 l 19 -181 l 19 179 l 92 179 m 471 506 l 365 506 l 361 439 q 338 290 356 351 q 290 175 319 229 l 471 175 l 471 506 z "},"е":{"ha":706,"x_min":33,"x_max":674,"o":"m 33 336 q 58 489 33 422 q 127 601 82 556 q 234 669 172 646 q 371 693 296 693 q 515 665 457 693 q 609 591 574 638 q 659 485 644 544 q 674 361 674 425 l 674 299 l 261 299 q 272 249 263 274 q 299 204 281 224 q 344 172 317 185 q 410 160 372 160 q 499 176 461 160 q 578 231 538 193 l 658 96 q 534 17 600 46 q 385 -12 468 -12 q 252 3 315 -12 q 140 60 189 19 q 63 167 92 100 q 33 336 33 233 m 461 424 q 434 506 458 472 q 363 539 410 539 q 299 513 328 539 q 263 424 269 486 l 461 424 z "},"ж":{"ha":1057,"x_min":1,"x_max":1056,"o":"m 7 681 l 250 681 l 358 424 l 419 424 l 419 681 l 638 681 l 638 424 l 699 424 l 807 681 l 1050 681 l 888 351 l 1056 0 l 808 0 l 700 258 l 638 258 l 638 0 l 419 0 l 419 258 l 358 258 l 250 0 l 1 0 l 171 351 l 7 681 z "},"з":{"ha":668,"x_min":7,"x_max":635,"o":"m 74 233 q 166 181 113 206 q 282 156 219 156 q 355 169 326 156 q 383 218 383 182 q 368 256 383 242 q 314 271 353 271 l 221 271 l 221 414 l 314 414 q 358 428 342 414 q 374 467 374 443 q 288 524 374 524 q 179 504 225 524 q 108 463 133 485 l 31 601 q 358 693 160 693 q 490 676 439 693 q 568 632 540 658 q 606 574 596 606 q 617 515 617 543 q 588 422 617 465 q 496 358 560 378 l 496 354 q 565 332 538 349 q 607 293 592 315 q 628 247 622 271 q 635 204 635 224 q 549 43 635 99 q 315 -12 464 -12 q 128 20 201 -12 q 7 94 54 53 l 74 233 z "},"и":{"ha":778,"x_min":65,"x_max":713,"o":"m 290 681 l 290 406 q 289 359 290 382 q 285 311 288 336 l 290 311 q 309 351 301 335 q 326 383 317 368 l 510 681 l 713 681 l 713 0 l 488 0 l 488 275 q 490 322 488 299 q 494 369 492 344 l 488 369 q 468 329 476 346 q 450 297 460 313 l 267 0 l 65 0 l 65 681 l 290 681 z "},"й":{"ha":778,"x_min":65,"x_max":713,"o":"m 290 681 l 290 406 q 289 359 290 382 q 285 311 288 336 l 290 311 q 309 351 301 335 q 326 383 317 368 l 510 681 l 713 681 l 713 0 l 488 0 l 488 275 q 490 322 488 299 q 494 369 492 344 l 488 369 q 468 329 476 346 q 450 297 460 313 l 267 0 l 65 0 l 65 681 l 290 681 m 288 1000 q 319 927 299 957 q 389 897 340 897 q 459 926 438 897 q 490 1000 481 956 l 633 969 q 616 893 631 932 q 572 822 601 854 q 498 770 543 790 q 389 750 453 750 q 279 770 324 750 q 206 823 235 790 q 163 894 176 856 q 144 971 149 933 l 288 1000 z "},"к":{"ha":735,"x_min":65,"x_max":743,"o":"m 290 681 l 290 442 l 350 442 l 489 681 l 743 681 l 529 358 l 743 0 l 490 0 l 350 254 l 290 254 l 290 0 l 65 0 l 65 681 l 290 681 z "},"л":{"ha":775,"x_min":8,"x_max":710,"o":"m 8 143 q 72 185 42 163 q 124 248 101 208 q 163 353 147 288 q 186 522 179 418 l 194 681 l 710 681 l 710 0 l 485 0 l 485 504 l 381 504 l 376 433 q 353 276 371 349 q 301 146 335 204 q 216 43 268 88 q 92 -29 164 -1 l 8 143 l 8 143 z "},"м":{"ha":950,"x_min":53,"x_max":897,"o":"m 351 681 l 438 444 q 453 390 446 421 q 468 333 461 360 l 476 333 q 491 390 482 360 q 510 444 500 421 l 599 681 l 842 681 l 897 0 l 674 0 l 654 269 q 649 348 651 314 q 647 401 647 382 l 639 401 l 549 136 l 394 136 l 307 401 l 297 401 q 294 350 296 382 q 289 269 292 318 l 268 0 l 53 0 l 111 681 l 351 681 z "},"н":{"ha":767,"x_min":65,"x_max":703,"o":"m 290 681 l 290 440 l 476 440 l 476 681 l 703 681 l 703 0 l 476 0 l 476 253 l 290 253 l 290 0 l 65 0 l 65 681 l 290 681 z "},"о":{"ha":747,"x_min":33,"x_max":715,"o":"m 33 339 q 58 494 33 428 q 126 605 82 561 q 234 671 171 649 q 375 693 297 693 q 516 671 453 693 q 624 605 579 649 q 692 494 668 561 q 715 339 715 428 q 691 184 715 250 q 622 74 667 118 q 515 9 578 31 q 374 -12 451 -12 q 233 9 296 -12 q 125 74 169 31 q 57 184 81 118 q 33 339 33 250 m 486 339 q 460 477 486 428 q 375 526 433 526 q 289 477 317 526 q 261 339 261 428 q 288 203 261 251 q 374 154 315 154 q 459 203 432 154 q 486 339 486 251 z "},"п":{"ha":760,"x_min":65,"x_max":696,"o":"m 696 681 l 696 0 l 469 0 l 469 501 l 290 501 l 290 0 l 65 0 l 65 681 l 696 681 z "},"р":{"ha":756,"x_min":65,"x_max":721,"o":"m 285 681 l 285 590 l 288 590 q 316 616 297 599 q 362 650 335 633 q 423 680 389 667 q 494 693 457 693 q 595 669 553 693 q 665 600 638 644 q 707 494 693 556 q 721 358 721 432 q 704 216 721 283 q 654 98 688 149 q 572 17 621 47 q 457 -12 522 -12 q 400 -6 425 -12 q 354 10 375 0 q 318 29 333 19 q 290 47 303 39 l 289 47 q 290 5 289 31 q 290 -32 290 -21 l 290 -347 l 65 -347 l 65 681 l 285 681 m 493 343 q 489 403 493 374 q 475 455 485 432 q 448 492 465 478 q 406 506 431 506 q 369 498 386 506 q 335 479 351 490 q 307 456 319 468 q 286 432 294 443 l 286 207 q 332 172 307 188 q 389 156 357 156 q 470 209 447 156 q 493 343 493 263 z "},"с":{"ha":663,"x_min":33,"x_max":642,"o":"m 33 339 q 58 490 33 424 q 128 601 83 556 q 233 669 172 646 q 367 693 294 693 q 471 683 426 693 q 548 656 515 672 q 602 622 581 640 q 636 588 624 603 l 532 456 q 472 498 504 479 q 394 517 440 517 q 295 468 329 517 q 261 340 261 419 q 294 210 261 256 q 399 164 328 164 q 480 182 446 164 q 549 232 514 200 l 642 108 q 597 66 622 88 q 537 27 571 44 q 459 -1 503 10 q 361 -12 415 -12 q 240 6 299 -12 q 135 65 181 24 q 61 174 89 107 q 33 339 33 240 z "},"т":{"ha":651,"x_min":19,"x_max":632,"o":"m 19 501 l 19 681 l 632 681 l 632 501 l 439 501 l 439 0 l 214 0 l 214 501 l 19 501 z "},"у":{"ha":707,"x_min":-1,"x_max":707,"o":"m 63 -183 q 117 -187 89 -187 q 155 -182 135 -187 q 194 -162 175 -176 q 228 -124 213 -147 q 254 -64 244 -100 l 269 -11 l -1 681 l 243 681 l 343 346 q 356 295 350 325 q 365 238 363 265 l 372 238 q 381 292 375 258 q 393 347 388 326 l 479 681 l 707 681 l 446 -110 q 326 -297 406 -233 q 139 -360 247 -360 q 88 -356 113 -360 q 44 -344 63 -351 l 63 -183 z "},"ф":{"ha":996,"x_min":33,"x_max":964,"o":"m 389 -12 q 269 6 332 -12 q 153 65 206 24 q 67 174 101 107 q 33 340 33 242 q 67 515 33 446 q 153 623 101 583 q 269 678 206 663 q 389 693 332 693 l 389 1028 l 608 1028 l 608 693 q 728 678 665 693 q 843 623 790 663 q 930 515 896 583 q 964 340 964 446 q 930 174 964 242 q 844 65 896 107 q 729 6 792 24 q 608 -12 667 -12 l 608 -347 l 389 -347 l 389 -12 m 397 532 q 333 517 360 532 q 290 475 307 501 q 266 414 274 449 q 258 340 258 379 q 266 265 258 300 q 290 205 274 231 q 333 164 307 179 q 397 149 360 149 l 397 532 m 739 340 q 731 414 739 379 q 707 475 724 449 q 664 517 690 501 q 600 532 638 532 l 600 149 q 664 164 638 149 q 707 205 690 179 q 731 265 724 231 q 739 340 739 300 z "},"х":{"ha":718,"x_min":1,"x_max":718,"o":"m 15 681 l 268 681 l 338 504 q 349 469 343 489 q 358 438 356 450 l 365 438 q 374 469 368 451 q 386 504 379 486 l 458 681 l 703 681 l 518 358 l 718 0 l 464 0 l 385 174 q 370 209 378 189 q 356 249 363 229 l 350 249 q 336 209 343 229 q 322 174 329 189 l 244 0 l 1 0 l 203 358 l 15 681 z "},"ц":{"ha":806,"x_min":65,"x_max":781,"o":"m 65 0 l 65 681 l 290 681 l 290 176 l 446 176 l 446 681 l 671 681 l 671 179 l 781 179 l 781 -181 l 597 -181 l 597 0 l 65 0 z "},"ч":{"ha":699,"x_min":42,"x_max":633,"o":"m 406 256 q 376 238 394 249 q 334 216 357 226 q 284 198 311 206 q 229 190 257 190 q 140 208 175 190 q 82 255 104 226 q 51 319 60 283 q 42 392 42 356 l 42 681 l 261 681 l 261 450 q 324 376 261 376 q 370 387 350 376 q 408 414 390 397 l 408 681 l 633 681 l 633 0 l 408 0 l 408 256 l 406 256 z "},"ш":{"ha":1067,"x_min":65,"x_max":1001,"o":"m 288 681 l 288 176 l 424 176 l 424 681 l 643 681 l 643 176 l 779 176 l 779 681 l 1001 681 l 1001 0 l 65 0 l 65 681 l 288 681 z "},"щ":{"ha":1138,"x_min":65,"x_max":1113,"o":"m 65 0 l 65 681 l 288 681 l 288 176 l 424 176 l 424 681 l 643 681 l 643 176 l 779 176 l 779 681 l 1001 681 l 1001 179 l 1113 179 l 1113 -181 l 928 -181 l 928 0 l 65 0 z "},"ъ":{"ha":817,"x_min":18,"x_max":788,"o":"m 18 501 l 18 681 l 431 681 l 431 464 l 532 464 q 628 452 582 464 q 709 414 674 440 q 766 344 744 388 q 788 236 788 300 q 771 142 788 185 q 720 67 754 99 q 636 18 686 36 q 519 0 586 0 l 206 0 l 206 501 l 18 501 m 467 142 q 535 163 511 142 q 558 238 558 183 q 533 306 558 289 q 474 322 508 322 l 422 322 l 422 142 l 467 142 z "},"ы":{"ha":996,"x_min":65,"x_max":931,"o":"m 290 681 l 290 464 l 381 464 q 472 452 426 464 q 552 414 517 440 q 610 344 588 388 q 632 236 632 300 q 615 144 632 188 q 566 69 599 101 q 484 19 533 38 q 368 0 435 0 l 65 0 l 65 681 l 290 681 m 324 142 q 392 163 368 142 q 415 238 415 183 q 390 306 415 289 q 331 322 365 322 l 282 322 l 282 142 l 324 142 m 931 681 l 931 0 l 704 0 l 704 681 l 931 681 z "},"ь":{"ha":676,"x_min":65,"x_max":647,"o":"m 290 681 l 290 464 l 393 464 q 484 453 439 464 q 566 416 529 442 q 625 347 603 390 q 647 236 647 303 q 631 144 647 188 q 581 69 614 101 q 497 19 547 38 q 381 0 447 0 l 65 0 l 65 681 l 290 681 m 326 142 q 394 163 371 142 q 418 238 418 183 q 393 306 418 289 q 333 322 368 322 l 282 322 l 282 142 l 326 142 z "},"э":{"ha":696,"x_min":22,"x_max":664,"o":"m 89 233 q 174 181 124 207 q 285 156 225 156 q 390 189 358 156 q 428 271 421 222 l 236 271 l 236 414 l 428 414 q 385 493 419 463 q 286 524 351 524 q 198 507 240 524 q 118 463 156 490 l 40 600 q 81 629 54 613 q 144 660 107 646 q 229 683 182 674 q 333 693 276 693 q 477 669 415 693 q 581 600 539 644 q 643 493 622 556 q 664 353 664 431 q 633 183 664 253 q 553 70 603 114 q 438 7 503 26 q 304 -12 372 -12 q 142 19 210 -12 q 22 94 74 50 l 89 233 z "},"ю":{"ha":1065,"x_min":65,"x_max":1032,"o":"m 290 253 l 290 0 l 65 0 l 65 681 l 290 681 l 290 440 l 383 440 q 493 632 408 571 q 700 693 578 693 q 835 672 774 693 q 940 608 896 651 q 1008 497 983 564 q 1032 339 1032 431 q 1008 181 1032 247 q 939 72 983 114 q 833 8 894 29 q 700 -12 772 -12 q 488 51 574 -12 q 382 253 403 114 l 290 253 m 807 339 q 803 409 807 375 q 787 469 799 443 q 754 510 775 494 q 701 526 733 526 q 647 510 668 526 q 614 469 626 494 q 597 409 601 443 q 593 339 593 375 q 597 269 593 303 q 613 210 601 236 q 646 169 625 185 q 700 154 667 154 q 753 169 732 154 q 785 211 774 185 q 802 270 797 238 q 807 339 807 303 z "},"я":{"ha":724,"x_min":6,"x_max":658,"o":"m 171 260 q 75 342 100 288 q 50 454 50 397 q 64 543 50 501 q 106 615 78 585 q 180 663 135 646 q 288 681 225 681 l 658 681 l 658 0 l 433 0 l 433 239 l 383 239 l 256 0 l 6 0 l 171 260 m 440 539 l 351 539 q 299 519 319 539 q 279 454 279 499 q 304 394 279 410 q 365 379 329 379 l 440 379 l 440 539 z "},"ё":{"ha":706,"x_min":33,"x_max":674,"o":"m 33 336 q 58 489 33 422 q 127 601 82 556 q 234 669 172 646 q 371 693 296 693 q 515 665 457 693 q 609 591 574 638 q 659 485 644 544 q 674 361 674 425 l 674 299 l 261 299 q 272 249 263 274 q 299 204 281 224 q 344 172 317 185 q 410 160 372 160 q 499 176 461 160 q 578 231 538 193 l 658 96 q 534 17 600 46 q 385 -12 468 -12 q 252 3 315 -12 q 140 60 189 19 q 63 167 92 100 q 33 336 33 233 m 461 424 q 434 506 458 472 q 363 539 410 539 q 299 513 328 539 q 263 424 269 486 l 461 424 m 318 979 l 318 801 l 151 801 l 151 979 l 318 979 m 585 979 l 585 801 l 418 801 l 418 979 l 585 979 z "},"ђ":{"ha":810,"x_min":-33,"x_max":744,"o":"m 394 -201 q 492 -140 465 -194 q 519 24 519 -85 l 519 357 q 517 395 519 376 q 508 428 515 414 q 488 451 501 443 q 454 460 475 460 q 388 438 418 460 q 336 393 358 417 l 336 0 l 111 0 l 111 744 l -33 744 l -33 876 l 111 876 l 111 1028 l 336 1028 l 336 876 l 582 876 l 582 744 l 336 744 l 336 644 q 335 601 336 622 q 335 554 335 581 l 336 554 q 438 630 385 599 q 565 661 492 661 q 694 604 644 661 q 744 435 744 547 l 744 29 q 720 -132 744 -60 q 650 -255 696 -204 q 540 -333 604 -306 q 394 -360 475 -360 l 394 -201 l 394 -201 z "},"ѓ":{"ha":560,"x_min":65,"x_max":540,"o":"m 540 681 l 540 501 l 290 501 l 290 0 l 65 0 l 65 681 l 540 681 m 526 1007 l 361 799 l 217 799 l 317 1007 l 526 1007 z "},"є":{"ha":669,"x_min":33,"x_max":649,"o":"m 33 339 q 59 490 33 424 q 131 601 85 556 q 241 669 178 646 q 379 693 304 693 q 481 683 438 693 q 556 656 525 672 q 608 622 588 640 q 643 588 629 603 l 546 463 q 486 505 518 486 q 403 524 454 524 q 314 493 350 524 q 265 414 278 463 l 467 414 l 467 271 l 264 271 q 311 186 275 217 q 403 156 347 156 q 488 174 450 156 q 561 224 526 192 l 649 108 q 603 66 629 88 q 542 27 576 44 q 465 -1 508 10 q 367 -12 421 -12 q 244 6 304 -12 q 137 65 183 24 q 62 174 90 107 q 33 339 33 240 z "},"ѕ":{"ha":663,"x_min":32,"x_max":625,"o":"m 108 232 q 217 176 160 196 q 332 156 274 156 q 404 196 404 156 q 378 229 404 217 q 311 257 353 242 l 208 301 q 98 376 138 331 q 58 494 58 422 q 133 642 58 590 q 336 693 208 693 q 503 665 436 693 q 615 593 571 636 l 526 461 q 448 506 494 489 q 344 524 401 524 q 294 515 313 524 q 275 486 275 506 q 301 455 275 467 q 367 428 326 443 l 457 390 q 583 310 542 357 q 625 193 625 264 q 603 105 625 143 q 544 40 582 67 q 451 1 506 14 q 333 -12 397 -12 q 161 17 238 -12 q 32 93 85 47 l 108 232 z "},"і":{"ha":358,"x_min":67,"x_max":292,"o":"m 292 681 l 292 0 l 67 0 l 67 681 l 292 681 m 292 968 l 292 793 l 67 793 l 67 968 l 292 968 z "},"ї":{"ha":358,"x_min":-36,"x_max":397,"o":"m 292 681 l 292 0 l 67 0 l 67 681 l 292 681 m 131 979 l 131 801 l -36 801 l -36 979 l 131 979 m 397 979 l 397 801 l 231 801 l 231 979 l 397 979 z "},"ј":{"ha":358,"x_min":-60,"x_max":292,"o":"m -60 -201 q 39 -144 11 -194 q 67 10 67 -93 l 67 681 l 292 681 l 292 15 q 203 -267 292 -174 q -60 -360 114 -360 l -60 -201 m 292 968 l 292 793 l 67 793 l 67 968 l 292 968 z "},"љ":{"ha":1093,"x_min":8,"x_max":1067,"o":"m 8 143 q 72 185 42 163 q 124 248 101 208 q 163 353 147 288 q 186 522 179 418 l 194 681 l 710 681 l 710 464 l 811 464 q 903 452 857 464 q 985 414 949 440 q 1044 344 1022 388 q 1067 236 1067 300 q 1050 144 1067 188 q 999 69 1033 101 q 915 19 965 38 q 799 0 865 0 l 485 0 l 485 504 l 381 504 l 376 433 q 353 276 371 349 q 301 146 335 204 q 216 43 268 88 q 92 -29 164 -1 l 8 143 m 744 142 q 813 163 789 142 q 838 238 838 183 q 813 306 838 289 q 753 322 788 322 l 701 322 l 701 142 l 744 142 z "},"њ":{"ha":1083,"x_min":65,"x_max":1056,"o":"m 290 681 l 290 440 l 474 440 l 474 681 l 700 681 l 700 464 l 801 464 q 893 452 847 464 q 975 414 939 440 q 1033 344 1011 388 q 1056 236 1056 300 q 1039 144 1056 188 q 989 69 1022 101 q 906 19 956 38 q 789 0 856 0 l 474 0 l 474 253 l 290 253 l 290 0 l 65 0 l 65 681 l 290 681 m 735 142 q 803 163 779 142 q 826 238 826 183 q 801 306 826 289 q 742 322 776 322 l 690 322 l 690 142 l 735 142 z "},"ћ":{"ha":810,"x_min":-33,"x_max":744,"o":"m -33 744 l -33 876 l 111 876 l 111 1028 l 336 1028 l 336 876 l 582 876 l 582 744 l 336 744 l 336 644 q 335 601 336 622 q 335 554 335 581 l 336 554 q 439 630 386 599 q 565 661 492 661 q 694 604 644 661 q 744 435 744 547 l 744 0 l 519 0 l 519 357 q 517 395 519 376 q 508 428 515 414 q 488 451 501 443 q 454 460 475 460 q 388 438 418 460 q 336 393 358 417 l 336 0 l 111 0 l 111 744 l -33 744 z "},"ќ":{"ha":735,"x_min":65,"x_max":743,"o":"m 290 681 l 290 442 l 350 442 l 489 681 l 743 681 l 529 358 l 743 0 l 490 0 l 350 254 l 290 254 l 290 0 l 65 0 l 65 681 l 290 681 m 606 1007 l 440 799 l 296 799 l 396 1007 l 606 1007 z "},"ў":{"ha":707,"x_min":-1,"x_max":707,"o":"m 63 -183 q 117 -187 89 -187 q 155 -182 135 -187 q 194 -162 175 -176 q 228 -124 213 -147 q 254 -64 244 -100 l 269 -11 l -1 681 l 243 681 l 343 346 q 356 295 350 325 q 365 238 363 265 l 372 238 q 381 292 375 258 q 393 347 388 326 l 479 681 l 707 681 l 446 -110 q 326 -297 406 -233 q 139 -360 247 -360 q 88 -356 113 -360 q 44 -344 63 -351 l 63 -183 m 256 1000 q 288 927 267 957 q 357 897 308 897 q 427 926 406 897 q 458 1000 449 956 l 601 969 q 584 893 599 932 q 540 822 569 854 q 466 770 511 790 q 357 750 421 750 q 247 770 292 750 q 174 823 203 790 q 131 894 144 856 q 113 971 117 933 l 256 1000 z "},"џ":{"ha":764,"x_min":65,"x_max":700,"o":"m 65 0 l 65 681 l 290 681 l 290 176 l 475 176 l 475 681 l 700 681 l 700 0 l 485 0 l 485 -219 l 281 -219 l 281 0 l 65 0 z "},"Ѣ":{"ha":957,"x_min":19,"x_max":922,"o":"m 19 671 l 19 847 l 256 847 l 256 990 l 490 990 l 490 847 l 765 847 l 765 671 l 490 671 l 490 574 l 629 574 q 844 508 767 574 q 922 296 922 443 q 892 160 922 217 q 815 69 863 104 q 708 17 768 33 q 589 0 649 0 l 256 0 l 256 671 l 19 671 m 567 172 q 657 203 629 172 q 685 289 685 233 q 656 378 685 354 q 569 401 626 401 l 481 401 l 481 172 l 567 172 z "},"ѣ":{"ha":819,"x_min":17,"x_max":790,"o":"m 17 524 l 17 681 l 208 681 l 208 1028 l 435 1028 l 435 681 l 642 681 l 642 524 l 435 524 l 435 438 l 544 438 q 633 427 589 438 q 712 392 676 417 q 769 325 747 367 q 790 219 790 283 q 774 131 790 171 q 726 61 757 90 q 649 16 694 32 q 549 0 604 0 l 208 0 l 208 524 l 17 524 m 471 132 q 539 149 514 132 q 564 221 564 167 q 557 265 564 249 q 538 291 550 282 q 510 303 525 300 q 478 306 494 306 l 421 306 l 421 132 l 471 132 z "},"Ѳ":{"ha":946,"x_min":42,"x_max":904,"o":"m 42 486 q 69 694 42 601 q 149 851 96 786 q 284 950 203 915 q 474 985 365 985 q 663 950 582 985 q 797 851 743 915 q 878 694 851 786 q 904 486 904 601 q 878 278 904 371 q 797 122 851 186 q 663 22 743 57 q 474 -12 582 -12 q 284 22 365 -12 q 149 122 203 57 q 69 278 96 186 q 42 486 42 371 m 282 396 q 301 315 288 354 q 337 247 314 276 q 393 199 360 217 q 474 182 426 182 q 553 199 519 182 q 608 247 586 217 q 644 315 631 276 q 664 396 657 354 l 282 396 m 661 583 q 641 661 654 624 q 606 727 628 699 q 551 773 583 756 q 474 790 518 790 q 395 773 428 790 q 340 727 363 756 q 303 661 317 699 q 283 583 290 624 l 661 583 z "},"ѳ":{"ha":747,"x_min":33,"x_max":715,"o":"m 33 339 q 59 497 33 431 q 131 608 85 564 q 239 672 176 651 q 375 693 301 693 q 510 672 447 693 q 618 608 572 651 q 690 497 664 564 q 715 339 715 431 q 689 181 715 247 q 617 72 663 114 q 508 8 571 29 q 374 -12 446 -12 q 238 8 300 -12 q 131 72 176 29 q 59 181 85 114 q 33 339 33 247 m 260 271 q 294 188 267 222 q 374 154 321 154 q 453 188 426 154 q 489 271 481 222 l 260 271 m 489 410 q 453 492 481 458 q 375 526 426 526 q 294 492 322 526 q 260 410 267 458 l 489 410 z "},"Ѵ":{"ha":943,"x_min":-8,"x_max":951,"o":"m 238 972 l 388 386 q 400 324 394 358 q 410 258 406 290 l 422 258 q 435 324 428 292 q 450 388 442 356 l 539 726 q 576 828 553 781 q 634 910 599 875 q 718 965 669 944 q 832 985 767 985 q 951 971 900 985 q 944 933 949 960 q 935 878 940 907 q 926 824 931 850 q 918 786 921 797 q 882 793 900 792 q 853 794 864 794 q 806 782 825 794 q 772 749 786 769 q 747 699 757 728 q 726 639 736 671 l 528 0 l 296 0 l -8 972 l 238 972 z "},"ѵ":{"ha":775,"x_min":0,"x_max":775,"o":"m 242 681 l 331 310 q 342 262 336 290 q 350 207 347 233 l 356 207 q 365 264 358 235 q 376 310 371 293 l 424 483 q 462 581 439 542 q 517 646 485 621 q 590 682 549 671 q 685 693 632 693 q 731 690 706 693 q 775 679 756 686 l 754 524 q 728 526 739 526 q 711 526 718 526 q 648 498 674 526 q 596 393 622 469 l 457 0 l 239 0 l 0 681 l 242 681 z "},"Ґ":{"ha":665,"x_min":78,"x_max":642,"o":"m 442 972 l 442 1172 l 642 1172 l 642 771 l 310 771 l 310 0 l 78 0 l 78 972 l 442 972 z "},"ґ":{"ha":561,"x_min":65,"x_max":540,"o":"m 353 681 l 353 846 l 540 846 l 540 501 l 290 501 l 290 0 l 65 0 l 65 681 l 353 681 z "},"ẞ":{"ha":878,"x_min":78,"x_max":844,"o":"m 436 164 q 521 176 488 165 q 573 203 554 186 q 599 246 592 221 q 606 303 606 271 q 573 394 606 365 q 481 422 540 422 l 401 422 l 401 524 l 558 708 q 522 767 547 744 q 447 790 496 790 q 344 743 375 790 q 313 618 313 696 l 313 0 l 78 0 l 78 632 q 105 792 78 725 q 182 901 132 858 q 303 965 232 944 q 461 985 374 985 q 597 961 538 985 q 699 899 657 938 q 767 813 742 861 q 801 715 793 764 l 642 544 l 642 542 q 749 507 708 533 q 810 445 789 481 q 838 372 831 410 q 844 303 844 333 q 742 70 844 153 q 436 -12 640 -12 l 436 164 l 436 164 z "},"‐":{"ha":575,"x_min":97,"x_max":479,"o":"m 479 453 l 479 283 l 97 283 l 97 453 l 479 453 z "},"‑":{"ha":575,"x_min":97,"x_max":479,"o":"m 479 453 l 479 283 l 97 283 l 97 453 l 479 453 z "},"‒":{"ha":729,"x_min":49,"x_max":682,"o":"m 682 576 l 682 407 l 49 407 l 49 576 l 682 576 z "},"–":{"ha":761,"x_min":51,"x_max":711,"o":"m 711 496 l 711 326 l 51 326 l 51 496 l 711 496 z "},"—":{"ha":979,"x_min":51,"x_max":929,"o":"m 929 496 l 929 326 l 51 326 l 51 496 l 929 496 z "},"‘":{"ha":399,"x_min":100,"x_max":300,"o":"m 300 972 l 300 579 l 100 579 l 183 972 l 300 972 z "},"’":{"ha":399,"x_min":100,"x_max":300,"o":"m 300 972 l 217 579 l 100 579 l 100 972 l 300 972 z "},"‚":{"ha":399,"x_min":100,"x_max":300,"o":"m 300 213 l 217 -181 l 100 -181 l 100 213 l 300 213 z "},"“":{"ha":654,"x_min":100,"x_max":554,"o":"m 300 972 l 300 579 l 100 579 l 183 972 l 300 972 m 554 972 l 554 579 l 354 579 l 438 972 l 554 972 z "},"”":{"ha":654,"x_min":100,"x_max":554,"o":"m 300 972 l 217 579 l 100 579 l 100 972 l 300 972 m 554 972 l 471 579 l 354 579 l 354 972 l 554 972 z "},"„":{"ha":654,"x_min":100,"x_max":554,"o":"m 300 213 l 217 -181 l 100 -181 l 100 213 l 300 213 m 554 213 l 471 -181 l 354 -181 l 354 213 l 554 213 z "},"†":{"ha":794,"x_min":44,"x_max":750,"o":"m 44 467 l 44 644 l 288 644 l 288 972 l 507 972 l 507 644 l 750 644 l 750 467 l 507 467 l 507 -347 l 288 -347 l 288 467 l 44 467 z "},"‡":{"ha":794,"x_min":44,"x_max":750,"o":"m 44 -19 l 44 158 l 288 158 l 288 467 l 44 467 l 44 644 l 288 644 l 288 972 l 507 972 l 507 644 l 750 644 l 750 467 l 507 467 l 507 158 l 750 158 l 750 -19 l 507 -19 l 507 -347 l 288 -347 l 288 -19 l 44 -19 z "},"•":{"ha":531,"x_min":54,"x_max":478,"o":"m 54 483 q 70 567 54 528 q 115 635 86 606 q 181 681 143 664 q 265 699 219 699 q 350 681 311 699 q 417 635 389 664 q 462 567 446 606 q 478 483 478 528 q 462 400 478 439 q 417 332 446 361 q 350 286 389 303 q 265 269 311 269 q 181 286 219 269 q 115 332 143 303 q 70 400 86 361 q 54 483 54 439 z "},"…":{"ha":1042,"x_min":100,"x_max":942,"o":"m 300 213 l 300 0 l 100 0 l 100 213 l 300 213 m 621 213 l 621 0 l 421 0 l 421 213 l 621 213 m 942 213 l 942 0 l 742 0 l 742 213 l 942 213 z "},"‰":{"ha":1725,"x_min":61,"x_max":1664,"o":"m 61 703 q 79 826 61 774 q 129 915 97 879 q 203 967 161 950 q 293 985 244 985 q 383 967 340 985 q 456 915 425 950 q 506 826 488 879 q 524 703 524 774 q 506 580 524 632 q 456 492 488 528 q 383 440 425 457 q 293 422 340 422 q 203 440 244 422 q 129 492 161 457 q 79 580 97 528 q 61 703 61 632 m 358 703 q 344 808 358 769 q 293 847 329 847 q 242 808 257 847 q 228 703 228 769 q 244 590 228 622 q 293 558 261 558 q 341 590 324 558 q 358 703 358 622 m 682 269 q 701 392 682 340 q 751 480 719 444 q 824 533 782 515 q 914 550 867 550 q 1003 533 961 550 q 1077 480 1046 515 q 1127 392 1108 444 q 1146 269 1146 340 q 1128 146 1146 199 q 1078 58 1110 93 q 1003 5 1046 22 q 914 -12 961 -12 q 824 5 867 -12 q 751 58 782 22 q 701 146 719 93 q 682 269 682 199 m 978 269 q 964 375 978 336 q 914 414 950 414 q 864 375 878 414 q 850 269 850 336 q 867 157 850 189 q 914 125 883 125 q 961 157 944 125 q 978 269 978 189 m 1201 269 q 1219 392 1201 340 q 1269 480 1238 444 q 1342 533 1300 515 q 1432 550 1385 550 q 1522 533 1479 550 q 1596 480 1564 515 q 1646 392 1628 444 q 1664 269 1664 340 q 1646 146 1664 199 q 1596 58 1628 93 q 1522 5 1564 22 q 1432 -12 1479 -12 q 1342 5 1385 -12 q 1269 58 1300 22 q 1219 146 1238 93 q 1201 269 1201 199 m 1497 269 q 1483 375 1497 336 q 1432 414 1468 414 q 1383 375 1397 414 q 1368 269 1368 336 q 1385 157 1368 189 q 1432 125 1401 125 q 1481 157 1464 125 q 1497 269 1497 189 m 849 1007 l 947 939 l 354 -33 l 254 33 l 849 1007 z "},"‹":{"ha":432,"x_min":57,"x_max":382,"o":"m 239 672 l 382 603 l 251 354 l 382 107 l 239 38 l 57 354 l 239 672 z "},"›":{"ha":432,"x_min":51,"x_max":375,"o":"m 181 354 l 51 603 l 193 672 l 375 354 l 193 38 l 51 107 l 181 354 z "},"⁄":{"ha":179,"x_min":-168,"x_max":360,"o":"m 249 1028 l 360 982 l -61 -75 l -168 -26 l 249 1028 z "},"€":{"ha":878,"x_min":24,"x_max":832,"o":"m 24 315 l 58 425 l 136 425 q 134 447 135 436 q 133 468 133 457 q 133 485 133 476 q 135 501 133 493 l 24 501 l 58 611 l 144 611 q 267 885 171 786 q 525 985 363 985 q 629 974 583 985 q 712 943 675 963 q 776 899 749 924 q 822 847 803 874 l 711 714 q 638 776 676 751 q 544 801 600 801 q 431 749 471 801 q 375 611 390 697 l 657 611 l 622 501 l 363 501 l 363 464 q 364 444 364 453 q 365 425 364 435 l 599 425 l 564 315 l 386 315 q 442 205 404 240 q 542 169 481 169 q 643 195 600 169 q 728 265 686 221 l 832 140 q 700 31 779 74 q 524 -12 621 -12 q 272 66 368 -12 q 147 315 176 144 l 24 315 z "},"₴":{"ha":744,"x_min":49,"x_max":696,"o":"m 82 214 q 92 287 82 254 q 117 344 101 319 l 49 344 l 49 454 l 203 454 l 269 524 l 49 524 l 49 633 l 378 633 q 415 683 404 658 q 426 731 426 708 q 408 781 426 760 q 346 801 390 801 q 256 783 293 801 q 179 733 219 764 l 99 885 q 228 955 151 925 q 408 985 304 985 q 540 967 489 985 q 619 921 590 949 q 659 858 649 893 q 669 789 669 822 q 652 701 669 740 q 614 633 635 663 l 696 633 l 696 524 l 524 524 l 456 454 l 696 454 l 696 344 l 358 344 q 328 294 335 317 q 322 250 322 272 q 352 190 322 210 q 431 169 382 169 q 531 196 489 169 q 600 250 574 222 l 683 103 q 619 54 651 75 q 549 18 586 33 q 469 -5 513 3 q 374 -12 426 -12 q 225 10 282 -12 q 136 65 168 32 q 93 138 104 99 q 82 214 82 178 z "},"₽":{"ha":792,"x_min":38,"x_max":767,"o":"m 38 161 l 38 301 l 146 301 l 146 381 l 38 381 l 38 521 l 146 521 l 146 972 l 433 972 q 567 958 506 972 q 672 909 628 943 q 742 820 717 875 q 767 686 767 765 q 734 533 767 592 q 653 440 701 474 q 547 393 604 406 q 442 381 490 381 l 371 381 l 371 301 l 603 301 l 603 161 l 371 161 l 371 0 l 146 0 l 146 161 l 38 161 m 418 524 q 458 531 436 524 q 497 556 479 538 q 527 604 515 574 q 539 682 539 635 q 528 756 539 728 q 499 801 517 785 q 461 822 482 817 q 421 826 440 826 l 364 826 l 364 524 l 418 524 z "},"№":{"ha":1411,"x_min":78,"x_max":1358,"o":"m 324 972 l 542 532 q 554 504 547 521 q 569 469 561 488 q 583 431 576 450 q 597 396 590 413 l 610 396 q 603 479 606 435 q 601 550 601 524 l 601 972 l 817 972 l 817 0 l 603 0 l 346 515 q 319 575 333 540 q 292 642 304 610 l 281 642 q 284 604 282 628 q 288 553 286 581 q 292 500 290 526 q 294 457 294 474 l 294 0 l 78 0 l 78 972 l 324 972 m 926 717 q 944 837 926 786 q 992 920 963 888 q 1061 969 1022 953 q 1142 985 1100 985 q 1224 969 1185 985 q 1292 920 1263 953 q 1340 837 1322 888 q 1358 717 1358 786 q 1340 597 1358 647 q 1292 515 1322 547 q 1224 466 1263 482 q 1142 450 1185 450 q 1061 466 1100 450 q 992 515 1022 482 q 944 597 963 547 q 926 717 926 647 m 1201 718 q 1185 827 1201 797 q 1142 857 1169 857 q 1099 827 1114 857 q 1085 718 1085 797 q 1099 608 1085 639 q 1142 578 1114 578 q 1185 608 1169 578 q 1201 718 1201 639 m 1351 367 l 1351 200 l 935 200 l 935 367 l 1351 367 z "},"℗":{"ha":1050,"x_min":86,"x_max":964,"o":"m 86 485 q 117 675 86 585 q 206 834 149 765 q 344 944 264 903 q 525 985 425 985 q 706 944 625 985 q 844 834 786 903 q 933 675 901 765 q 964 485 964 585 q 933 296 964 386 q 844 137 901 206 q 705 27 786 68 q 525 -14 624 -14 q 345 27 426 -14 q 206 137 264 68 q 117 296 149 206 q 86 485 86 386 m 861 483 q 837 634 861 563 q 769 760 813 706 q 663 847 725 814 q 524 879 600 879 q 386 847 447 879 q 281 760 325 814 q 214 634 238 706 q 190 483 190 563 q 214 335 190 406 q 281 210 238 264 q 386 124 325 156 q 524 92 447 92 q 662 124 600 92 q 768 210 724 156 q 837 335 813 264 q 861 483 861 406 m 561 746 q 617 738 588 746 q 671 712 646 731 q 712 662 696 693 q 728 582 728 631 q 678 455 728 499 q 550 411 629 411 l 503 411 l 503 235 l 372 235 l 372 746 l 561 746 m 538 508 q 578 526 563 508 q 594 582 594 543 q 578 633 594 617 q 540 649 563 649 l 499 649 l 499 508 l 538 508 z "},"™":{"ha":1186,"x_min":35,"x_max":1111,"o":"m 726 972 l 796 764 q 813 688 806 732 l 819 688 q 826 730 822 708 q 835 764 831 751 l 907 972 l 1072 972 l 1111 421 l 960 421 l 944 646 q 944 667 944 654 q 943 695 943 681 q 943 723 943 710 q 943 744 943 736 l 936 744 l 869 531 l 760 531 l 693 744 l 688 744 q 687 725 688 738 q 686 698 686 713 q 685 669 686 683 q 685 646 685 656 l 669 421 l 522 421 l 563 972 l 726 972 m 35 842 l 35 972 l 475 972 l 475 842 l 331 842 l 331 421 l 179 421 l 179 842 l 35 842 z "},"∂":{"ha":728,"x_min":32,"x_max":708,"o":"m 32 290 q 51 435 32 365 q 108 560 71 506 q 200 647 146 614 q 325 679 254 679 q 442 645 399 679 q 510 561 486 611 l 517 561 q 518 578 518 572 q 518 593 518 585 q 500 695 518 649 q 449 777 482 742 q 372 835 417 813 q 276 865 328 857 l 296 1028 q 456 994 381 1024 q 588 908 532 964 q 676 771 643 853 q 708 579 708 689 q 690 367 708 472 q 629 176 672 261 q 513 40 586 92 q 331 -12 440 -12 q 214 6 268 -12 q 119 63 160 25 q 56 157 79 100 q 32 290 32 214 m 468 429 q 435 482 457 461 q 372 503 413 503 q 320 483 342 503 q 284 433 299 464 q 263 362 269 401 q 256 282 256 322 q 275 192 256 229 q 340 154 294 154 q 402 180 378 154 q 441 246 426 206 q 462 335 456 286 q 468 429 468 383 z "},"∏":{"ha":901,"x_min":78,"x_max":822,"o":"m 822 972 l 822 -347 l 593 -347 l 593 771 l 307 771 l 307 -347 l 78 -347 l 78 972 l 822 972 z "},"∑":{"ha":717,"x_min":28,"x_max":696,"o":"m 319 331 l 28 819 l 28 972 l 696 972 l 696 771 l 307 771 l 307 764 q 328 728 318 744 q 349 697 338 713 l 563 331 l 358 -57 q 336 -96 351 -72 q 310 -139 321 -119 l 310 -146 l 696 -146 l 696 -347 l 28 -347 l 28 -194 l 319 331 z "},"−":{"ha":824,"x_min":88,"x_max":735,"o":"m 735 563 l 735 404 l 88 404 l 88 563 l 735 563 z "},"∕":{"ha":714,"x_min":17,"x_max":697,"o":"m 549 1081 l 697 1015 l 167 -289 l 17 -219 l 549 1081 z "},"√":{"ha":979,"x_min":53,"x_max":961,"o":"m 53 478 l 53 640 l 347 640 l 496 115 l 500 115 l 647 1083 l 961 1083 l 961 931 l 799 931 l 593 -292 l 444 -292 l 199 478 l 53 478 z "},"∞":{"ha":1024,"x_min":88,"x_max":936,"o":"m 88 483 q 100 565 88 522 q 138 643 113 608 q 202 701 163 678 q 296 724 242 724 q 374 707 336 724 q 449 649 413 690 l 513 578 l 578 651 q 647 704 608 685 q 729 724 685 724 q 815 704 776 724 q 880 652 853 685 q 922 576 907 619 q 936 483 936 532 q 924 403 936 444 q 888 326 913 361 q 823 269 863 292 q 728 247 783 247 q 578 318 643 247 l 511 390 l 447 319 q 375 264 414 281 q 296 247 336 247 q 202 269 242 247 q 138 325 163 290 q 100 401 113 360 q 88 483 88 443 m 432 483 l 381 539 q 345 572 361 561 q 304 582 329 582 q 251 551 268 582 q 233 483 233 521 q 254 413 233 438 q 301 388 275 388 q 343 399 324 388 q 390 440 363 411 l 432 483 m 792 483 q 771 557 792 531 q 722 583 750 583 q 681 572 700 583 q 635 529 663 560 l 592 483 l 640 435 q 677 401 660 414 q 719 388 694 388 q 770 415 749 388 q 792 483 792 443 z "},"∫":{"ha":632,"x_min":22,"x_max":610,"o":"m 31 -186 q 61 -189 49 -189 q 89 -189 74 -189 q 132 -182 111 -189 q 169 -159 153 -175 q 194 -118 185 -143 q 204 -56 204 -93 l 204 714 q 226 852 204 793 q 288 950 249 911 q 384 1008 328 989 q 507 1028 440 1028 q 562 1026 533 1028 q 610 1018 590 1024 l 601 853 q 571 856 583 856 q 543 856 558 856 q 464 826 499 856 q 429 722 429 796 l 429 -47 q 407 -185 429 -126 q 344 -283 385 -244 q 249 -342 304 -322 q 125 -361 193 -361 q 71 -359 100 -361 q 22 -351 42 -357 l 31 -186 z "},"≈":{"ha":833,"x_min":88,"x_max":744,"o":"m 88 315 q 120 363 100 339 q 167 408 140 388 q 224 441 193 428 q 290 454 256 454 q 352 444 322 454 q 413 419 382 433 q 480 392 449 404 q 539 381 511 381 q 606 404 575 381 q 654 454 638 428 l 744 368 q 713 317 732 343 q 668 271 693 292 q 612 236 643 250 q 546 222 581 222 q 472 235 510 222 q 401 264 435 249 q 341 288 369 279 q 288 297 313 297 q 219 272 246 297 q 174 222 193 247 l 88 315 m 88 603 q 120 651 100 626 q 167 697 140 676 q 224 730 193 717 q 290 743 256 743 q 352 733 322 743 q 413 708 382 722 q 480 681 449 693 q 539 669 511 669 q 606 693 575 669 q 654 743 638 717 l 744 663 q 713 611 732 638 q 668 562 693 585 q 612 524 643 539 q 546 510 581 510 q 472 524 510 510 q 401 553 435 538 q 341 576 369 568 q 288 585 313 585 q 219 560 246 585 q 174 510 193 536 l 88 603 z "},"≠":{"ha":824,"x_min":88,"x_max":735,"o":"m 236 256 l 88 256 l 88 414 l 313 414 l 376 547 l 88 547 l 88 706 l 453 706 l 544 896 l 657 840 l 592 706 l 735 706 l 735 547 l 515 547 l 450 414 l 735 414 l 735 256 l 374 256 l 286 74 l 174 129 l 236 256 z "},"≤":{"ha":788,"x_min":88,"x_max":699,"o":"m 88 651 l 699 975 l 699 807 l 321 615 l 321 614 l 699 422 l 699 254 l 88 578 l 88 651 m 88 472 l 699 147 l 699 -19 l 88 304 l 88 472 z "},"≥":{"ha":788,"x_min":88,"x_max":699,"o":"m 468 614 l 468 615 l 88 807 l 88 975 l 699 651 l 699 578 l 88 254 l 88 422 l 468 614 m 699 472 l 699 304 l 88 -19 l 88 147 l 699 472 z "},"◊":{"ha":756,"x_min":38,"x_max":718,"o":"m 350 972 l 406 972 l 718 486 l 406 0 l 350 0 l 38 486 l 350 972 m 378 719 l 243 486 l 378 253 l 511 486 l 378 719 z "},"":{"ha":0,"x_min":-436,"x_max":-128,"o":"m -128 986 l -292 778 l -436 778 l -336 986 l -128 986 z "},"":{"ha":0,"x_min":-540,"x_max":-210,"o":"m -210 1306 l -392 1067 l -540 1067 l -429 1306 l -210 1306 z "},"":{"ha":946,"x_min":222,"x_max":724,"o":"m 371 1297 q 403 1224 379 1256 q 472 1193 428 1193 q 542 1224 519 1193 q 575 1296 565 1254 l 724 1286 q 703 1196 719 1238 q 655 1124 686 1154 q 578 1076 624 1093 q 472 1060 533 1060 q 366 1077 411 1060 q 290 1125 321 1094 q 243 1197 260 1156 q 222 1288 226 1239 l 371 1297 z "},"":{"ha":950,"x_min":308,"x_max":643,"o":"m 350 -225 q 397 -249 369 -240 q 449 -257 425 -257 q 508 -203 508 -257 q 486 -162 508 -172 q 436 -153 464 -153 q 404 -153 425 -153 q 367 -156 383 -153 l 393 0 l 503 0 l 490 -65 q 606 -103 569 -65 q 643 -201 643 -142 q 628 -269 643 -239 q 588 -319 614 -299 q 528 -351 563 -340 q 457 -361 494 -361 q 373 -350 413 -361 q 308 -317 333 -339 l 350 -225 z "},"":{"ha":946,"x_min":210,"x_max":738,"o":"m 554 1301 l 738 1065 l 575 1065 l 474 1183 l 372 1065 l 210 1065 l 392 1301 l 554 1301 z "},"":{"ha":864,"x_min":331,"x_max":535,"o":"m 535 -90 l 451 -460 l 331 -460 l 331 -90 l 535 -90 z "},"":{"ha":310,"x_min":57,"x_max":253,"o":"m 253 972 l 171 631 l 57 631 l 57 972 l 253 972 z "},"":{"ha":946,"x_min":379,"x_max":568,"o":"m 568 1285 l 568 1086 l 379 1086 l 379 1285 l 568 1285 z "},"":{"ha":850,"x_min":256,"x_max":596,"o":"m 256 1218 q 267 1287 256 1254 q 301 1344 279 1319 q 355 1382 324 1368 q 425 1396 386 1396 q 494 1382 463 1396 q 549 1344 526 1368 q 583 1287 571 1319 q 596 1218 596 1254 q 583 1149 596 1182 q 549 1092 571 1117 q 494 1054 526 1068 q 425 1040 463 1040 q 355 1054 386 1040 q 301 1092 324 1068 q 267 1149 279 1117 q 256 1218 256 1182 m 490 1218 q 472 1268 490 1246 q 425 1290 453 1290 q 378 1268 396 1290 q 361 1218 361 1246 q 378 1168 361 1190 q 425 1146 396 1146 q 472 1168 453 1146 q 490 1218 490 1190 z "},"":{"ha":946,"x_min":221,"x_max":725,"o":"m 460 1104 q 419 1124 439 1115 q 382 1132 400 1132 q 356 1121 371 1132 q 336 1072 342 1110 l 221 1071 q 230 1147 221 1111 q 258 1211 239 1183 q 304 1256 276 1239 q 369 1272 332 1272 q 428 1263 400 1272 q 489 1238 457 1253 q 537 1215 517 1225 q 569 1206 557 1206 q 594 1216 581 1206 q 613 1268 608 1226 l 725 1268 q 686 1117 725 1169 q 590 1065 647 1065 q 561 1067 575 1065 q 532 1074 547 1069 q 499 1085 517 1078 q 460 1104 482 1093 z "},"":{"ha":1022,"x_min":353,"x_max":669,"o":"m 353 -189 q 388 -74 353 -128 q 493 21 422 -19 l 614 21 q 518 -60 550 -14 q 486 -156 486 -106 q 503 -206 486 -186 q 553 -226 521 -226 q 589 -222 571 -226 q 632 -203 607 -218 l 669 -290 q 590 -331 633 -324 q 517 -339 546 -339 q 394 -294 435 -339 q 353 -189 353 -250 z "},"":{"ha":918,"x_min":11,"x_max":908,"o":"m 483 635 q 469 689 476 657 q 458 749 463 721 l 447 749 q 433 690 440 722 q 419 636 425 658 l 361 418 l 538 418 l 483 635 m 583 972 l 908 0 l 665 0 l 592 217 l 310 217 l 242 0 l 11 0 l 333 972 l 583 972 m 719 1306 l 538 1067 l 389 1067 l 500 1306 l 719 1306 z "},"":{"ha":708,"x_min":78,"x_max":675,"o":"m 675 972 l 675 771 l 313 771 l 313 593 l 600 593 l 600 394 l 313 394 l 313 201 l 675 201 l 675 0 l 78 0 l 78 972 l 675 972 m 614 1306 l 432 1067 l 283 1067 l 394 1306 l 614 1306 z "},"":{"ha":913,"x_min":78,"x_max":835,"o":"m 313 972 l 313 521 q 309 456 313 496 q 301 386 306 417 l 311 386 q 335 442 321 410 q 360 494 349 475 l 632 972 l 835 972 l 835 0 l 600 0 l 600 442 q 603 506 600 467 q 611 576 607 546 l 601 576 q 578 520 592 553 q 553 468 564 488 l 281 0 l 78 0 l 78 972 l 313 972 m 717 1306 l 535 1067 l 386 1067 l 497 1306 l 717 1306 z "},"":{"ha":946,"x_min":42,"x_max":904,"o":"m 42 486 q 69 694 42 601 q 149 851 96 786 q 284 950 203 915 q 474 985 365 985 q 663 950 582 985 q 797 851 743 915 q 878 694 851 786 q 904 486 904 601 q 878 278 904 371 q 797 122 851 186 q 663 22 743 57 q 474 -12 582 -12 q 284 22 365 -12 q 149 122 203 57 q 69 278 96 186 q 42 486 42 371 m 667 486 q 659 593 667 539 q 631 691 651 647 q 572 763 610 735 q 474 790 533 790 q 375 763 413 790 q 317 691 338 735 q 288 593 296 647 q 281 486 281 539 q 288 379 281 433 q 317 281 296 325 q 375 210 338 238 q 474 182 413 182 q 572 210 533 182 q 631 281 610 238 q 659 379 651 325 q 667 486 667 433 m 733 1306 l 551 1067 l 403 1067 l 514 1306 l 733 1306 z "},"":{"ha":811,"x_min":-7,"x_max":817,"o":"m 154 185 q 192 177 171 179 q 226 175 213 175 q 288 198 264 175 q 325 257 311 221 l 336 286 l -7 972 l 253 972 l 403 604 q 417 557 410 585 q 432 499 425 529 l 442 499 q 453 558 447 532 q 465 601 460 585 l 578 972 l 817 972 l 546 239 q 427 51 501 115 q 228 -12 353 -12 q 175 -9 204 -12 q 121 3 146 -6 l 154 185 m 665 1306 l 483 1067 l 335 1067 l 446 1306 l 665 1306 z "},"":{"ha":1142,"x_min":78,"x_max":1064,"o":"m 313 972 l 313 624 l 435 624 q 656 549 576 624 q 735 317 735 475 q 705 174 735 233 q 626 76 675 114 q 515 19 576 38 q 389 0 453 0 l 78 0 l 78 972 l 313 972 m 375 178 q 470 213 438 178 q 503 314 503 247 q 469 417 503 389 q 379 446 436 446 l 308 446 l 308 178 l 375 178 m 1064 972 l 1064 0 l 829 0 l 829 972 l 1064 972 m 831 1306 l 649 1067 l 500 1067 l 611 1306 l 831 1306 z "},"":{"ha":857,"x_min":32,"x_max":817,"o":"m 139 290 q 231 219 175 251 q 360 186 288 186 q 505 244 449 186 q 572 399 561 301 l 297 399 l 297 583 l 572 583 q 522 729 567 674 q 389 785 476 785 q 267 756 318 785 q 174 682 217 726 l 46 817 q 103 873 68 843 q 186 928 139 903 q 290 969 233 953 q 411 985 346 985 q 576 955 501 985 q 705 865 651 925 q 788 715 758 804 q 817 504 817 625 q 783 278 817 375 q 690 116 750 181 q 548 19 631 51 q 367 -12 465 -12 q 267 -1 315 -12 q 174 31 218 11 q 94 77 131 50 q 32 136 58 104 l 139 290 m 672 1306 l 490 1067 l 342 1067 l 453 1306 l 672 1306 z "},"":{"ha":1317,"x_min":78,"x_max":1275,"o":"m 313 399 l 313 0 l 78 0 l 78 972 l 313 972 l 313 611 l 444 611 q 571 885 471 786 q 854 985 671 985 q 1042 950 963 985 q 1173 851 1121 915 q 1250 694 1225 786 q 1275 486 1275 601 q 1250 278 1275 371 q 1173 122 1225 186 q 1042 22 1121 57 q 854 -12 963 -12 q 684 16 757 -12 q 560 97 611 44 q 478 226 508 150 q 439 399 449 303 l 313 399 m 1036 486 q 1030 593 1036 539 q 1005 691 1024 647 q 950 763 986 735 q 854 790 914 790 q 757 763 793 790 q 701 691 721 735 q 676 593 682 647 q 669 486 669 539 q 676 379 669 433 q 701 281 682 325 q 757 210 721 238 q 854 182 793 182 q 950 210 914 182 q 1005 281 986 238 q 1030 379 1024 325 q 1036 486 1036 433 m 918 1306 l 736 1067 l 588 1067 l 699 1306 l 918 1306 z "},"":{"ha":821,"x_min":1,"x_max":743,"o":"m 221 388 q 101 489 146 419 q 56 671 56 558 q 88 817 56 758 q 169 910 119 875 q 277 958 218 944 q 389 972 336 972 l 743 972 l 743 0 l 508 0 l 508 356 l 444 356 l 265 0 l 1 0 l 221 388 m 514 794 l 413 794 q 329 765 364 794 q 294 665 294 736 q 305 603 294 628 q 333 562 315 578 q 372 540 350 546 q 415 533 393 533 l 514 533 l 514 794 m 686 1306 l 504 1067 l 356 1067 l 467 1306 l 686 1306 z "},"":{"ha":708,"x_min":78,"x_max":675,"o":"m 675 972 l 675 771 l 313 771 l 313 593 l 600 593 l 600 394 l 313 394 l 313 201 l 675 201 l 675 0 l 78 0 l 78 972 l 675 972 m 226 1257 l 226 1094 l 83 1094 l 83 1257 l 226 1257 m 518 1294 l 364 1067 l 243 1067 l 340 1294 l 518 1294 m 665 1257 l 665 1094 l 524 1094 l 524 1257 l 665 1257 z "},"":{"ha":724,"x_min":29,"x_max":658,"o":"m 29 196 q 54 305 29 261 q 119 374 79 349 q 210 410 160 400 q 313 421 261 421 l 433 421 l 433 426 q 408 499 433 472 q 324 526 382 526 q 230 509 275 526 q 144 464 185 492 l 78 601 q 213 667 136 642 q 372 693 290 693 q 478 679 426 693 q 569 633 529 665 q 634 550 610 601 q 658 422 658 499 l 658 0 l 439 0 l 439 88 l 436 88 q 402 58 422 75 q 355 24 382 40 q 292 -2 328 8 q 214 -12 257 -12 q 142 1 176 -12 q 83 40 108 14 q 44 106 58 67 q 29 196 29 144 m 440 299 l 354 299 q 285 281 310 299 q 261 226 261 263 q 276 181 261 199 q 325 164 290 164 q 391 186 363 164 q 440 236 419 208 l 440 299 m 604 1007 l 439 799 l 294 799 l 394 1007 l 604 1007 z "},"":{"ha":706,"x_min":33,"x_max":674,"o":"m 33 336 q 58 489 33 422 q 127 601 82 556 q 234 669 172 646 q 371 693 296 693 q 515 665 457 693 q 609 591 574 638 q 659 485 644 544 q 674 361 674 425 l 674 299 l 261 299 q 272 249 263 274 q 299 204 281 224 q 344 172 317 185 q 410 160 372 160 q 499 176 461 160 q 578 231 538 193 l 658 96 q 534 17 600 46 q 385 -12 468 -12 q 252 3 315 -12 q 140 60 189 19 q 63 167 92 100 q 33 336 33 233 m 461 424 q 434 506 458 472 q 363 539 410 539 q 299 513 328 539 q 263 424 269 486 l 461 424 m 600 1007 l 435 799 l 290 799 l 390 1007 l 600 1007 z "},"":{"ha":778,"x_min":65,"x_max":713,"o":"m 290 681 l 290 406 q 289 359 290 382 q 285 311 288 336 l 290 311 q 309 351 301 335 q 326 383 317 368 l 510 681 l 713 681 l 713 0 l 488 0 l 488 275 q 490 322 488 299 q 494 369 492 344 l 488 369 q 468 329 476 346 q 450 297 460 313 l 267 0 l 65 0 l 65 681 l 290 681 m 626 1007 l 461 799 l 317 799 l 417 1007 l 626 1007 z "}}}
